M48
; DRILL file {KiCad (5.1.5)-3} date 11/07/2020 10:03:08
; FORMAT={-:-/ absolute / inch / decimal}
; #@! TF.CreationDate,2020-07-11T10:03:08+02:00
; #@! TF.GenerationSoftware,Kicad,Pcbnew,(5.1.5)-3
; #@! TF.FileFunction,Plated,1,2,PTH
FMAT,2
INCH
T1C0.0118
T2C0.0236
T3C0.0276
T4C0.0394
T5C0.0472
T6C0.1260
%
G90
G05
T1
X0.66Y1.055
X0.915Y0.245
X0.915Y0.15
X0.95Y0.855
X1.185Y0.175
X1.335Y0.161
X1.425Y0.175
X1.705Y1.02
X1.705Y0.975
X1.705Y0.885
X1.705Y0.755
X1.705Y0.715
X1.705Y0.8
X2.45Y0.71
X2.665Y0.675
X2.665Y0.52
X2.78Y0.63
X2.78Y0.59
T3
X1.035Y1.1
X1.035Y0.1
X1.085Y1.1
X1.085Y0.1
X1.135Y1.1
X1.135Y0.1
X1.185Y1.1
X1.185Y0.1
X1.235Y1.1
X1.235Y0.1
X1.285Y1.1
X1.285Y0.1
X1.335Y1.1
X1.335Y0.1
X1.385Y1.1
X1.385Y0.1
X1.435Y1.1
X1.435Y0.1
X1.485Y1.1
X1.485Y0.1
X1.535Y1.1
X1.535Y0.1
X1.585Y1.1
X1.585Y0.1
X1.635Y1.1
X1.635Y0.1
X1.685Y1.1
X1.685Y0.1
X1.735Y1.1
X1.735Y0.1
X1.785Y1.1
X1.785Y0.1
X1.835Y1.1
X1.835Y0.1
X1.885Y1.1
X1.885Y0.1
X1.935Y1.1
X1.935Y0.1
X1.985Y1.1
X1.985Y0.1
X2.035Y1.1
X2.035Y0.1
X2.085Y1.1
X2.085Y0.1
X2.135Y1.1
X2.135Y0.1
X2.185Y1.1
X2.185Y0.1
X2.235Y1.1
X2.235Y0.1
X2.285Y1.1
X2.285Y0.1
X2.335Y1.1
X2.335Y0.1
X2.385Y1.1
X2.385Y0.1
X2.435Y1.1
X2.435Y0.1
X2.485Y1.1
X2.485Y0.1
T4
X0.645Y0.35
X0.645Y0.25
X0.645Y0.15
X2.8496Y0.7378
X2.8496Y0.6394
X2.8496Y0.5606
X2.8496Y0.4622
T5
X0.085Y0.385
X0.085Y0.285
X0.085Y0.185
X0.085Y0.085
X0.185Y0.185
T6
X2.88Y0.145
X0.39Y0.145
X2.88Y1.06
T2
G00X2.7464Y0.7701
M15
G01X2.7897Y0.7701
M16
G05
G00X2.7464Y0.4299
M15
G01X2.7897Y0.4299
M16
G05
G00X2.9208Y0.7701
M15
G01X2.9444Y0.7701
M16
G05
G00X2.9208Y0.4299
M15
G01X2.9444Y0.4299
M16
G05
T5
G00X2.8929Y0.8303
M15
G01X2.948Y0.8303
M16
G05
G00X2.8929Y0.3697
M15
G01X2.948Y0.3697
M16
G05
T0
M30
