G04 #@! TF.GenerationSoftware,KiCad,Pcbnew,(5.1.5)-3*
G04 #@! TF.CreationDate,2020-07-11T10:03:06+02:00*
G04 #@! TF.ProjectId,switch,73776974-6368-42e6-9b69-6361645f7063,rev?*
G04 #@! TF.SameCoordinates,PX48c2b58PY65ad6b4*
G04 #@! TF.FileFunction,Copper,L2,Bot*
G04 #@! TF.FilePolarity,Positive*
%FSLAX46Y46*%
G04 Gerber Fmt 4.6, Leading zero omitted, Abs format (unit mm)*
G04 Created by KiCad (PCBNEW (5.1.5)-3) date 2020-07-11 10:03:06*
%MOMM*%
%LPD*%
G04 APERTURE LIST*
%ADD10C,0.050000*%
%ADD11C,1.000000*%
%ADD12C,5.600000*%
%ADD13C,1.800000*%
%ADD14O,1.600000X1.000000*%
%ADD15O,2.100000X1.000000*%
%ADD16O,3.400000X2.000000*%
%ADD17O,3.400001X2.000000*%
%ADD18C,1.600000*%
%ADD19O,1.700000X1.700000*%
%ADD20R,1.700000X1.700000*%
%ADD21C,0.500000*%
%ADD22C,0.406400*%
%ADD23C,0.457200*%
%ADD24C,0.152400*%
%ADD25C,0.304800*%
%ADD26C,0.254000*%
G04 APERTURE END LIST*
D10*
X0Y30480000D02*
X76862000Y30480000D01*
X0Y0D02*
X0Y30480000D01*
X76862000Y0D02*
X0Y0D01*
X76862000Y30480000D02*
X76862000Y0D01*
D11*
X63119000Y27940000D03*
X61849000Y27940000D03*
X60579000Y27940000D03*
X59309000Y27940000D03*
X58039000Y27940000D03*
X56769000Y27940000D03*
X55499000Y27940000D03*
X54229000Y27940000D03*
X52959000Y27940000D03*
X51689000Y27940000D03*
X50419000Y27940000D03*
X49149000Y27940000D03*
X47879000Y27940000D03*
X46609000Y27940000D03*
X45339000Y27940000D03*
X44069000Y27940000D03*
X42799000Y27940000D03*
X41529000Y27940000D03*
X40259000Y27940000D03*
X38989000Y27940000D03*
X37719000Y27940000D03*
X36449000Y27940000D03*
X35179000Y27940000D03*
X33909000Y27940000D03*
X32639000Y27940000D03*
X31369000Y27940000D03*
X30099000Y27940000D03*
X28829000Y27940000D03*
X27559000Y27940000D03*
X26289000Y27940000D03*
X63119000Y2540000D03*
X61849000Y2540000D03*
X60579000Y2540000D03*
X59309000Y2540000D03*
X58039000Y2540000D03*
X56769000Y2540000D03*
X55499000Y2540000D03*
X54229000Y2540000D03*
X52959000Y2540000D03*
X51689000Y2540000D03*
X50419000Y2540000D03*
X49149000Y2540000D03*
X47879000Y2540000D03*
X46609000Y2540000D03*
X45339000Y2540000D03*
X44069000Y2540000D03*
X42799000Y2540000D03*
X41529000Y2540000D03*
X40259000Y2540000D03*
X38989000Y2540000D03*
X37719000Y2540000D03*
X36449000Y2540000D03*
X35179000Y2540000D03*
X33909000Y2540000D03*
X32639000Y2540000D03*
X31369000Y2540000D03*
X30099000Y2540000D03*
X28829000Y2540000D03*
X27559000Y2540000D03*
X26289000Y2540000D03*
D12*
X9906000Y3683000D03*
X73152000Y3683000D03*
X73152000Y26924000D03*
D13*
X4699000Y4699000D03*
X2159000Y9779000D03*
X2159000Y7239000D03*
X2159000Y4699000D03*
X2159000Y2159000D03*
D14*
X74489000Y19560000D03*
X74489000Y10920000D03*
D15*
X70309000Y19560000D03*
X70309000Y10920000D03*
D16*
X74179000Y9390000D03*
D17*
X74179000Y21090000D03*
D18*
X72379000Y11740000D03*
X72379000Y14240000D03*
X72379000Y16240000D03*
X72379000Y18740000D03*
D19*
X16383000Y3810000D03*
X16383000Y6350000D03*
D20*
X16383000Y8890000D03*
D21*
X43307000Y18161000D03*
X43307000Y19177002D03*
X43307002Y20320000D03*
X43307000Y22479000D03*
X43307000Y24765000D03*
X43307000Y25908000D03*
X24130000Y21717000D03*
X62230000Y18034000D03*
X23241000Y6223000D03*
X23241000Y3810000D03*
X70612000Y16002000D03*
X70612000Y14986000D03*
X67691000Y17145000D03*
X67691000Y13208000D03*
X16764000Y26797000D03*
X36195000Y4444998D03*
X33909000Y4089500D03*
X30099000Y4445000D03*
D22*
X54229000Y18161000D02*
X43307000Y18161000D01*
X63119000Y27940000D02*
X63119000Y27051000D01*
X63119000Y27051000D02*
X54229000Y18161000D01*
X58430911Y25305102D02*
X58387612Y25314984D01*
X58470926Y25285831D02*
X58430911Y25305102D01*
X58505650Y25258140D02*
X58470926Y25285831D01*
X58786141Y24977649D02*
X58505650Y25258140D01*
X58820864Y24949958D02*
X58786141Y24977649D01*
X52705002Y19177002D02*
X43307000Y19177002D01*
X58860880Y24930689D02*
X58820864Y24949958D01*
X59116917Y25869409D02*
X59257161Y25729165D01*
X58387612Y25314984D02*
X58343198Y25314984D01*
X59692286Y26507192D02*
X59652271Y26526462D01*
X57728409Y23700622D02*
X57683995Y23700621D01*
X57640696Y23710505D02*
X57600680Y23729774D01*
X59652271Y26526462D02*
X59608971Y26536345D01*
X57167428Y24094800D02*
X57123014Y24094800D01*
X56618529Y23590316D02*
X56618529Y23545903D01*
X59423924Y25553019D02*
X59443195Y25513004D01*
X57565957Y23757465D02*
X57285466Y24037956D01*
X57285466Y24037956D02*
X57250742Y24065647D01*
X57210727Y24084918D02*
X57167428Y24094800D01*
X57123014Y24094800D02*
X57079715Y24084918D01*
X59608971Y26536345D02*
X59564558Y26536345D01*
X59443195Y25513004D02*
X59453076Y25469704D01*
X56618529Y23545903D02*
X56628412Y23502603D01*
X58343198Y25314984D02*
X58299899Y25305102D01*
X60579000Y27940000D02*
X60579000Y27051000D01*
X57683995Y23700621D02*
X57640696Y23710505D01*
X57250742Y24065647D02*
X57210727Y24084918D01*
X57600680Y23729774D02*
X57565957Y23757465D01*
X59564558Y26536345D02*
X59521259Y26526462D01*
X59453076Y25469704D02*
X59453076Y25425290D01*
X56628412Y23502603D02*
X56647682Y23462588D01*
X59521259Y26526462D02*
X59481244Y26507192D01*
X59453076Y25425290D02*
X59443195Y25381992D01*
X56647682Y23462588D02*
X56703064Y23393142D01*
X59481244Y26507192D02*
X59446520Y26479500D01*
X59443195Y25381992D02*
X59423924Y25341977D01*
X56703064Y23393142D02*
X56722334Y23353127D01*
X59446520Y26479500D02*
X59116917Y26149898D01*
X59423924Y25341977D02*
X59396232Y25307252D01*
X56722334Y23353127D02*
X56732217Y23309827D01*
X59116917Y26149898D02*
X59089226Y26115175D01*
X59396232Y25307252D02*
X59066631Y24977650D01*
X56732217Y23309827D02*
X56732217Y23265414D01*
X59089226Y26115175D02*
X59069956Y26075160D01*
X59066631Y24977650D02*
X59031908Y24949959D01*
X56732217Y23265414D02*
X56722334Y23222115D01*
X59069956Y26075160D02*
X59060073Y26031860D01*
X59031908Y24949959D02*
X58991892Y24930688D01*
X56722334Y23222115D02*
X56703064Y23182100D01*
X59060073Y26031860D02*
X59060073Y25987447D01*
X58991892Y24930688D02*
X58948593Y24920806D01*
X56703064Y23182100D02*
X56675373Y23147376D01*
X59060073Y25987447D02*
X59069956Y25944147D01*
X58948593Y24920806D02*
X58904179Y24920805D01*
X56675373Y23147376D02*
X52705002Y19177002D01*
X59069956Y25944147D02*
X59089226Y25904132D01*
X58904179Y24920805D02*
X58860880Y24930689D01*
X59089226Y25904132D02*
X59116917Y25869409D01*
X59761734Y26451809D02*
X59692286Y26507192D01*
X58299899Y25305102D02*
X58259884Y25285831D01*
X59972776Y26451809D02*
X59932761Y26432539D01*
X58259884Y25285831D02*
X58225160Y25258140D01*
X59801749Y26432539D02*
X59761734Y26451809D01*
X58225160Y25258140D02*
X57895557Y24928538D01*
X59845048Y26422656D02*
X59801749Y26432539D01*
X57895557Y24928538D02*
X57867866Y24893815D01*
X60007500Y26479500D02*
X59972776Y26451809D01*
X57867866Y24893815D02*
X57848596Y24853800D01*
X59889461Y26422656D02*
X59845048Y26422656D01*
X57848596Y24853800D02*
X57838713Y24810500D01*
X59932761Y26432539D02*
X59889461Y26422656D01*
X57838713Y24810500D02*
X57838713Y24766087D01*
X60579000Y27051000D02*
X60007500Y26479500D01*
X57838713Y24766087D02*
X57848596Y24722787D01*
X57848596Y24722787D02*
X57867866Y24682772D01*
X57867866Y24682772D02*
X57895557Y24648049D01*
X57895557Y24648049D02*
X58176048Y24367558D01*
X58176048Y24367558D02*
X58203740Y24332835D01*
X58203740Y24332835D02*
X58223011Y24292820D01*
X58223011Y24292820D02*
X58232892Y24249520D01*
X58232892Y24249520D02*
X58232892Y24205106D01*
X58232892Y24205106D02*
X58223011Y24161808D01*
X58223011Y24161808D02*
X58203740Y24121793D01*
X58203740Y24121793D02*
X58176048Y24087068D01*
X58176048Y24087068D02*
X57846447Y23757466D01*
X57846447Y23757466D02*
X57811724Y23729775D01*
X57811724Y23729775D02*
X57771708Y23710504D01*
X57771708Y23710504D02*
X57728409Y23700622D01*
X57079715Y24084918D02*
X57039700Y24065647D01*
X57039700Y24065647D02*
X57004976Y24037956D01*
X57004976Y24037956D02*
X56675373Y23708354D01*
X59257161Y25729165D02*
X59255987Y25727987D01*
X56675373Y23708354D02*
X56647682Y23673631D01*
X59255987Y25727987D02*
X59396232Y25587742D01*
X56647682Y23673631D02*
X56628412Y23633616D01*
X59396232Y25587742D02*
X59423924Y25553019D01*
X56628412Y23633616D02*
X56618529Y23590316D01*
X51371500Y20320000D02*
X43307002Y20320000D01*
X52525738Y21474238D02*
X51371500Y20320000D01*
X53252375Y22200877D02*
X52525738Y21474238D01*
X53292277Y22250913D02*
X53252375Y22200877D01*
X53320045Y22308575D02*
X53292277Y22250913D01*
X53334287Y22370969D02*
X53320045Y22308575D01*
X53334287Y22434968D02*
X53334287Y22370969D01*
X53320045Y22497363D02*
X53334287Y22434968D01*
X53292277Y22555024D02*
X53320045Y22497363D01*
X53212472Y22655097D02*
X53292277Y22555024D01*
X53184704Y22712758D02*
X53212472Y22655097D01*
X53170463Y22775152D02*
X53184704Y22712758D01*
X53170463Y22839151D02*
X53170463Y22775152D01*
X53184704Y22901546D02*
X53170463Y22839151D01*
X53212472Y22959207D02*
X53184704Y22901546D01*
X53252375Y23009244D02*
X53212472Y22959207D01*
X53422928Y23179796D02*
X53252375Y23009244D01*
X53472965Y23219699D02*
X53422928Y23179796D01*
X53530626Y23247467D02*
X53472965Y23219699D01*
X53593020Y23261708D02*
X53530626Y23247467D01*
X53657019Y23261708D02*
X53593020Y23261708D01*
X53719414Y23247467D02*
X53657019Y23261708D01*
X53777075Y23219699D02*
X53719414Y23247467D01*
X53827112Y23179796D02*
X53777075Y23219699D01*
X54231296Y22775611D02*
X53827112Y23179796D01*
X54281333Y22735708D02*
X54231296Y22775611D01*
X54338993Y22707939D02*
X54281333Y22735708D01*
X54401388Y22693699D02*
X54338993Y22707939D01*
X54465386Y22693698D02*
X54401388Y22693699D01*
X54527781Y22707939D02*
X54465386Y22693698D01*
X54585443Y22735708D02*
X54527781Y22707939D01*
X54635480Y22775611D02*
X54585443Y22735708D01*
X54806031Y22946163D02*
X54635480Y22775611D01*
X55955961Y25560650D02*
X55891962Y25560650D01*
X54845934Y22996200D02*
X54806031Y22946163D01*
X56018356Y25546409D02*
X55955961Y25560650D01*
X54873703Y23053862D02*
X54845934Y22996200D01*
X56076017Y25518641D02*
X56018356Y25546409D01*
X54887943Y23116255D02*
X54873703Y23053862D01*
X56126054Y25478738D02*
X56076017Y25518641D01*
X54887944Y23180255D02*
X54887943Y23116255D01*
X56530238Y25074553D02*
X56126054Y25478738D01*
X54873703Y23242650D02*
X54887944Y23180255D01*
X56580275Y25034650D02*
X56530238Y25074553D01*
X54845934Y23300310D02*
X54873703Y23242650D01*
X56637935Y25006881D02*
X56580275Y25034650D01*
X54806031Y23350347D02*
X54845934Y23300310D01*
X56700330Y24992641D02*
X56637935Y25006881D01*
X54401846Y23754531D02*
X54806031Y23350347D01*
X56764328Y24992640D02*
X56700330Y24992641D01*
X54361943Y23804568D02*
X54401846Y23754531D01*
X56826723Y25006881D02*
X56764328Y24992640D01*
X54334175Y23862229D02*
X54361943Y23804568D01*
X56884385Y25034650D02*
X56826723Y25006881D01*
X54319934Y23924623D02*
X54334175Y23862229D01*
X56934422Y25074553D02*
X56884385Y25034650D01*
X54319934Y23988622D02*
X54319934Y23924623D01*
X57104973Y25245105D02*
X56934422Y25074553D01*
X54334175Y24051017D02*
X54319934Y23988622D01*
X57144876Y25295142D02*
X57104973Y25245105D01*
X54361943Y24108678D02*
X54334175Y24051017D01*
X57172645Y25352804D02*
X57144876Y25295142D01*
X54401846Y24158715D02*
X54361943Y24108678D01*
X57186885Y25415197D02*
X57172645Y25352804D01*
X54572399Y24329267D02*
X54401846Y24158715D01*
X57186886Y25479197D02*
X57186885Y25415197D01*
X54622436Y24369170D02*
X54572399Y24329267D01*
X57172645Y25541592D02*
X57186886Y25479197D01*
X54680097Y24396938D02*
X54622436Y24369170D01*
X57144876Y25599252D02*
X57172645Y25541592D01*
X54742491Y24411179D02*
X54680097Y24396938D01*
X57104973Y25649289D02*
X57144876Y25599252D01*
X54806490Y24411179D02*
X54742491Y24411179D01*
X56902881Y25851381D02*
X57104973Y25649289D01*
X54868885Y24396938D02*
X54806490Y24411179D01*
X56912920Y25861423D02*
X56902881Y25851381D01*
X55511414Y24954039D02*
X55551317Y24904002D01*
X54926546Y24369170D02*
X54868885Y24396938D01*
X56710829Y26063514D02*
X56912920Y25861423D01*
X54976583Y24329267D02*
X54926546Y24369170D01*
X57235529Y26678153D02*
X57177868Y26705921D01*
X56023174Y24392121D02*
X56037415Y24329726D01*
X57335602Y26598348D02*
X57235529Y26678153D01*
X55995405Y24449781D02*
X56023174Y24392121D01*
X57393264Y26570580D02*
X57335602Y26598348D01*
X55551317Y24904002D02*
X55955502Y24499818D01*
X57455658Y26556338D02*
X57393264Y26570580D01*
X57519657Y26556338D02*
X57455658Y26556338D01*
X58039000Y26987500D02*
X57689750Y26638250D01*
X58039000Y27940000D02*
X58039000Y26987500D01*
X57177868Y26705921D02*
X57115473Y26720163D01*
X56037415Y24329726D02*
X56037414Y24265726D01*
X55891962Y25560650D02*
X55829568Y25546409D01*
X57689750Y26638250D02*
X57639713Y26598348D01*
X56670926Y26113551D02*
X56710829Y26063514D01*
X55469405Y25138093D02*
X55469405Y25074094D01*
X55380767Y23925082D02*
X54976583Y24329267D01*
X57582052Y26570580D02*
X57519657Y26556338D01*
X57639713Y26598348D02*
X57582052Y26570580D01*
X57115473Y26720163D02*
X57051474Y26720163D01*
X56037414Y24265726D02*
X56023174Y24203333D01*
X56023174Y24203333D02*
X55995405Y24145671D01*
X56989080Y26705921D02*
X56931418Y26678153D01*
X55995405Y24145671D02*
X55955502Y24095634D01*
X56931418Y26678153D02*
X56881382Y26638250D01*
X55955502Y24095634D02*
X55784951Y23925082D01*
X56881382Y26638250D02*
X56710829Y26467698D01*
X55784951Y23925082D02*
X55734914Y23885179D01*
X56710829Y26467698D02*
X56670926Y26417661D01*
X55734914Y23885179D02*
X55677252Y23857410D01*
X56670926Y26417661D02*
X56643158Y26360000D01*
X55677252Y23857410D02*
X55614857Y23843169D01*
X56643158Y26360000D02*
X56628917Y26297605D01*
X55469405Y25074094D02*
X55483646Y25011700D01*
X55614857Y23843169D02*
X55550859Y23843170D01*
X56628917Y26297605D02*
X56628917Y26233606D01*
X55483646Y25011700D02*
X55511414Y24954039D01*
X55550859Y23843170D02*
X55488464Y23857410D01*
X56628917Y26233606D02*
X56643158Y26171212D01*
X55488464Y23857410D02*
X55430804Y23885179D01*
X56643158Y26171212D02*
X56670926Y26113551D01*
X55430804Y23885179D02*
X55380767Y23925082D01*
X55829568Y25546409D02*
X55771907Y25518641D01*
X55771907Y25518641D02*
X55721870Y25478738D01*
X55721870Y25478738D02*
X55551317Y25308186D01*
X55551317Y25308186D02*
X55511414Y25258149D01*
X55511414Y25258149D02*
X55483646Y25200488D01*
X55483646Y25200488D02*
X55469405Y25138093D01*
X57051474Y26720163D02*
X56989080Y26705921D01*
X55955502Y24499818D02*
X55995405Y24449781D01*
X47883658Y23047176D02*
X47833167Y22996685D01*
X47944118Y23085165D02*
X47883658Y23047176D01*
X48011515Y23108749D02*
X47944118Y23085165D01*
X48082471Y23116743D02*
X48011515Y23108749D01*
X48257529Y23116743D02*
X48082471Y23116743D01*
X48328484Y23108749D02*
X48257529Y23116743D01*
X48395881Y23085165D02*
X48328484Y23108749D01*
X48456341Y23047176D02*
X48395881Y23085165D01*
X48506832Y22996685D02*
X48456341Y23047176D01*
X48544821Y22936225D02*
X48506832Y22996685D01*
X48568405Y22868828D02*
X48544821Y22936225D01*
X48576400Y22797872D02*
X48568405Y22868828D01*
X48576400Y22160128D02*
X48576400Y22797872D01*
X48584394Y22089172D02*
X48576400Y22160128D01*
X48607978Y22021775D02*
X48584394Y22089172D01*
X48645967Y21961315D02*
X48607978Y22021775D01*
X48696458Y21910824D02*
X48645967Y21961315D01*
X48756918Y21872835D02*
X48696458Y21910824D01*
X48824315Y21849251D02*
X48756918Y21872835D01*
X48895271Y21841257D02*
X48824315Y21849251D01*
X49070329Y21841257D02*
X48895271Y21841257D01*
X49141284Y21849251D02*
X49070329Y21841257D01*
X49208681Y21872835D02*
X49141284Y21849251D01*
X49269141Y21910824D02*
X49208681Y21872835D01*
X49319632Y21961315D02*
X49269141Y21910824D01*
X49357621Y22021775D02*
X49319632Y21961315D01*
X49381205Y22089172D02*
X49357621Y22021775D01*
X49389200Y22160128D02*
X49381205Y22089172D01*
X49389200Y22479000D02*
X49389200Y22160128D01*
X49395329Y22479000D02*
X49389200Y22479000D01*
X49395329Y22797871D02*
X49395329Y22479000D01*
X49403323Y22868828D02*
X49395329Y22797871D01*
X49426907Y22936225D02*
X49403323Y22868828D01*
X49464896Y22996685D02*
X49426907Y22936225D01*
X49515387Y23047176D02*
X49464896Y22996685D01*
X49575847Y23085165D02*
X49515387Y23047176D01*
X49643244Y23108749D02*
X49575847Y23085165D01*
X49714200Y23116743D02*
X49643244Y23108749D01*
X49889258Y23116743D02*
X49714200Y23116743D01*
X49960213Y23108749D02*
X49889258Y23116743D01*
X50027610Y23085165D02*
X49960213Y23108749D01*
X50088070Y23047176D02*
X50027610Y23085165D01*
X50138561Y22996685D02*
X50088070Y23047176D01*
X50176550Y22936225D02*
X50138561Y22996685D01*
X50200134Y22868828D02*
X50176550Y22936225D01*
X50216123Y22726916D02*
X50200134Y22868828D01*
X50239707Y22659519D02*
X50216123Y22726916D01*
X50277696Y22599059D02*
X50239707Y22659519D01*
X50328187Y22548568D02*
X50277696Y22599059D01*
X50388647Y22510579D02*
X50328187Y22548568D01*
X50456044Y22486995D02*
X50388647Y22510579D01*
X50527000Y22479000D02*
X50456044Y22486995D01*
X53061564Y25417086D02*
X52991950Y25401197D01*
X53132968Y25417086D02*
X53061564Y25417086D01*
X53202583Y25401197D02*
X53132968Y25417086D01*
X53266916Y25370216D02*
X53202583Y25401197D01*
X53322742Y25325696D02*
X53266916Y25370216D01*
X53773696Y24874741D02*
X53322742Y25325696D01*
X53829522Y24830221D02*
X53773696Y24874741D01*
X53893855Y24799239D02*
X53829522Y24830221D01*
X53963470Y24783351D02*
X53893855Y24799239D01*
X54034874Y24783351D02*
X53963470Y24783351D01*
X54104487Y24799239D02*
X54034874Y24783351D01*
X54168822Y24830221D02*
X54104487Y24799239D01*
X54224648Y24874741D02*
X54168822Y24830221D01*
X54348431Y24998525D02*
X54224648Y24874741D01*
X54392951Y25054351D02*
X54348431Y24998525D01*
X54423933Y25118686D02*
X54392951Y25054351D01*
X54439821Y25188299D02*
X54423933Y25118686D01*
X54423932Y25329318D02*
X54439821Y25259703D01*
X54392951Y25393651D02*
X54423932Y25329318D01*
X54348431Y25449477D02*
X54392951Y25393651D01*
X54122954Y25674954D02*
X54348431Y25449477D01*
X54127286Y25679289D02*
X54122954Y25674954D01*
X53901810Y25904765D02*
X54127286Y25679289D01*
X54666321Y26388110D02*
X54596707Y26403999D01*
X54356387Y26555002D02*
X54286773Y26570891D01*
X45890084Y22486995D02*
X45819129Y22479000D01*
X51689924Y23340311D02*
X51674035Y23270697D01*
X54737726Y26388110D02*
X54666321Y26388110D01*
X54532374Y26434981D02*
X54420721Y26524021D01*
X54596707Y26403999D02*
X54532374Y26434981D01*
X54420721Y26524021D02*
X54356387Y26555002D01*
X54439821Y25259703D02*
X54439821Y25188299D01*
X47444729Y21841257D02*
X47269671Y21841257D01*
X53274462Y23969215D02*
X53243480Y23904880D01*
X54081421Y26524021D02*
X54025595Y26479501D01*
X54807340Y26403999D02*
X54737726Y26388110D01*
X45819129Y22479000D02*
X43307000Y22479000D01*
X51674035Y23270697D02*
X51643054Y23206363D01*
X54286773Y26570891D02*
X54215369Y26570891D01*
X51643054Y23206363D02*
X51598534Y23150537D01*
X54215369Y26570891D02*
X54145755Y26555002D01*
X54145755Y26555002D02*
X54081421Y26524021D01*
X54025595Y26479501D02*
X53901810Y26355717D01*
X53901810Y26355717D02*
X53857290Y26299891D01*
X53857290Y26299891D02*
X53826309Y26235557D01*
X53826309Y26235557D02*
X53810420Y26165943D01*
X53810420Y26165943D02*
X53810420Y26094539D01*
X53810420Y26094539D02*
X53826309Y26024925D01*
X53826309Y26024925D02*
X53857290Y25960591D01*
X53857290Y25960591D02*
X53901810Y25904765D01*
X52991950Y25401197D02*
X52927616Y25370216D01*
X52927616Y25370216D02*
X52871790Y25325696D01*
X52871790Y25325696D02*
X52748005Y25201912D01*
X52748005Y25201912D02*
X52703485Y25146086D01*
X52703485Y25146086D02*
X52672504Y25081752D01*
X47833167Y22996685D02*
X47795178Y22936225D01*
X52672504Y25081752D02*
X52656615Y25012138D01*
X47795178Y22936225D02*
X47771594Y22868828D01*
X52656615Y25012138D02*
X52656615Y24940734D01*
X47771594Y22868828D02*
X47763600Y22797872D01*
X52656615Y24940734D02*
X52672504Y24871120D01*
X47763600Y22797872D02*
X47763600Y22160128D01*
X52672504Y24871120D02*
X52703485Y24806786D01*
X47763600Y22160128D02*
X47755605Y22089172D01*
X52703485Y24806786D02*
X52748005Y24750960D01*
X47755605Y22089172D02*
X47732021Y22021775D01*
X52748005Y24750960D02*
X53198960Y24300006D01*
X47732021Y22021775D02*
X47694032Y21961315D01*
X53198960Y24300006D02*
X53243480Y24244180D01*
X47694032Y21961315D02*
X47643541Y21910824D01*
X53243480Y24244180D02*
X53274461Y24179847D01*
X47643541Y21910824D02*
X47583081Y21872835D01*
X53274461Y24179847D02*
X53290350Y24110232D01*
X47583081Y21872835D02*
X47515684Y21849251D01*
X53290350Y24110232D02*
X53290350Y24038828D01*
X47515684Y21849251D02*
X47444729Y21841257D01*
X53290350Y24038828D02*
X53274462Y23969215D01*
X47269671Y21841257D02*
X47198715Y21849251D01*
X53243480Y23904880D02*
X53198960Y23849054D01*
X47198715Y21849251D02*
X47131318Y21872835D01*
X53198960Y23849054D02*
X53075177Y23725270D01*
X47131318Y21872835D02*
X47070858Y21910824D01*
X53075177Y23725270D02*
X53019351Y23680750D01*
X47070858Y21910824D02*
X47020367Y21961315D01*
X53019351Y23680750D02*
X52955016Y23649768D01*
X47020367Y21961315D02*
X46982378Y22021775D01*
X52955016Y23649768D02*
X52885403Y23633880D01*
X46982378Y22021775D02*
X46958794Y22089172D01*
X52885403Y23633880D02*
X52813999Y23633880D01*
X46958794Y22089172D02*
X46950800Y22160128D01*
X52813999Y23633880D02*
X52744384Y23649768D01*
X46950800Y22160128D02*
X46950800Y22797872D01*
X52744384Y23649768D02*
X52680051Y23680750D01*
X46950800Y22797872D02*
X46942805Y22868828D01*
X52680051Y23680750D02*
X52624225Y23725270D01*
X46942805Y22868828D02*
X46919221Y22936225D01*
X52624225Y23725270D02*
X52173271Y24176225D01*
X46919221Y22936225D02*
X46881232Y22996685D01*
X52173271Y24176225D02*
X52117445Y24220745D01*
X46881232Y22996685D02*
X46830741Y23047176D01*
X52117445Y24220745D02*
X52053112Y24251726D01*
X46830741Y23047176D02*
X46770281Y23085165D01*
X52053112Y24251726D02*
X51983497Y24267615D01*
X46770281Y23085165D02*
X46702884Y23108749D01*
X51983497Y24267615D02*
X51912093Y24267615D01*
X46702884Y23108749D02*
X46631929Y23116743D01*
X51912093Y24267615D02*
X51842479Y24251726D01*
X46631929Y23116743D02*
X46456871Y23116743D01*
X51842479Y24251726D02*
X51778145Y24220745D01*
X46456871Y23116743D02*
X46385915Y23108749D01*
X51778145Y24220745D02*
X51722319Y24176225D01*
X46385915Y23108749D02*
X46318518Y23085165D01*
X51722319Y24176225D02*
X51598534Y24052441D01*
X46318518Y23085165D02*
X46258058Y23047176D01*
X51598534Y24052441D02*
X51554014Y23996615D01*
X46258058Y23047176D02*
X46207567Y22996685D01*
X54927500Y26479500D02*
X54871673Y26434981D01*
X51554014Y23996615D02*
X51523033Y23932281D01*
X46207567Y22996685D02*
X46169578Y22936225D01*
X55499000Y27051000D02*
X54927500Y26479500D01*
X51523033Y23932281D02*
X51507144Y23862667D01*
X46169578Y22936225D02*
X46145994Y22868828D01*
X55499000Y27940000D02*
X55499000Y27051000D01*
X51507144Y23862667D02*
X51507144Y23791263D01*
X46145994Y22868828D02*
X46130005Y22726916D01*
X54871673Y26434981D02*
X54807340Y26403999D01*
X51507144Y23791263D02*
X51523033Y23721649D01*
X46130005Y22726916D02*
X46106421Y22659519D01*
X51523033Y23721649D02*
X51554014Y23657315D01*
X46106421Y22659519D02*
X46068432Y22599059D01*
X51554014Y23657315D02*
X51643054Y23545663D01*
X46068432Y22599059D02*
X46017941Y22548568D01*
X51643054Y23545663D02*
X51674035Y23481329D01*
X46017941Y22548568D02*
X45957481Y22510579D01*
X51674035Y23481329D02*
X51689924Y23411715D01*
X45957481Y22510579D02*
X45890084Y22486995D01*
X51689924Y23411715D02*
X51689924Y23340311D01*
X51598534Y23150537D02*
X50927000Y22479000D01*
X50927000Y22479000D02*
X50527000Y22479000D01*
X46059000Y24215000D02*
X45796200Y24215000D01*
X46120193Y24221894D02*
X46059000Y24215000D01*
X46178318Y24242233D02*
X46120193Y24221894D01*
X46230459Y24274996D02*
X46178318Y24242233D01*
X46274003Y24318540D02*
X46230459Y24274996D01*
X46306766Y24370681D02*
X46274003Y24318540D01*
X46327105Y24428806D02*
X46306766Y24370681D01*
X46334000Y24490000D02*
X46327105Y24428806D01*
X46334000Y25040000D02*
X46334000Y24490000D01*
X46340894Y25101194D02*
X46334000Y25040000D01*
X46361233Y25159319D02*
X46340894Y25101194D01*
X46393996Y25211460D02*
X46361233Y25159319D01*
X46437540Y25255004D02*
X46393996Y25211460D01*
X46489681Y25287767D02*
X46437540Y25255004D01*
X46547806Y25308106D02*
X46489681Y25287767D01*
X46609000Y25315000D02*
X46547806Y25308106D01*
X46871800Y25315000D02*
X46609000Y25315000D01*
X46932993Y25308106D02*
X46871800Y25315000D01*
X46991118Y25287767D02*
X46932993Y25308106D01*
X47043259Y25255004D02*
X46991118Y25287767D01*
X47086803Y25211460D02*
X47043259Y25255004D01*
X47119566Y25159319D02*
X47086803Y25211460D01*
X47139905Y25101194D02*
X47119566Y25159319D01*
X47146800Y25040000D02*
X47139905Y25101194D01*
X47146800Y24490000D02*
X47146800Y25040000D01*
X47153694Y24428806D02*
X47146800Y24490000D01*
X47174033Y24370681D02*
X47153694Y24428806D01*
X47206796Y24318540D02*
X47174033Y24370681D01*
X47250340Y24274996D02*
X47206796Y24318540D01*
X47302481Y24242233D02*
X47250340Y24274996D01*
X47360606Y24221894D02*
X47302481Y24242233D01*
X47421800Y24215000D02*
X47360606Y24221894D01*
X47684600Y24215000D02*
X47421800Y24215000D01*
X47745793Y24221894D02*
X47684600Y24215000D01*
X47803918Y24242233D02*
X47745793Y24221894D01*
X47856059Y24274996D02*
X47803918Y24242233D01*
X47899603Y24318540D02*
X47856059Y24274996D01*
X47932366Y24370681D02*
X47899603Y24318540D01*
X47952705Y24428806D02*
X47932366Y24370681D01*
X47959600Y24490000D02*
X47952705Y24428806D01*
X47959600Y25040000D02*
X47959600Y24490000D01*
X47966494Y25101194D02*
X47959600Y25040000D01*
X47986833Y25159319D02*
X47966494Y25101194D01*
X48019596Y25211460D02*
X47986833Y25159319D01*
X48063140Y25255004D02*
X48019596Y25211460D01*
X48115281Y25287767D02*
X48063140Y25255004D01*
X48173406Y25308106D02*
X48115281Y25287767D01*
X48234600Y25315000D02*
X48173406Y25308106D01*
X48497400Y25315000D02*
X48234600Y25315000D01*
X49592094Y25101194D02*
X49585200Y25040000D01*
X49612433Y25159319D02*
X49592094Y25101194D01*
X49645196Y25211460D02*
X49612433Y25159319D01*
X49688740Y25255004D02*
X49645196Y25211460D01*
X49740881Y25287767D02*
X49688740Y25255004D01*
X49799006Y25308106D02*
X49740881Y25287767D01*
X49860200Y25315000D02*
X49799006Y25308106D01*
X50123000Y25315000D02*
X49860200Y25315000D01*
X50184193Y25308106D02*
X50123000Y25315000D01*
X50242318Y25287767D02*
X50184193Y25308106D01*
X50294459Y25255004D02*
X50242318Y25287767D01*
X50338003Y25211460D02*
X50294459Y25255004D01*
X50553681Y24792234D02*
X50501540Y24824997D01*
X50611806Y24771895D02*
X50553681Y24792234D01*
X50673000Y24765000D02*
X50611806Y24771895D01*
X52959000Y27940000D02*
X52959000Y27051000D01*
X52959000Y27051000D02*
X50673000Y24765000D01*
X50501540Y24824997D02*
X50457996Y24868541D01*
X50457996Y24868541D02*
X50425233Y24920682D01*
X50425233Y24920682D02*
X50404894Y24978807D01*
X50404894Y24978807D02*
X50391105Y25101194D01*
X50391105Y25101194D02*
X50370766Y25159319D01*
X50370766Y25159319D02*
X50338003Y25211460D01*
X49585200Y25040000D02*
X49585200Y24490000D01*
X45796200Y24215000D02*
X45735006Y24221894D01*
X49585200Y24490000D02*
X49578305Y24428806D01*
X48558593Y25308106D02*
X48497400Y25315000D01*
X49578305Y24428806D02*
X49557966Y24370681D01*
X49557966Y24370681D02*
X49525203Y24318540D01*
X49525203Y24318540D02*
X49481659Y24274996D01*
X49481659Y24274996D02*
X49429518Y24242233D01*
X49429518Y24242233D02*
X49371393Y24221894D01*
X49371393Y24221894D02*
X49310200Y24215000D01*
X49310200Y24215000D02*
X49047400Y24215000D01*
X49047400Y24215000D02*
X48986206Y24221894D01*
X48986206Y24221894D02*
X48928081Y24242233D01*
X48928081Y24242233D02*
X48875940Y24274996D01*
X48875940Y24274996D02*
X48832396Y24318540D01*
X48832396Y24318540D02*
X48799633Y24370681D01*
X48799633Y24370681D02*
X48779294Y24428806D01*
X48779294Y24428806D02*
X48772400Y24490000D01*
X48772400Y24490000D02*
X48772400Y25040000D01*
X48772400Y25040000D02*
X48765505Y25101194D01*
X48765505Y25101194D02*
X48745166Y25159319D01*
X48745166Y25159319D02*
X48712403Y25211460D01*
X48712403Y25211460D02*
X48668859Y25255004D01*
X48668859Y25255004D02*
X48616718Y25287767D01*
X48616718Y25287767D02*
X48558593Y25308106D01*
X45735006Y24221894D02*
X45676881Y24242233D01*
X45676881Y24242233D02*
X45624740Y24274996D01*
X45624740Y24274996D02*
X45581196Y24318540D01*
X45581196Y24318540D02*
X45548433Y24370681D01*
X45548433Y24370681D02*
X45528094Y24428806D01*
X45528094Y24428806D02*
X45521200Y24490000D01*
X45521200Y24490000D02*
X45521200Y25040000D01*
X45521200Y25040000D02*
X45514305Y25101194D01*
X45514305Y25101194D02*
X45493966Y25159319D01*
X45493966Y25159319D02*
X45461203Y25211460D01*
X45461203Y25211460D02*
X45417659Y25255004D01*
X45417659Y25255004D02*
X45365518Y25287767D01*
X45365518Y25287767D02*
X45307393Y25308106D01*
X45307393Y25308106D02*
X45246200Y25315000D01*
X45246200Y25315000D02*
X44983400Y25315000D01*
X44983400Y25315000D02*
X44922206Y25308106D01*
X44922206Y25308106D02*
X44864081Y25287767D01*
X44864081Y25287767D02*
X44811940Y25255004D01*
X44811940Y25255004D02*
X44768396Y25211460D01*
X44768396Y25211460D02*
X44735633Y25159319D01*
X44735633Y25159319D02*
X44715294Y25101194D01*
X44715294Y25101194D02*
X44701505Y24978807D01*
X44701505Y24978807D02*
X44681166Y24920682D01*
X44681166Y24920682D02*
X44648403Y24868541D01*
X44648403Y24868541D02*
X44604859Y24824997D01*
X44604859Y24824997D02*
X44552718Y24792234D01*
X44552718Y24792234D02*
X44494593Y24771895D01*
X44494593Y24771895D02*
X44433400Y24765000D01*
X44433400Y24765000D02*
X43307000Y24765000D01*
X47269400Y25908000D02*
X43307000Y25908000D01*
X47359832Y25918190D02*
X47269400Y25908000D01*
X47445730Y25948247D02*
X47359832Y25918190D01*
X47522786Y25996664D02*
X47445730Y25948247D01*
X47587136Y26061014D02*
X47522786Y25996664D01*
X47635553Y26138070D02*
X47587136Y26061014D01*
X47665610Y26223968D02*
X47635553Y26138070D01*
X47675800Y26314400D02*
X47665610Y26223968D01*
X47675800Y26501600D02*
X47675800Y26314400D01*
X47685989Y26592033D02*
X47675800Y26501600D01*
X47716046Y26677931D02*
X47685989Y26592033D01*
X48488600Y26314400D02*
X48488600Y26501600D01*
X48498789Y26223968D02*
X48488600Y26314400D01*
X48528846Y26138070D02*
X48498789Y26223968D01*
X48577263Y26061014D02*
X48528846Y26138070D01*
X48641613Y25996664D02*
X48577263Y26061014D01*
X48718669Y25948247D02*
X48641613Y25996664D01*
X50419000Y27051000D02*
X49276000Y25908000D01*
X47991767Y26897811D02*
X47905869Y26867754D01*
X50419000Y27940000D02*
X50419000Y27051000D01*
X49276000Y25908000D02*
X48895000Y25908000D01*
X48895000Y25908000D02*
X48804567Y25918190D01*
X48804567Y25918190D02*
X48718669Y25948247D01*
X48488600Y26501600D02*
X48478410Y26592033D01*
X48478410Y26592033D02*
X48448353Y26677931D01*
X48448353Y26677931D02*
X48399936Y26754987D01*
X48399936Y26754987D02*
X48335586Y26819337D01*
X48335586Y26819337D02*
X48258530Y26867754D01*
X48258530Y26867754D02*
X48172632Y26897811D01*
X48172632Y26897811D02*
X48082200Y26908000D01*
X48082200Y26908000D02*
X47991767Y26897811D01*
X47905869Y26867754D02*
X47828813Y26819337D01*
X47828813Y26819337D02*
X47764463Y26754987D01*
X47764463Y26754987D02*
X47716046Y26677931D01*
D23*
X44831000Y26670000D02*
X45339000Y27178000D01*
X42418000Y26670000D02*
X44831000Y26670000D01*
X45339000Y27178000D02*
X45339000Y27940000D01*
X24130000Y21717000D02*
X37465000Y21717000D01*
X37465000Y21717000D02*
X42418000Y26670000D01*
X61849000Y2540000D02*
X61849000Y17653000D01*
X61849000Y17653000D02*
X62230000Y18034000D01*
D24*
X72379000Y14240000D02*
X71628000Y14986000D01*
X71628000Y14986000D02*
X70612000Y16002000D01*
X71628000Y14986000D02*
X70612000Y14986000D01*
D23*
X67691000Y17145000D02*
X67691000Y13208000D01*
X63119000Y8636000D02*
X67691000Y13208000D01*
X63119000Y2540000D02*
X63119000Y8636000D01*
D22*
X37719000Y5842000D02*
X37719000Y2540000D01*
X16764000Y26797000D02*
X37719000Y5842000D01*
D25*
X29972000Y10668000D02*
X35945001Y4694997D01*
X35945001Y4694997D02*
X36195000Y4444998D01*
X2159000Y9779000D02*
X3048000Y10668000D01*
X3048000Y10668000D02*
X29972000Y10668000D01*
X30378500Y7620000D02*
X33909000Y4089500D01*
X3683000Y8763000D02*
X13031639Y8763000D01*
X2159000Y7239000D02*
X3683000Y8763000D01*
X13031639Y8763000D02*
X14174639Y7620000D01*
X14174639Y7620000D02*
X30378500Y7620000D01*
X29468001Y5075999D02*
X30099000Y4445000D01*
X15244001Y5075999D02*
X29468001Y5075999D01*
X12446000Y7874000D02*
X15244001Y5075999D01*
X5334000Y7874000D02*
X12446000Y7874000D01*
X2159000Y4699000D02*
X5334000Y7874000D01*
D23*
X15367000Y2286000D02*
X26035000Y2286000D01*
X7239000Y7239000D02*
X11557000Y7239000D01*
X4699000Y4699000D02*
X7239000Y7239000D01*
X13716000Y5080000D02*
X13716000Y3937000D01*
X11557000Y7239000D02*
X13716000Y5080000D01*
X26035000Y2286000D02*
X26289000Y2540000D01*
X13716000Y3937000D02*
X15367000Y2286000D01*
X70881800Y21090000D02*
X74179000Y21090000D01*
X70309000Y20517200D02*
X70881800Y21090000D01*
X70309000Y19560000D02*
X70309000Y20517200D01*
X74179000Y19870000D02*
X74489000Y19560000D01*
X74179000Y21090000D02*
X74179000Y19870000D01*
X70881800Y9390000D02*
X74179000Y9390000D01*
X70309000Y9962800D02*
X70881800Y9390000D01*
X70309000Y10920000D02*
X70309000Y9962800D01*
X74179000Y10610000D02*
X74489000Y10920000D01*
X74179000Y9390000D02*
X74179000Y10610000D01*
X74489000Y11877200D02*
X75565000Y12953200D01*
X74489000Y10920000D02*
X74489000Y11877200D01*
X74489000Y18602800D02*
X74489000Y19560000D01*
X75565000Y17526800D02*
X74489000Y18602800D01*
X75565000Y12953200D02*
X75565000Y17526800D01*
D26*
G36*
X70962315Y29592138D02*
G01*
X70483862Y29113685D01*
X70107943Y28551082D01*
X69849006Y27925952D01*
X69717000Y27262318D01*
X69717000Y26585682D01*
X69849006Y25922048D01*
X70107943Y25296918D01*
X70483862Y24734315D01*
X70962315Y24255862D01*
X71524918Y23879943D01*
X72150048Y23621006D01*
X72813682Y23489000D01*
X73490318Y23489000D01*
X74153952Y23621006D01*
X74779082Y23879943D01*
X75341685Y24255862D01*
X75820138Y24734315D01*
X76196057Y25296918D01*
X76202000Y25311266D01*
X76202000Y22055185D01*
X76040714Y22251714D01*
X75791752Y22456031D01*
X75507715Y22607852D01*
X75199516Y22701343D01*
X74959322Y22725000D01*
X73398678Y22725000D01*
X73158484Y22701343D01*
X72850285Y22607852D01*
X72566248Y22456031D01*
X72317286Y22251714D01*
X72112969Y22002752D01*
X72086697Y21953600D01*
X70924220Y21953600D01*
X70881800Y21957778D01*
X70741523Y21943962D01*
X70712505Y21941104D01*
X70549716Y21891722D01*
X70399688Y21811531D01*
X70268188Y21703612D01*
X70241140Y21670654D01*
X69728346Y21157859D01*
X69695389Y21130812D01*
X69612307Y21029576D01*
X69587469Y20999311D01*
X69507279Y20849284D01*
X69457896Y20686494D01*
X69454671Y20653754D01*
X69322553Y20613676D01*
X69125377Y20508284D01*
X68952551Y20366449D01*
X68810716Y20193623D01*
X68705324Y19996447D01*
X68640423Y19782499D01*
X68618509Y19560000D01*
X68640423Y19337501D01*
X68705324Y19123553D01*
X68810716Y18926377D01*
X68952551Y18753551D01*
X69125377Y18611716D01*
X69322553Y18506324D01*
X69536501Y18441423D01*
X69703248Y18425000D01*
X69922096Y18425000D01*
X69915892Y18410022D01*
X69879000Y18224552D01*
X69879000Y18035448D01*
X69915892Y17849978D01*
X69988259Y17675269D01*
X70093319Y17518036D01*
X70227036Y17384319D01*
X70384269Y17279259D01*
X70558978Y17206892D01*
X70744448Y17170000D01*
X70933552Y17170000D01*
X71119022Y17206892D01*
X71293731Y17279259D01*
X71450964Y17384319D01*
X71584681Y17518036D01*
X71597085Y17536600D01*
X71666827Y17490000D01*
X71464241Y17354637D01*
X71264363Y17154759D01*
X71107320Y16919727D01*
X71047526Y16775372D01*
X71031205Y16786277D01*
X70870145Y16852990D01*
X70699165Y16887000D01*
X70524835Y16887000D01*
X70353855Y16852990D01*
X70192795Y16786277D01*
X70047845Y16689424D01*
X69924576Y16566155D01*
X69827723Y16421205D01*
X69761010Y16260145D01*
X69727000Y16089165D01*
X69727000Y15914835D01*
X69761010Y15743855D01*
X69827723Y15582795D01*
X69887054Y15494000D01*
X69827723Y15405205D01*
X69761010Y15244145D01*
X69727000Y15073165D01*
X69727000Y14898835D01*
X69761010Y14727855D01*
X69827723Y14566795D01*
X69924576Y14421845D01*
X70047845Y14298576D01*
X70192795Y14201723D01*
X70353855Y14135010D01*
X70524835Y14101000D01*
X70699165Y14101000D01*
X70870145Y14135010D01*
X70944000Y14165602D01*
X70944000Y14098665D01*
X70999147Y13821426D01*
X71107320Y13560273D01*
X71264363Y13325241D01*
X71464241Y13125363D01*
X71664869Y12991308D01*
X71637486Y12976671D01*
X71618375Y12911537D01*
X71584681Y12961964D01*
X71450964Y13095681D01*
X71293731Y13200741D01*
X71119022Y13273108D01*
X70933552Y13310000D01*
X70744448Y13310000D01*
X70558978Y13273108D01*
X70384269Y13200741D01*
X70227036Y13095681D01*
X70093319Y12961964D01*
X69988259Y12804731D01*
X69915892Y12630022D01*
X69879000Y12444552D01*
X69879000Y12255448D01*
X69915892Y12069978D01*
X69922096Y12055000D01*
X69703248Y12055000D01*
X69536501Y12038577D01*
X69322553Y11973676D01*
X69125377Y11868284D01*
X68952551Y11726449D01*
X68810716Y11553623D01*
X68705324Y11356447D01*
X68640423Y11142499D01*
X68618509Y10920000D01*
X68640423Y10697501D01*
X68705324Y10483553D01*
X68810716Y10286377D01*
X68952551Y10113551D01*
X69125377Y9971716D01*
X69322553Y9866324D01*
X69454671Y9826246D01*
X69457896Y9793506D01*
X69507279Y9630716D01*
X69584041Y9487104D01*
X69587470Y9480688D01*
X69695389Y9349188D01*
X69728346Y9322141D01*
X70241140Y8809346D01*
X70268188Y8776388D01*
X70387563Y8678420D01*
X70399688Y8668469D01*
X70549716Y8588278D01*
X70712505Y8538896D01*
X70881800Y8522222D01*
X70924220Y8526400D01*
X72086697Y8526400D01*
X72112969Y8477248D01*
X72317286Y8228286D01*
X72566248Y8023969D01*
X72850285Y7872148D01*
X73158484Y7778657D01*
X73398678Y7755000D01*
X74959322Y7755000D01*
X75199516Y7778657D01*
X75507715Y7872148D01*
X75791752Y8023969D01*
X76040714Y8228286D01*
X76202001Y8424815D01*
X76202001Y5295732D01*
X76196057Y5310082D01*
X75820138Y5872685D01*
X75341685Y6351138D01*
X74779082Y6727057D01*
X74153952Y6985994D01*
X73490318Y7118000D01*
X72813682Y7118000D01*
X72150048Y6985994D01*
X71524918Y6727057D01*
X70962315Y6351138D01*
X70483862Y5872685D01*
X70107943Y5310082D01*
X69849006Y4684952D01*
X69717000Y4021318D01*
X69717000Y3344682D01*
X69849006Y2681048D01*
X70107943Y2055918D01*
X70483862Y1493315D01*
X70962315Y1014862D01*
X71493404Y660000D01*
X11564596Y660000D01*
X12095685Y1014862D01*
X12574138Y1493315D01*
X12950057Y2055918D01*
X13208994Y2681048D01*
X13298859Y3132828D01*
X14726345Y1705340D01*
X14753388Y1672388D01*
X14786338Y1645347D01*
X14884888Y1564469D01*
X15034916Y1484278D01*
X15197705Y1434896D01*
X15367000Y1418222D01*
X15409420Y1422400D01*
X25992580Y1422400D01*
X26035000Y1418222D01*
X26077420Y1422400D01*
X26085657Y1423211D01*
X26177212Y1405000D01*
X26400788Y1405000D01*
X26620067Y1448617D01*
X26826624Y1534176D01*
X26924000Y1599241D01*
X27021376Y1534176D01*
X27227933Y1448617D01*
X27447212Y1405000D01*
X27670788Y1405000D01*
X27890067Y1448617D01*
X28096624Y1534176D01*
X28194000Y1599241D01*
X28291376Y1534176D01*
X28497933Y1448617D01*
X28717212Y1405000D01*
X28940788Y1405000D01*
X29160067Y1448617D01*
X29366624Y1534176D01*
X29464000Y1599241D01*
X29561376Y1534176D01*
X29767933Y1448617D01*
X29987212Y1405000D01*
X30210788Y1405000D01*
X30430067Y1448617D01*
X30636624Y1534176D01*
X30734000Y1599241D01*
X30831376Y1534176D01*
X31037933Y1448617D01*
X31257212Y1405000D01*
X31480788Y1405000D01*
X31700067Y1448617D01*
X31906624Y1534176D01*
X32004000Y1599241D01*
X32101376Y1534176D01*
X32307933Y1448617D01*
X32527212Y1405000D01*
X32750788Y1405000D01*
X32970067Y1448617D01*
X33176624Y1534176D01*
X33274000Y1599241D01*
X33371376Y1534176D01*
X33577933Y1448617D01*
X33797212Y1405000D01*
X34020788Y1405000D01*
X34240067Y1448617D01*
X34446624Y1534176D01*
X34544000Y1599241D01*
X34641376Y1534176D01*
X34847933Y1448617D01*
X35067212Y1405000D01*
X35290788Y1405000D01*
X35510067Y1448617D01*
X35716624Y1534176D01*
X35814000Y1599241D01*
X35911376Y1534176D01*
X36117933Y1448617D01*
X36337212Y1405000D01*
X36560788Y1405000D01*
X36780067Y1448617D01*
X36986624Y1534176D01*
X37084000Y1599241D01*
X37181376Y1534176D01*
X37387933Y1448617D01*
X37607212Y1405000D01*
X37830788Y1405000D01*
X38050067Y1448617D01*
X38256624Y1534176D01*
X38354000Y1599241D01*
X38451376Y1534176D01*
X38657933Y1448617D01*
X38877212Y1405000D01*
X39100788Y1405000D01*
X39320067Y1448617D01*
X39526624Y1534176D01*
X39624000Y1599241D01*
X39721376Y1534176D01*
X39927933Y1448617D01*
X40147212Y1405000D01*
X40370788Y1405000D01*
X40590067Y1448617D01*
X40796624Y1534176D01*
X40894000Y1599241D01*
X40991376Y1534176D01*
X41197933Y1448617D01*
X41417212Y1405000D01*
X41640788Y1405000D01*
X41860067Y1448617D01*
X42066624Y1534176D01*
X42164000Y1599241D01*
X42261376Y1534176D01*
X42467933Y1448617D01*
X42687212Y1405000D01*
X42910788Y1405000D01*
X43130067Y1448617D01*
X43336624Y1534176D01*
X43434000Y1599241D01*
X43531376Y1534176D01*
X43737933Y1448617D01*
X43957212Y1405000D01*
X44180788Y1405000D01*
X44400067Y1448617D01*
X44606624Y1534176D01*
X44704000Y1599241D01*
X44801376Y1534176D01*
X45007933Y1448617D01*
X45227212Y1405000D01*
X45450788Y1405000D01*
X45670067Y1448617D01*
X45876624Y1534176D01*
X45974000Y1599241D01*
X46071376Y1534176D01*
X46277933Y1448617D01*
X46497212Y1405000D01*
X46720788Y1405000D01*
X46940067Y1448617D01*
X47146624Y1534176D01*
X47244000Y1599241D01*
X47341376Y1534176D01*
X47547933Y1448617D01*
X47767212Y1405000D01*
X47990788Y1405000D01*
X48210067Y1448617D01*
X48416624Y1534176D01*
X48514000Y1599241D01*
X48611376Y1534176D01*
X48817933Y1448617D01*
X49037212Y1405000D01*
X49260788Y1405000D01*
X49480067Y1448617D01*
X49686624Y1534176D01*
X49784000Y1599241D01*
X49881376Y1534176D01*
X50087933Y1448617D01*
X50307212Y1405000D01*
X50530788Y1405000D01*
X50750067Y1448617D01*
X50956624Y1534176D01*
X51054000Y1599241D01*
X51151376Y1534176D01*
X51357933Y1448617D01*
X51577212Y1405000D01*
X51800788Y1405000D01*
X52020067Y1448617D01*
X52226624Y1534176D01*
X52324000Y1599241D01*
X52421376Y1534176D01*
X52627933Y1448617D01*
X52847212Y1405000D01*
X53070788Y1405000D01*
X53290067Y1448617D01*
X53496624Y1534176D01*
X53594000Y1599241D01*
X53691376Y1534176D01*
X53897933Y1448617D01*
X54117212Y1405000D01*
X54340788Y1405000D01*
X54560067Y1448617D01*
X54766624Y1534176D01*
X54864000Y1599241D01*
X54961376Y1534176D01*
X55167933Y1448617D01*
X55387212Y1405000D01*
X55610788Y1405000D01*
X55830067Y1448617D01*
X56036624Y1534176D01*
X56134000Y1599241D01*
X56231376Y1534176D01*
X56437933Y1448617D01*
X56657212Y1405000D01*
X56880788Y1405000D01*
X57100067Y1448617D01*
X57306624Y1534176D01*
X57404000Y1599241D01*
X57501376Y1534176D01*
X57707933Y1448617D01*
X57927212Y1405000D01*
X58150788Y1405000D01*
X58370067Y1448617D01*
X58576624Y1534176D01*
X58674000Y1599241D01*
X58771376Y1534176D01*
X58977933Y1448617D01*
X59197212Y1405000D01*
X59420788Y1405000D01*
X59640067Y1448617D01*
X59846624Y1534176D01*
X59944000Y1599241D01*
X60041376Y1534176D01*
X60247933Y1448617D01*
X60467212Y1405000D01*
X60690788Y1405000D01*
X60910067Y1448617D01*
X61116624Y1534176D01*
X61270930Y1637280D01*
X61285550Y1548412D01*
X61489826Y1457542D01*
X61707905Y1408269D01*
X61931406Y1402489D01*
X62151740Y1440423D01*
X62360440Y1520613D01*
X62412450Y1548412D01*
X62427070Y1637280D01*
X62581376Y1534176D01*
X62787933Y1448617D01*
X63007212Y1405000D01*
X63230788Y1405000D01*
X63450067Y1448617D01*
X63656624Y1534176D01*
X63842520Y1658388D01*
X64000612Y1816480D01*
X64124824Y2002376D01*
X64210383Y2208933D01*
X64254000Y2428212D01*
X64254000Y2651788D01*
X64210383Y2871067D01*
X64124824Y3077624D01*
X64000612Y3263520D01*
X63982600Y3281532D01*
X63982600Y8278287D01*
X68163948Y12459633D01*
X68255155Y12520576D01*
X68378424Y12643845D01*
X68475277Y12788795D01*
X68541990Y12949855D01*
X68576000Y13120835D01*
X68576000Y13295165D01*
X68554600Y13402750D01*
X68554600Y16950250D01*
X68576000Y17057835D01*
X68576000Y17232165D01*
X68541990Y17403145D01*
X68475277Y17564205D01*
X68378424Y17709155D01*
X68255155Y17832424D01*
X68110205Y17929277D01*
X67949145Y17995990D01*
X67778165Y18030000D01*
X67603835Y18030000D01*
X67432855Y17995990D01*
X67271795Y17929277D01*
X67126845Y17832424D01*
X67003576Y17709155D01*
X66906723Y17564205D01*
X66840010Y17403145D01*
X66806000Y17232165D01*
X66806000Y17057835D01*
X66827400Y16950250D01*
X66827401Y13565716D01*
X62538346Y9276659D01*
X62505389Y9249612D01*
X62408619Y9131697D01*
X62397469Y9118111D01*
X62317279Y8968084D01*
X62267896Y8805294D01*
X62251222Y8636000D01*
X62255401Y8593570D01*
X62255400Y3601450D01*
X62208174Y3622458D01*
X61990095Y3671731D01*
X61766594Y3677511D01*
X61546260Y3639577D01*
X61337560Y3559387D01*
X61285550Y3531588D01*
X61270930Y3442720D01*
X61116624Y3545824D01*
X60910067Y3631383D01*
X60690788Y3675000D01*
X60467212Y3675000D01*
X60247933Y3631383D01*
X60041376Y3545824D01*
X59944000Y3480759D01*
X59846624Y3545824D01*
X59640067Y3631383D01*
X59420788Y3675000D01*
X59197212Y3675000D01*
X58977933Y3631383D01*
X58771376Y3545824D01*
X58674000Y3480759D01*
X58576624Y3545824D01*
X58370067Y3631383D01*
X58150788Y3675000D01*
X57927212Y3675000D01*
X57707933Y3631383D01*
X57501376Y3545824D01*
X57404000Y3480759D01*
X57306624Y3545824D01*
X57100067Y3631383D01*
X56880788Y3675000D01*
X56657212Y3675000D01*
X56437933Y3631383D01*
X56231376Y3545824D01*
X56134000Y3480759D01*
X56036624Y3545824D01*
X55830067Y3631383D01*
X55610788Y3675000D01*
X55387212Y3675000D01*
X55167933Y3631383D01*
X54961376Y3545824D01*
X54864000Y3480759D01*
X54766624Y3545824D01*
X54560067Y3631383D01*
X54340788Y3675000D01*
X54117212Y3675000D01*
X53897933Y3631383D01*
X53691376Y3545824D01*
X53594000Y3480759D01*
X53496624Y3545824D01*
X53290067Y3631383D01*
X53070788Y3675000D01*
X52847212Y3675000D01*
X52627933Y3631383D01*
X52421376Y3545824D01*
X52324000Y3480759D01*
X52226624Y3545824D01*
X52020067Y3631383D01*
X51800788Y3675000D01*
X51577212Y3675000D01*
X51357933Y3631383D01*
X51151376Y3545824D01*
X51054000Y3480759D01*
X50956624Y3545824D01*
X50750067Y3631383D01*
X50530788Y3675000D01*
X50307212Y3675000D01*
X50087933Y3631383D01*
X49881376Y3545824D01*
X49784000Y3480759D01*
X49686624Y3545824D01*
X49480067Y3631383D01*
X49260788Y3675000D01*
X49037212Y3675000D01*
X48817933Y3631383D01*
X48611376Y3545824D01*
X48514000Y3480759D01*
X48416624Y3545824D01*
X48210067Y3631383D01*
X47990788Y3675000D01*
X47767212Y3675000D01*
X47547933Y3631383D01*
X47341376Y3545824D01*
X47244000Y3480759D01*
X47146624Y3545824D01*
X46940067Y3631383D01*
X46720788Y3675000D01*
X46497212Y3675000D01*
X46277933Y3631383D01*
X46071376Y3545824D01*
X45974000Y3480759D01*
X45876624Y3545824D01*
X45670067Y3631383D01*
X45450788Y3675000D01*
X45227212Y3675000D01*
X45007933Y3631383D01*
X44801376Y3545824D01*
X44704000Y3480759D01*
X44606624Y3545824D01*
X44400067Y3631383D01*
X44180788Y3675000D01*
X43957212Y3675000D01*
X43737933Y3631383D01*
X43531376Y3545824D01*
X43434000Y3480759D01*
X43336624Y3545824D01*
X43130067Y3631383D01*
X42910788Y3675000D01*
X42687212Y3675000D01*
X42467933Y3631383D01*
X42261376Y3545824D01*
X42164000Y3480759D01*
X42066624Y3545824D01*
X41860067Y3631383D01*
X41640788Y3675000D01*
X41417212Y3675000D01*
X41197933Y3631383D01*
X40991376Y3545824D01*
X40894000Y3480759D01*
X40796624Y3545824D01*
X40590067Y3631383D01*
X40370788Y3675000D01*
X40147212Y3675000D01*
X39927933Y3631383D01*
X39721376Y3545824D01*
X39624000Y3480759D01*
X39526624Y3545824D01*
X39320067Y3631383D01*
X39100788Y3675000D01*
X38877212Y3675000D01*
X38657933Y3631383D01*
X38557200Y3589658D01*
X38557200Y5800841D01*
X38561254Y5842001D01*
X38557200Y5883161D01*
X38557200Y5883170D01*
X38545071Y6006316D01*
X38497142Y6164317D01*
X38419309Y6309932D01*
X38314564Y6437564D01*
X38282589Y6463805D01*
X23882501Y20863892D01*
X24042835Y20832000D01*
X24217165Y20832000D01*
X24324750Y20853400D01*
X37422580Y20853400D01*
X37465000Y20849222D01*
X37507420Y20853400D01*
X37634295Y20865896D01*
X37797084Y20915278D01*
X37947112Y20995469D01*
X38078612Y21103388D01*
X38105664Y21136351D01*
X42503798Y25534483D01*
X42522723Y25488795D01*
X42619576Y25343845D01*
X42626921Y25336500D01*
X42619576Y25329155D01*
X42522723Y25184205D01*
X42456010Y25023145D01*
X42422000Y24852165D01*
X42422000Y24677835D01*
X42456010Y24506855D01*
X42522723Y24345795D01*
X42619576Y24200845D01*
X42742845Y24077576D01*
X42887795Y23980723D01*
X43048855Y23914010D01*
X43219835Y23880000D01*
X43394165Y23880000D01*
X43565145Y23914010D01*
X43596023Y23926800D01*
X44356786Y23926800D01*
X44362611Y23925726D01*
X44439158Y23926800D01*
X44474570Y23926800D01*
X44480453Y23927379D01*
X44486340Y23927462D01*
X44521406Y23931413D01*
X44568751Y23936076D01*
X44612334Y23937911D01*
X44681126Y23954631D01*
X44750368Y23969417D01*
X44799174Y23990440D01*
X44800609Y23990942D01*
X44822990Y23942750D01*
X44854349Y23899842D01*
X44855838Y23897472D01*
X44880887Y23850609D01*
X44925813Y23795866D01*
X44969169Y23739909D01*
X45009281Y23705062D01*
X45011262Y23703081D01*
X45046109Y23662969D01*
X45102076Y23619605D01*
X45156809Y23574687D01*
X45203672Y23549638D01*
X45206042Y23548149D01*
X45248950Y23516790D01*
X45313153Y23486973D01*
X45376509Y23455360D01*
X45427777Y23441365D01*
X45430430Y23440437D01*
X45479245Y23419411D01*
X45482701Y23418673D01*
X45482206Y23417746D01*
X45475492Y23407061D01*
X45444138Y23364161D01*
X45422328Y23317200D01*
X43596023Y23317200D01*
X43565145Y23329990D01*
X43394165Y23364000D01*
X43219835Y23364000D01*
X43048855Y23329990D01*
X42887795Y23263277D01*
X42742845Y23166424D01*
X42619576Y23043155D01*
X42522723Y22898205D01*
X42456010Y22737145D01*
X42422000Y22566165D01*
X42422000Y22391835D01*
X42456010Y22220855D01*
X42522723Y22059795D01*
X42619576Y21914845D01*
X42742845Y21791576D01*
X42887795Y21694723D01*
X43048855Y21628010D01*
X43219835Y21594000D01*
X43394165Y21594000D01*
X43565145Y21628010D01*
X43596023Y21640800D01*
X45742516Y21640800D01*
X45748341Y21639726D01*
X45824887Y21640800D01*
X45860299Y21640800D01*
X45866182Y21641379D01*
X45872069Y21641462D01*
X45907136Y21645413D01*
X45966703Y21651280D01*
X46007831Y21653012D01*
X46076625Y21669733D01*
X46145860Y21684517D01*
X46194666Y21705540D01*
X46202120Y21708149D01*
X46227108Y21658068D01*
X46256938Y21593839D01*
X46288292Y21550939D01*
X46295006Y21540254D01*
X46320058Y21493384D01*
X46364976Y21438651D01*
X46408331Y21382693D01*
X46448446Y21347843D01*
X46457383Y21338906D01*
X46492236Y21298788D01*
X46548194Y21255433D01*
X46602927Y21210515D01*
X46649793Y21185465D01*
X46660483Y21178748D01*
X46688598Y21158200D01*
X43596025Y21158200D01*
X43565147Y21170990D01*
X43394167Y21205000D01*
X43219837Y21205000D01*
X43048857Y21170990D01*
X42887797Y21104277D01*
X42742847Y21007424D01*
X42619578Y20884155D01*
X42522725Y20739205D01*
X42456012Y20578145D01*
X42422002Y20407165D01*
X42422002Y20232835D01*
X42456012Y20061855D01*
X42522725Y19900795D01*
X42619578Y19755845D01*
X42626921Y19748502D01*
X42619576Y19741157D01*
X42522723Y19596207D01*
X42456010Y19435147D01*
X42422000Y19264167D01*
X42422000Y19089837D01*
X42456010Y18918857D01*
X42522723Y18757797D01*
X42582055Y18669001D01*
X42522723Y18580205D01*
X42456010Y18419145D01*
X42422000Y18248165D01*
X42422000Y18073835D01*
X42456010Y17902855D01*
X42522723Y17741795D01*
X42619576Y17596845D01*
X42742845Y17473576D01*
X42887795Y17376723D01*
X43048855Y17310010D01*
X43219835Y17276000D01*
X43394165Y17276000D01*
X43565145Y17310010D01*
X43596023Y17322800D01*
X54187837Y17322800D01*
X54229000Y17318746D01*
X54270163Y17322800D01*
X54270170Y17322800D01*
X54393316Y17334929D01*
X54551317Y17382858D01*
X54696932Y17460691D01*
X54824564Y17565436D01*
X54850811Y17597418D01*
X63682588Y26429194D01*
X63714564Y26455436D01*
X63743258Y26490399D01*
X63819309Y26583068D01*
X63897142Y26728683D01*
X63945071Y26886684D01*
X63945357Y26889585D01*
X63957200Y27009830D01*
X63957200Y27009837D01*
X63961254Y27051000D01*
X63957200Y27092163D01*
X63957200Y27173068D01*
X64000612Y27216480D01*
X64124824Y27402376D01*
X64210383Y27608933D01*
X64254000Y27828212D01*
X64254000Y28051788D01*
X64210383Y28271067D01*
X64124824Y28477624D01*
X64000612Y28663520D01*
X63842520Y28821612D01*
X63656624Y28945824D01*
X63450067Y29031383D01*
X63230788Y29075000D01*
X63007212Y29075000D01*
X62787933Y29031383D01*
X62581376Y28945824D01*
X62484000Y28880759D01*
X62386624Y28945824D01*
X62180067Y29031383D01*
X61960788Y29075000D01*
X61737212Y29075000D01*
X61517933Y29031383D01*
X61311376Y28945824D01*
X61214000Y28880759D01*
X61116624Y28945824D01*
X60910067Y29031383D01*
X60690788Y29075000D01*
X60467212Y29075000D01*
X60247933Y29031383D01*
X60041376Y28945824D01*
X59944000Y28880759D01*
X59846624Y28945824D01*
X59640067Y29031383D01*
X59420788Y29075000D01*
X59197212Y29075000D01*
X58977933Y29031383D01*
X58771376Y28945824D01*
X58674000Y28880759D01*
X58576624Y28945824D01*
X58370067Y29031383D01*
X58150788Y29075000D01*
X57927212Y29075000D01*
X57707933Y29031383D01*
X57501376Y28945824D01*
X57404000Y28880759D01*
X57306624Y28945824D01*
X57100067Y29031383D01*
X56880788Y29075000D01*
X56657212Y29075000D01*
X56437933Y29031383D01*
X56231376Y28945824D01*
X56134000Y28880759D01*
X56036624Y28945824D01*
X55830067Y29031383D01*
X55610788Y29075000D01*
X55387212Y29075000D01*
X55167933Y29031383D01*
X54961376Y28945824D01*
X54864000Y28880759D01*
X54766624Y28945824D01*
X54560067Y29031383D01*
X54340788Y29075000D01*
X54117212Y29075000D01*
X53897933Y29031383D01*
X53691376Y28945824D01*
X53594000Y28880759D01*
X53496624Y28945824D01*
X53290067Y29031383D01*
X53070788Y29075000D01*
X52847212Y29075000D01*
X52627933Y29031383D01*
X52421376Y28945824D01*
X52324000Y28880759D01*
X52226624Y28945824D01*
X52020067Y29031383D01*
X51800788Y29075000D01*
X51577212Y29075000D01*
X51357933Y29031383D01*
X51151376Y28945824D01*
X51054000Y28880759D01*
X50956624Y28945824D01*
X50750067Y29031383D01*
X50530788Y29075000D01*
X50307212Y29075000D01*
X50087933Y29031383D01*
X49881376Y28945824D01*
X49784000Y28880759D01*
X49686624Y28945824D01*
X49480067Y29031383D01*
X49260788Y29075000D01*
X49037212Y29075000D01*
X48817933Y29031383D01*
X48611376Y28945824D01*
X48514000Y28880759D01*
X48416624Y28945824D01*
X48210067Y29031383D01*
X47990788Y29075000D01*
X47767212Y29075000D01*
X47547933Y29031383D01*
X47341376Y28945824D01*
X47244000Y28880759D01*
X47146624Y28945824D01*
X46940067Y29031383D01*
X46720788Y29075000D01*
X46497212Y29075000D01*
X46277933Y29031383D01*
X46071376Y28945824D01*
X45974000Y28880759D01*
X45876624Y28945824D01*
X45670067Y29031383D01*
X45450788Y29075000D01*
X45227212Y29075000D01*
X45007933Y29031383D01*
X44801376Y28945824D01*
X44704000Y28880759D01*
X44606624Y28945824D01*
X44400067Y29031383D01*
X44180788Y29075000D01*
X43957212Y29075000D01*
X43737933Y29031383D01*
X43531376Y28945824D01*
X43377070Y28842720D01*
X43362450Y28931588D01*
X43158174Y29022458D01*
X42940095Y29071731D01*
X42716594Y29077511D01*
X42496260Y29039577D01*
X42287560Y28959387D01*
X42235550Y28931588D01*
X42220930Y28842720D01*
X42066624Y28945824D01*
X41860067Y29031383D01*
X41640788Y29075000D01*
X41417212Y29075000D01*
X41197933Y29031383D01*
X40991376Y28945824D01*
X40894000Y28880759D01*
X40796624Y28945824D01*
X40590067Y29031383D01*
X40370788Y29075000D01*
X40147212Y29075000D01*
X39927933Y29031383D01*
X39721376Y28945824D01*
X39624000Y28880759D01*
X39526624Y28945824D01*
X39320067Y29031383D01*
X39100788Y29075000D01*
X38877212Y29075000D01*
X38657933Y29031383D01*
X38451376Y28945824D01*
X38354000Y28880759D01*
X38256624Y28945824D01*
X38050067Y29031383D01*
X37830788Y29075000D01*
X37607212Y29075000D01*
X37387933Y29031383D01*
X37181376Y28945824D01*
X37084000Y28880759D01*
X36986624Y28945824D01*
X36780067Y29031383D01*
X36560788Y29075000D01*
X36337212Y29075000D01*
X36117933Y29031383D01*
X35911376Y28945824D01*
X35814000Y28880759D01*
X35716624Y28945824D01*
X35510067Y29031383D01*
X35290788Y29075000D01*
X35067212Y29075000D01*
X34847933Y29031383D01*
X34641376Y28945824D01*
X34544000Y28880759D01*
X34446624Y28945824D01*
X34240067Y29031383D01*
X34020788Y29075000D01*
X33797212Y29075000D01*
X33577933Y29031383D01*
X33371376Y28945824D01*
X33274000Y28880759D01*
X33176624Y28945824D01*
X32970067Y29031383D01*
X32750788Y29075000D01*
X32527212Y29075000D01*
X32307933Y29031383D01*
X32101376Y28945824D01*
X32004000Y28880759D01*
X31906624Y28945824D01*
X31700067Y29031383D01*
X31480788Y29075000D01*
X31257212Y29075000D01*
X31037933Y29031383D01*
X30831376Y28945824D01*
X30734000Y28880759D01*
X30636624Y28945824D01*
X30430067Y29031383D01*
X30210788Y29075000D01*
X29987212Y29075000D01*
X29767933Y29031383D01*
X29561376Y28945824D01*
X29464000Y28880759D01*
X29366624Y28945824D01*
X29160067Y29031383D01*
X28940788Y29075000D01*
X28717212Y29075000D01*
X28497933Y29031383D01*
X28291376Y28945824D01*
X28194000Y28880759D01*
X28096624Y28945824D01*
X27890067Y29031383D01*
X27670788Y29075000D01*
X27447212Y29075000D01*
X27227933Y29031383D01*
X27021376Y28945824D01*
X26924000Y28880759D01*
X26826624Y28945824D01*
X26620067Y29031383D01*
X26400788Y29075000D01*
X26177212Y29075000D01*
X25957933Y29031383D01*
X25751376Y28945824D01*
X25565480Y28821612D01*
X25407388Y28663520D01*
X25283176Y28477624D01*
X25197617Y28271067D01*
X25154000Y28051788D01*
X25154000Y27828212D01*
X25197617Y27608933D01*
X25283176Y27402376D01*
X25407388Y27216480D01*
X25565480Y27058388D01*
X25751376Y26934176D01*
X25957933Y26848617D01*
X26177212Y26805000D01*
X26400788Y26805000D01*
X26620067Y26848617D01*
X26826624Y26934176D01*
X26924000Y26999241D01*
X27021376Y26934176D01*
X27227933Y26848617D01*
X27447212Y26805000D01*
X27670788Y26805000D01*
X27890067Y26848617D01*
X28096624Y26934176D01*
X28194000Y26999241D01*
X28291376Y26934176D01*
X28497933Y26848617D01*
X28717212Y26805000D01*
X28940788Y26805000D01*
X29160067Y26848617D01*
X29366624Y26934176D01*
X29464000Y26999241D01*
X29561376Y26934176D01*
X29767933Y26848617D01*
X29987212Y26805000D01*
X30210788Y26805000D01*
X30430067Y26848617D01*
X30636624Y26934176D01*
X30734000Y26999241D01*
X30831376Y26934176D01*
X31037933Y26848617D01*
X31257212Y26805000D01*
X31480788Y26805000D01*
X31700067Y26848617D01*
X31906624Y26934176D01*
X32004000Y26999241D01*
X32101376Y26934176D01*
X32307933Y26848617D01*
X32527212Y26805000D01*
X32750788Y26805000D01*
X32970067Y26848617D01*
X33176624Y26934176D01*
X33274000Y26999241D01*
X33371376Y26934176D01*
X33577933Y26848617D01*
X33797212Y26805000D01*
X34020788Y26805000D01*
X34240067Y26848617D01*
X34446624Y26934176D01*
X34544000Y26999241D01*
X34641376Y26934176D01*
X34847933Y26848617D01*
X35067212Y26805000D01*
X35290788Y26805000D01*
X35510067Y26848617D01*
X35716624Y26934176D01*
X35814000Y26999241D01*
X35911376Y26934176D01*
X36117933Y26848617D01*
X36337212Y26805000D01*
X36560788Y26805000D01*
X36780067Y26848617D01*
X36986624Y26934176D01*
X37084000Y26999241D01*
X37181376Y26934176D01*
X37387933Y26848617D01*
X37607212Y26805000D01*
X37830788Y26805000D01*
X38050067Y26848617D01*
X38256624Y26934176D01*
X38354000Y26999241D01*
X38451376Y26934176D01*
X38657933Y26848617D01*
X38877212Y26805000D01*
X39100788Y26805000D01*
X39320067Y26848617D01*
X39526624Y26934176D01*
X39624000Y26999241D01*
X39721376Y26934176D01*
X39927933Y26848617D01*
X40147212Y26805000D01*
X40370788Y26805000D01*
X40590067Y26848617D01*
X40796624Y26934176D01*
X40894000Y26999241D01*
X40991376Y26934176D01*
X41197933Y26848617D01*
X41345875Y26819190D01*
X37107287Y22580600D01*
X24324750Y22580600D01*
X24217165Y22602000D01*
X24042835Y22602000D01*
X23871855Y22567990D01*
X23710795Y22501277D01*
X23565845Y22404424D01*
X23442576Y22281155D01*
X23345723Y22136205D01*
X23279010Y21975145D01*
X23245000Y21804165D01*
X23245000Y21629835D01*
X23276892Y21469501D01*
X17561068Y27185325D01*
X17548277Y27216205D01*
X17451424Y27361155D01*
X17328155Y27484424D01*
X17183205Y27581277D01*
X17022145Y27647990D01*
X16851165Y27682000D01*
X16676835Y27682000D01*
X16505855Y27647990D01*
X16344795Y27581277D01*
X16199845Y27484424D01*
X16076576Y27361155D01*
X15979723Y27216205D01*
X15913010Y27055145D01*
X15879000Y26884165D01*
X15879000Y26709835D01*
X15913010Y26538855D01*
X15979723Y26377795D01*
X16076576Y26232845D01*
X16199845Y26109576D01*
X16344795Y26012723D01*
X16375675Y25999932D01*
X36880800Y5494806D01*
X36880800Y5010777D01*
X36759155Y5132422D01*
X36614205Y5229275D01*
X36460685Y5292865D01*
X30556123Y11197428D01*
X30531469Y11227469D01*
X30411572Y11325866D01*
X30274783Y11398982D01*
X30126357Y11444006D01*
X30010673Y11455400D01*
X30010663Y11455400D01*
X29972000Y11459208D01*
X29933337Y11455400D01*
X3086663Y11455400D01*
X3048000Y11459208D01*
X3009337Y11455400D01*
X3009327Y11455400D01*
X2893643Y11444006D01*
X2755532Y11402111D01*
X2745217Y11398982D01*
X2608427Y11325866D01*
X2547465Y11275835D01*
X2538606Y11268564D01*
X2310184Y11314000D01*
X2007816Y11314000D01*
X1711257Y11255011D01*
X1431905Y11139299D01*
X1180495Y10971312D01*
X966688Y10757505D01*
X798701Y10506095D01*
X682989Y10226743D01*
X660000Y10111169D01*
X660000Y17474788D01*
X2709000Y17474788D01*
X2709000Y17251212D01*
X2752617Y17031933D01*
X2838176Y16825376D01*
X2962388Y16639480D01*
X3120480Y16481388D01*
X3306376Y16357176D01*
X3512933Y16271617D01*
X3732212Y16228000D01*
X3955788Y16228000D01*
X4175067Y16271617D01*
X4381624Y16357176D01*
X4567520Y16481388D01*
X4725612Y16639480D01*
X4849824Y16825376D01*
X4935383Y17031933D01*
X4979000Y17251212D01*
X4979000Y17474788D01*
X4935383Y17694067D01*
X4849824Y17900624D01*
X4725612Y18086520D01*
X4567520Y18244612D01*
X4381624Y18368824D01*
X4175067Y18454383D01*
X3955788Y18498000D01*
X3732212Y18498000D01*
X3512933Y18454383D01*
X3306376Y18368824D01*
X3120480Y18244612D01*
X2962388Y18086520D01*
X2838176Y17900624D01*
X2752617Y17694067D01*
X2709000Y17474788D01*
X660000Y17474788D01*
X660000Y25473788D01*
X2706000Y25473788D01*
X2706000Y25250212D01*
X2749617Y25030933D01*
X2835176Y24824376D01*
X2959388Y24638480D01*
X3117480Y24480388D01*
X3303376Y24356176D01*
X3509933Y24270617D01*
X3729212Y24227000D01*
X3952788Y24227000D01*
X4172067Y24270617D01*
X4378624Y24356176D01*
X4564520Y24480388D01*
X4722612Y24638480D01*
X4846824Y24824376D01*
X4932383Y25030933D01*
X4976000Y25250212D01*
X4976000Y25473788D01*
X4932383Y25693067D01*
X4846824Y25899624D01*
X4722612Y26085520D01*
X4564520Y26243612D01*
X4378624Y26367824D01*
X4172067Y26453383D01*
X3952788Y26497000D01*
X3729212Y26497000D01*
X3509933Y26453383D01*
X3303376Y26367824D01*
X3117480Y26243612D01*
X2959388Y26085520D01*
X2835176Y25899624D01*
X2749617Y25693067D01*
X2706000Y25473788D01*
X660000Y25473788D01*
X660000Y29820000D01*
X71303335Y29820000D01*
X70962315Y29592138D01*
G37*
X70962315Y29592138D02*
X70483862Y29113685D01*
X70107943Y28551082D01*
X69849006Y27925952D01*
X69717000Y27262318D01*
X69717000Y26585682D01*
X69849006Y25922048D01*
X70107943Y25296918D01*
X70483862Y24734315D01*
X70962315Y24255862D01*
X71524918Y23879943D01*
X72150048Y23621006D01*
X72813682Y23489000D01*
X73490318Y23489000D01*
X74153952Y23621006D01*
X74779082Y23879943D01*
X75341685Y24255862D01*
X75820138Y24734315D01*
X76196057Y25296918D01*
X76202000Y25311266D01*
X76202000Y22055185D01*
X76040714Y22251714D01*
X75791752Y22456031D01*
X75507715Y22607852D01*
X75199516Y22701343D01*
X74959322Y22725000D01*
X73398678Y22725000D01*
X73158484Y22701343D01*
X72850285Y22607852D01*
X72566248Y22456031D01*
X72317286Y22251714D01*
X72112969Y22002752D01*
X72086697Y21953600D01*
X70924220Y21953600D01*
X70881800Y21957778D01*
X70741523Y21943962D01*
X70712505Y21941104D01*
X70549716Y21891722D01*
X70399688Y21811531D01*
X70268188Y21703612D01*
X70241140Y21670654D01*
X69728346Y21157859D01*
X69695389Y21130812D01*
X69612307Y21029576D01*
X69587469Y20999311D01*
X69507279Y20849284D01*
X69457896Y20686494D01*
X69454671Y20653754D01*
X69322553Y20613676D01*
X69125377Y20508284D01*
X68952551Y20366449D01*
X68810716Y20193623D01*
X68705324Y19996447D01*
X68640423Y19782499D01*
X68618509Y19560000D01*
X68640423Y19337501D01*
X68705324Y19123553D01*
X68810716Y18926377D01*
X68952551Y18753551D01*
X69125377Y18611716D01*
X69322553Y18506324D01*
X69536501Y18441423D01*
X69703248Y18425000D01*
X69922096Y18425000D01*
X69915892Y18410022D01*
X69879000Y18224552D01*
X69879000Y18035448D01*
X69915892Y17849978D01*
X69988259Y17675269D01*
X70093319Y17518036D01*
X70227036Y17384319D01*
X70384269Y17279259D01*
X70558978Y17206892D01*
X70744448Y17170000D01*
X70933552Y17170000D01*
X71119022Y17206892D01*
X71293731Y17279259D01*
X71450964Y17384319D01*
X71584681Y17518036D01*
X71597085Y17536600D01*
X71666827Y17490000D01*
X71464241Y17354637D01*
X71264363Y17154759D01*
X71107320Y16919727D01*
X71047526Y16775372D01*
X71031205Y16786277D01*
X70870145Y16852990D01*
X70699165Y16887000D01*
X70524835Y16887000D01*
X70353855Y16852990D01*
X70192795Y16786277D01*
X70047845Y16689424D01*
X69924576Y16566155D01*
X69827723Y16421205D01*
X69761010Y16260145D01*
X69727000Y16089165D01*
X69727000Y15914835D01*
X69761010Y15743855D01*
X69827723Y15582795D01*
X69887054Y15494000D01*
X69827723Y15405205D01*
X69761010Y15244145D01*
X69727000Y15073165D01*
X69727000Y14898835D01*
X69761010Y14727855D01*
X69827723Y14566795D01*
X69924576Y14421845D01*
X70047845Y14298576D01*
X70192795Y14201723D01*
X70353855Y14135010D01*
X70524835Y14101000D01*
X70699165Y14101000D01*
X70870145Y14135010D01*
X70944000Y14165602D01*
X70944000Y14098665D01*
X70999147Y13821426D01*
X71107320Y13560273D01*
X71264363Y13325241D01*
X71464241Y13125363D01*
X71664869Y12991308D01*
X71637486Y12976671D01*
X71618375Y12911537D01*
X71584681Y12961964D01*
X71450964Y13095681D01*
X71293731Y13200741D01*
X71119022Y13273108D01*
X70933552Y13310000D01*
X70744448Y13310000D01*
X70558978Y13273108D01*
X70384269Y13200741D01*
X70227036Y13095681D01*
X70093319Y12961964D01*
X69988259Y12804731D01*
X69915892Y12630022D01*
X69879000Y12444552D01*
X69879000Y12255448D01*
X69915892Y12069978D01*
X69922096Y12055000D01*
X69703248Y12055000D01*
X69536501Y12038577D01*
X69322553Y11973676D01*
X69125377Y11868284D01*
X68952551Y11726449D01*
X68810716Y11553623D01*
X68705324Y11356447D01*
X68640423Y11142499D01*
X68618509Y10920000D01*
X68640423Y10697501D01*
X68705324Y10483553D01*
X68810716Y10286377D01*
X68952551Y10113551D01*
X69125377Y9971716D01*
X69322553Y9866324D01*
X69454671Y9826246D01*
X69457896Y9793506D01*
X69507279Y9630716D01*
X69584041Y9487104D01*
X69587470Y9480688D01*
X69695389Y9349188D01*
X69728346Y9322141D01*
X70241140Y8809346D01*
X70268188Y8776388D01*
X70387563Y8678420D01*
X70399688Y8668469D01*
X70549716Y8588278D01*
X70712505Y8538896D01*
X70881800Y8522222D01*
X70924220Y8526400D01*
X72086697Y8526400D01*
X72112969Y8477248D01*
X72317286Y8228286D01*
X72566248Y8023969D01*
X72850285Y7872148D01*
X73158484Y7778657D01*
X73398678Y7755000D01*
X74959322Y7755000D01*
X75199516Y7778657D01*
X75507715Y7872148D01*
X75791752Y8023969D01*
X76040714Y8228286D01*
X76202001Y8424815D01*
X76202001Y5295732D01*
X76196057Y5310082D01*
X75820138Y5872685D01*
X75341685Y6351138D01*
X74779082Y6727057D01*
X74153952Y6985994D01*
X73490318Y7118000D01*
X72813682Y7118000D01*
X72150048Y6985994D01*
X71524918Y6727057D01*
X70962315Y6351138D01*
X70483862Y5872685D01*
X70107943Y5310082D01*
X69849006Y4684952D01*
X69717000Y4021318D01*
X69717000Y3344682D01*
X69849006Y2681048D01*
X70107943Y2055918D01*
X70483862Y1493315D01*
X70962315Y1014862D01*
X71493404Y660000D01*
X11564596Y660000D01*
X12095685Y1014862D01*
X12574138Y1493315D01*
X12950057Y2055918D01*
X13208994Y2681048D01*
X13298859Y3132828D01*
X14726345Y1705340D01*
X14753388Y1672388D01*
X14786338Y1645347D01*
X14884888Y1564469D01*
X15034916Y1484278D01*
X15197705Y1434896D01*
X15367000Y1418222D01*
X15409420Y1422400D01*
X25992580Y1422400D01*
X26035000Y1418222D01*
X26077420Y1422400D01*
X26085657Y1423211D01*
X26177212Y1405000D01*
X26400788Y1405000D01*
X26620067Y1448617D01*
X26826624Y1534176D01*
X26924000Y1599241D01*
X27021376Y1534176D01*
X27227933Y1448617D01*
X27447212Y1405000D01*
X27670788Y1405000D01*
X27890067Y1448617D01*
X28096624Y1534176D01*
X28194000Y1599241D01*
X28291376Y1534176D01*
X28497933Y1448617D01*
X28717212Y1405000D01*
X28940788Y1405000D01*
X29160067Y1448617D01*
X29366624Y1534176D01*
X29464000Y1599241D01*
X29561376Y1534176D01*
X29767933Y1448617D01*
X29987212Y1405000D01*
X30210788Y1405000D01*
X30430067Y1448617D01*
X30636624Y1534176D01*
X30734000Y1599241D01*
X30831376Y1534176D01*
X31037933Y1448617D01*
X31257212Y1405000D01*
X31480788Y1405000D01*
X31700067Y1448617D01*
X31906624Y1534176D01*
X32004000Y1599241D01*
X32101376Y1534176D01*
X32307933Y1448617D01*
X32527212Y1405000D01*
X32750788Y1405000D01*
X32970067Y1448617D01*
X33176624Y1534176D01*
X33274000Y1599241D01*
X33371376Y1534176D01*
X33577933Y1448617D01*
X33797212Y1405000D01*
X34020788Y1405000D01*
X34240067Y1448617D01*
X34446624Y1534176D01*
X34544000Y1599241D01*
X34641376Y1534176D01*
X34847933Y1448617D01*
X35067212Y1405000D01*
X35290788Y1405000D01*
X35510067Y1448617D01*
X35716624Y1534176D01*
X35814000Y1599241D01*
X35911376Y1534176D01*
X36117933Y1448617D01*
X36337212Y1405000D01*
X36560788Y1405000D01*
X36780067Y1448617D01*
X36986624Y1534176D01*
X37084000Y1599241D01*
X37181376Y1534176D01*
X37387933Y1448617D01*
X37607212Y1405000D01*
X37830788Y1405000D01*
X38050067Y1448617D01*
X38256624Y1534176D01*
X38354000Y1599241D01*
X38451376Y1534176D01*
X38657933Y1448617D01*
X38877212Y1405000D01*
X39100788Y1405000D01*
X39320067Y1448617D01*
X39526624Y1534176D01*
X39624000Y1599241D01*
X39721376Y1534176D01*
X39927933Y1448617D01*
X40147212Y1405000D01*
X40370788Y1405000D01*
X40590067Y1448617D01*
X40796624Y1534176D01*
X40894000Y1599241D01*
X40991376Y1534176D01*
X41197933Y1448617D01*
X41417212Y1405000D01*
X41640788Y1405000D01*
X41860067Y1448617D01*
X42066624Y1534176D01*
X42164000Y1599241D01*
X42261376Y1534176D01*
X42467933Y1448617D01*
X42687212Y1405000D01*
X42910788Y1405000D01*
X43130067Y1448617D01*
X43336624Y1534176D01*
X43434000Y1599241D01*
X43531376Y1534176D01*
X43737933Y1448617D01*
X43957212Y1405000D01*
X44180788Y1405000D01*
X44400067Y1448617D01*
X44606624Y1534176D01*
X44704000Y1599241D01*
X44801376Y1534176D01*
X45007933Y1448617D01*
X45227212Y1405000D01*
X45450788Y1405000D01*
X45670067Y1448617D01*
X45876624Y1534176D01*
X45974000Y1599241D01*
X46071376Y1534176D01*
X46277933Y1448617D01*
X46497212Y1405000D01*
X46720788Y1405000D01*
X46940067Y1448617D01*
X47146624Y1534176D01*
X47244000Y1599241D01*
X47341376Y1534176D01*
X47547933Y1448617D01*
X47767212Y1405000D01*
X47990788Y1405000D01*
X48210067Y1448617D01*
X48416624Y1534176D01*
X48514000Y1599241D01*
X48611376Y1534176D01*
X48817933Y1448617D01*
X49037212Y1405000D01*
X49260788Y1405000D01*
X49480067Y1448617D01*
X49686624Y1534176D01*
X49784000Y1599241D01*
X49881376Y1534176D01*
X50087933Y1448617D01*
X50307212Y1405000D01*
X50530788Y1405000D01*
X50750067Y1448617D01*
X50956624Y1534176D01*
X51054000Y1599241D01*
X51151376Y1534176D01*
X51357933Y1448617D01*
X51577212Y1405000D01*
X51800788Y1405000D01*
X52020067Y1448617D01*
X52226624Y1534176D01*
X52324000Y1599241D01*
X52421376Y1534176D01*
X52627933Y1448617D01*
X52847212Y1405000D01*
X53070788Y1405000D01*
X53290067Y1448617D01*
X53496624Y1534176D01*
X53594000Y1599241D01*
X53691376Y1534176D01*
X53897933Y1448617D01*
X54117212Y1405000D01*
X54340788Y1405000D01*
X54560067Y1448617D01*
X54766624Y1534176D01*
X54864000Y1599241D01*
X54961376Y1534176D01*
X55167933Y1448617D01*
X55387212Y1405000D01*
X55610788Y1405000D01*
X55830067Y1448617D01*
X56036624Y1534176D01*
X56134000Y1599241D01*
X56231376Y1534176D01*
X56437933Y1448617D01*
X56657212Y1405000D01*
X56880788Y1405000D01*
X57100067Y1448617D01*
X57306624Y1534176D01*
X57404000Y1599241D01*
X57501376Y1534176D01*
X57707933Y1448617D01*
X57927212Y1405000D01*
X58150788Y1405000D01*
X58370067Y1448617D01*
X58576624Y1534176D01*
X58674000Y1599241D01*
X58771376Y1534176D01*
X58977933Y1448617D01*
X59197212Y1405000D01*
X59420788Y1405000D01*
X59640067Y1448617D01*
X59846624Y1534176D01*
X59944000Y1599241D01*
X60041376Y1534176D01*
X60247933Y1448617D01*
X60467212Y1405000D01*
X60690788Y1405000D01*
X60910067Y1448617D01*
X61116624Y1534176D01*
X61270930Y1637280D01*
X61285550Y1548412D01*
X61489826Y1457542D01*
X61707905Y1408269D01*
X61931406Y1402489D01*
X62151740Y1440423D01*
X62360440Y1520613D01*
X62412450Y1548412D01*
X62427070Y1637280D01*
X62581376Y1534176D01*
X62787933Y1448617D01*
X63007212Y1405000D01*
X63230788Y1405000D01*
X63450067Y1448617D01*
X63656624Y1534176D01*
X63842520Y1658388D01*
X64000612Y1816480D01*
X64124824Y2002376D01*
X64210383Y2208933D01*
X64254000Y2428212D01*
X64254000Y2651788D01*
X64210383Y2871067D01*
X64124824Y3077624D01*
X64000612Y3263520D01*
X63982600Y3281532D01*
X63982600Y8278287D01*
X68163948Y12459633D01*
X68255155Y12520576D01*
X68378424Y12643845D01*
X68475277Y12788795D01*
X68541990Y12949855D01*
X68576000Y13120835D01*
X68576000Y13295165D01*
X68554600Y13402750D01*
X68554600Y16950250D01*
X68576000Y17057835D01*
X68576000Y17232165D01*
X68541990Y17403145D01*
X68475277Y17564205D01*
X68378424Y17709155D01*
X68255155Y17832424D01*
X68110205Y17929277D01*
X67949145Y17995990D01*
X67778165Y18030000D01*
X67603835Y18030000D01*
X67432855Y17995990D01*
X67271795Y17929277D01*
X67126845Y17832424D01*
X67003576Y17709155D01*
X66906723Y17564205D01*
X66840010Y17403145D01*
X66806000Y17232165D01*
X66806000Y17057835D01*
X66827400Y16950250D01*
X66827401Y13565716D01*
X62538346Y9276659D01*
X62505389Y9249612D01*
X62408619Y9131697D01*
X62397469Y9118111D01*
X62317279Y8968084D01*
X62267896Y8805294D01*
X62251222Y8636000D01*
X62255401Y8593570D01*
X62255400Y3601450D01*
X62208174Y3622458D01*
X61990095Y3671731D01*
X61766594Y3677511D01*
X61546260Y3639577D01*
X61337560Y3559387D01*
X61285550Y3531588D01*
X61270930Y3442720D01*
X61116624Y3545824D01*
X60910067Y3631383D01*
X60690788Y3675000D01*
X60467212Y3675000D01*
X60247933Y3631383D01*
X60041376Y3545824D01*
X59944000Y3480759D01*
X59846624Y3545824D01*
X59640067Y3631383D01*
X59420788Y3675000D01*
X59197212Y3675000D01*
X58977933Y3631383D01*
X58771376Y3545824D01*
X58674000Y3480759D01*
X58576624Y3545824D01*
X58370067Y3631383D01*
X58150788Y3675000D01*
X57927212Y3675000D01*
X57707933Y3631383D01*
X57501376Y3545824D01*
X57404000Y3480759D01*
X57306624Y3545824D01*
X57100067Y3631383D01*
X56880788Y3675000D01*
X56657212Y3675000D01*
X56437933Y3631383D01*
X56231376Y3545824D01*
X56134000Y3480759D01*
X56036624Y3545824D01*
X55830067Y3631383D01*
X55610788Y3675000D01*
X55387212Y3675000D01*
X55167933Y3631383D01*
X54961376Y3545824D01*
X54864000Y3480759D01*
X54766624Y3545824D01*
X54560067Y3631383D01*
X54340788Y3675000D01*
X54117212Y3675000D01*
X53897933Y3631383D01*
X53691376Y3545824D01*
X53594000Y3480759D01*
X53496624Y3545824D01*
X53290067Y3631383D01*
X53070788Y3675000D01*
X52847212Y3675000D01*
X52627933Y3631383D01*
X52421376Y3545824D01*
X52324000Y3480759D01*
X52226624Y3545824D01*
X52020067Y3631383D01*
X51800788Y3675000D01*
X51577212Y3675000D01*
X51357933Y3631383D01*
X51151376Y3545824D01*
X51054000Y3480759D01*
X50956624Y3545824D01*
X50750067Y3631383D01*
X50530788Y3675000D01*
X50307212Y3675000D01*
X50087933Y3631383D01*
X49881376Y3545824D01*
X49784000Y3480759D01*
X49686624Y3545824D01*
X49480067Y3631383D01*
X49260788Y3675000D01*
X49037212Y3675000D01*
X48817933Y3631383D01*
X48611376Y3545824D01*
X48514000Y3480759D01*
X48416624Y3545824D01*
X48210067Y3631383D01*
X47990788Y3675000D01*
X47767212Y3675000D01*
X47547933Y3631383D01*
X47341376Y3545824D01*
X47244000Y3480759D01*
X47146624Y3545824D01*
X46940067Y3631383D01*
X46720788Y3675000D01*
X46497212Y3675000D01*
X46277933Y3631383D01*
X46071376Y3545824D01*
X45974000Y3480759D01*
X45876624Y3545824D01*
X45670067Y3631383D01*
X45450788Y3675000D01*
X45227212Y3675000D01*
X45007933Y3631383D01*
X44801376Y3545824D01*
X44704000Y3480759D01*
X44606624Y3545824D01*
X44400067Y3631383D01*
X44180788Y3675000D01*
X43957212Y3675000D01*
X43737933Y3631383D01*
X43531376Y3545824D01*
X43434000Y3480759D01*
X43336624Y3545824D01*
X43130067Y3631383D01*
X42910788Y3675000D01*
X42687212Y3675000D01*
X42467933Y3631383D01*
X42261376Y3545824D01*
X42164000Y3480759D01*
X42066624Y3545824D01*
X41860067Y3631383D01*
X41640788Y3675000D01*
X41417212Y3675000D01*
X41197933Y3631383D01*
X40991376Y3545824D01*
X40894000Y3480759D01*
X40796624Y3545824D01*
X40590067Y3631383D01*
X40370788Y3675000D01*
X40147212Y3675000D01*
X39927933Y3631383D01*
X39721376Y3545824D01*
X39624000Y3480759D01*
X39526624Y3545824D01*
X39320067Y3631383D01*
X39100788Y3675000D01*
X38877212Y3675000D01*
X38657933Y3631383D01*
X38557200Y3589658D01*
X38557200Y5800841D01*
X38561254Y5842001D01*
X38557200Y5883161D01*
X38557200Y5883170D01*
X38545071Y6006316D01*
X38497142Y6164317D01*
X38419309Y6309932D01*
X38314564Y6437564D01*
X38282589Y6463805D01*
X23882501Y20863892D01*
X24042835Y20832000D01*
X24217165Y20832000D01*
X24324750Y20853400D01*
X37422580Y20853400D01*
X37465000Y20849222D01*
X37507420Y20853400D01*
X37634295Y20865896D01*
X37797084Y20915278D01*
X37947112Y20995469D01*
X38078612Y21103388D01*
X38105664Y21136351D01*
X42503798Y25534483D01*
X42522723Y25488795D01*
X42619576Y25343845D01*
X42626921Y25336500D01*
X42619576Y25329155D01*
X42522723Y25184205D01*
X42456010Y25023145D01*
X42422000Y24852165D01*
X42422000Y24677835D01*
X42456010Y24506855D01*
X42522723Y24345795D01*
X42619576Y24200845D01*
X42742845Y24077576D01*
X42887795Y23980723D01*
X43048855Y23914010D01*
X43219835Y23880000D01*
X43394165Y23880000D01*
X43565145Y23914010D01*
X43596023Y23926800D01*
X44356786Y23926800D01*
X44362611Y23925726D01*
X44439158Y23926800D01*
X44474570Y23926800D01*
X44480453Y23927379D01*
X44486340Y23927462D01*
X44521406Y23931413D01*
X44568751Y23936076D01*
X44612334Y23937911D01*
X44681126Y23954631D01*
X44750368Y23969417D01*
X44799174Y23990440D01*
X44800609Y23990942D01*
X44822990Y23942750D01*
X44854349Y23899842D01*
X44855838Y23897472D01*
X44880887Y23850609D01*
X44925813Y23795866D01*
X44969169Y23739909D01*
X45009281Y23705062D01*
X45011262Y23703081D01*
X45046109Y23662969D01*
X45102076Y23619605D01*
X45156809Y23574687D01*
X45203672Y23549638D01*
X45206042Y23548149D01*
X45248950Y23516790D01*
X45313153Y23486973D01*
X45376509Y23455360D01*
X45427777Y23441365D01*
X45430430Y23440437D01*
X45479245Y23419411D01*
X45482701Y23418673D01*
X45482206Y23417746D01*
X45475492Y23407061D01*
X45444138Y23364161D01*
X45422328Y23317200D01*
X43596023Y23317200D01*
X43565145Y23329990D01*
X43394165Y23364000D01*
X43219835Y23364000D01*
X43048855Y23329990D01*
X42887795Y23263277D01*
X42742845Y23166424D01*
X42619576Y23043155D01*
X42522723Y22898205D01*
X42456010Y22737145D01*
X42422000Y22566165D01*
X42422000Y22391835D01*
X42456010Y22220855D01*
X42522723Y22059795D01*
X42619576Y21914845D01*
X42742845Y21791576D01*
X42887795Y21694723D01*
X43048855Y21628010D01*
X43219835Y21594000D01*
X43394165Y21594000D01*
X43565145Y21628010D01*
X43596023Y21640800D01*
X45742516Y21640800D01*
X45748341Y21639726D01*
X45824887Y21640800D01*
X45860299Y21640800D01*
X45866182Y21641379D01*
X45872069Y21641462D01*
X45907136Y21645413D01*
X45966703Y21651280D01*
X46007831Y21653012D01*
X46076625Y21669733D01*
X46145860Y21684517D01*
X46194666Y21705540D01*
X46202120Y21708149D01*
X46227108Y21658068D01*
X46256938Y21593839D01*
X46288292Y21550939D01*
X46295006Y21540254D01*
X46320058Y21493384D01*
X46364976Y21438651D01*
X46408331Y21382693D01*
X46448446Y21347843D01*
X46457383Y21338906D01*
X46492236Y21298788D01*
X46548194Y21255433D01*
X46602927Y21210515D01*
X46649793Y21185465D01*
X46660483Y21178748D01*
X46688598Y21158200D01*
X43596025Y21158200D01*
X43565147Y21170990D01*
X43394167Y21205000D01*
X43219837Y21205000D01*
X43048857Y21170990D01*
X42887797Y21104277D01*
X42742847Y21007424D01*
X42619578Y20884155D01*
X42522725Y20739205D01*
X42456012Y20578145D01*
X42422002Y20407165D01*
X42422002Y20232835D01*
X42456012Y20061855D01*
X42522725Y19900795D01*
X42619578Y19755845D01*
X42626921Y19748502D01*
X42619576Y19741157D01*
X42522723Y19596207D01*
X42456010Y19435147D01*
X42422000Y19264167D01*
X42422000Y19089837D01*
X42456010Y18918857D01*
X42522723Y18757797D01*
X42582055Y18669001D01*
X42522723Y18580205D01*
X42456010Y18419145D01*
X42422000Y18248165D01*
X42422000Y18073835D01*
X42456010Y17902855D01*
X42522723Y17741795D01*
X42619576Y17596845D01*
X42742845Y17473576D01*
X42887795Y17376723D01*
X43048855Y17310010D01*
X43219835Y17276000D01*
X43394165Y17276000D01*
X43565145Y17310010D01*
X43596023Y17322800D01*
X54187837Y17322800D01*
X54229000Y17318746D01*
X54270163Y17322800D01*
X54270170Y17322800D01*
X54393316Y17334929D01*
X54551317Y17382858D01*
X54696932Y17460691D01*
X54824564Y17565436D01*
X54850811Y17597418D01*
X63682588Y26429194D01*
X63714564Y26455436D01*
X63743258Y26490399D01*
X63819309Y26583068D01*
X63897142Y26728683D01*
X63945071Y26886684D01*
X63945357Y26889585D01*
X63957200Y27009830D01*
X63957200Y27009837D01*
X63961254Y27051000D01*
X63957200Y27092163D01*
X63957200Y27173068D01*
X64000612Y27216480D01*
X64124824Y27402376D01*
X64210383Y27608933D01*
X64254000Y27828212D01*
X64254000Y28051788D01*
X64210383Y28271067D01*
X64124824Y28477624D01*
X64000612Y28663520D01*
X63842520Y28821612D01*
X63656624Y28945824D01*
X63450067Y29031383D01*
X63230788Y29075000D01*
X63007212Y29075000D01*
X62787933Y29031383D01*
X62581376Y28945824D01*
X62484000Y28880759D01*
X62386624Y28945824D01*
X62180067Y29031383D01*
X61960788Y29075000D01*
X61737212Y29075000D01*
X61517933Y29031383D01*
X61311376Y28945824D01*
X61214000Y28880759D01*
X61116624Y28945824D01*
X60910067Y29031383D01*
X60690788Y29075000D01*
X60467212Y29075000D01*
X60247933Y29031383D01*
X60041376Y28945824D01*
X59944000Y28880759D01*
X59846624Y28945824D01*
X59640067Y29031383D01*
X59420788Y29075000D01*
X59197212Y29075000D01*
X58977933Y29031383D01*
X58771376Y28945824D01*
X58674000Y28880759D01*
X58576624Y28945824D01*
X58370067Y29031383D01*
X58150788Y29075000D01*
X57927212Y29075000D01*
X57707933Y29031383D01*
X57501376Y28945824D01*
X57404000Y28880759D01*
X57306624Y28945824D01*
X57100067Y29031383D01*
X56880788Y29075000D01*
X56657212Y29075000D01*
X56437933Y29031383D01*
X56231376Y28945824D01*
X56134000Y28880759D01*
X56036624Y28945824D01*
X55830067Y29031383D01*
X55610788Y29075000D01*
X55387212Y29075000D01*
X55167933Y29031383D01*
X54961376Y28945824D01*
X54864000Y28880759D01*
X54766624Y28945824D01*
X54560067Y29031383D01*
X54340788Y29075000D01*
X54117212Y29075000D01*
X53897933Y29031383D01*
X53691376Y28945824D01*
X53594000Y28880759D01*
X53496624Y28945824D01*
X53290067Y29031383D01*
X53070788Y29075000D01*
X52847212Y29075000D01*
X52627933Y29031383D01*
X52421376Y28945824D01*
X52324000Y28880759D01*
X52226624Y28945824D01*
X52020067Y29031383D01*
X51800788Y29075000D01*
X51577212Y29075000D01*
X51357933Y29031383D01*
X51151376Y28945824D01*
X51054000Y28880759D01*
X50956624Y28945824D01*
X50750067Y29031383D01*
X50530788Y29075000D01*
X50307212Y29075000D01*
X50087933Y29031383D01*
X49881376Y28945824D01*
X49784000Y28880759D01*
X49686624Y28945824D01*
X49480067Y29031383D01*
X49260788Y29075000D01*
X49037212Y29075000D01*
X48817933Y29031383D01*
X48611376Y28945824D01*
X48514000Y28880759D01*
X48416624Y28945824D01*
X48210067Y29031383D01*
X47990788Y29075000D01*
X47767212Y29075000D01*
X47547933Y29031383D01*
X47341376Y28945824D01*
X47244000Y28880759D01*
X47146624Y28945824D01*
X46940067Y29031383D01*
X46720788Y29075000D01*
X46497212Y29075000D01*
X46277933Y29031383D01*
X46071376Y28945824D01*
X45974000Y28880759D01*
X45876624Y28945824D01*
X45670067Y29031383D01*
X45450788Y29075000D01*
X45227212Y29075000D01*
X45007933Y29031383D01*
X44801376Y28945824D01*
X44704000Y28880759D01*
X44606624Y28945824D01*
X44400067Y29031383D01*
X44180788Y29075000D01*
X43957212Y29075000D01*
X43737933Y29031383D01*
X43531376Y28945824D01*
X43377070Y28842720D01*
X43362450Y28931588D01*
X43158174Y29022458D01*
X42940095Y29071731D01*
X42716594Y29077511D01*
X42496260Y29039577D01*
X42287560Y28959387D01*
X42235550Y28931588D01*
X42220930Y28842720D01*
X42066624Y28945824D01*
X41860067Y29031383D01*
X41640788Y29075000D01*
X41417212Y29075000D01*
X41197933Y29031383D01*
X40991376Y28945824D01*
X40894000Y28880759D01*
X40796624Y28945824D01*
X40590067Y29031383D01*
X40370788Y29075000D01*
X40147212Y29075000D01*
X39927933Y29031383D01*
X39721376Y28945824D01*
X39624000Y28880759D01*
X39526624Y28945824D01*
X39320067Y29031383D01*
X39100788Y29075000D01*
X38877212Y29075000D01*
X38657933Y29031383D01*
X38451376Y28945824D01*
X38354000Y28880759D01*
X38256624Y28945824D01*
X38050067Y29031383D01*
X37830788Y29075000D01*
X37607212Y29075000D01*
X37387933Y29031383D01*
X37181376Y28945824D01*
X37084000Y28880759D01*
X36986624Y28945824D01*
X36780067Y29031383D01*
X36560788Y29075000D01*
X36337212Y29075000D01*
X36117933Y29031383D01*
X35911376Y28945824D01*
X35814000Y28880759D01*
X35716624Y28945824D01*
X35510067Y29031383D01*
X35290788Y29075000D01*
X35067212Y29075000D01*
X34847933Y29031383D01*
X34641376Y28945824D01*
X34544000Y28880759D01*
X34446624Y28945824D01*
X34240067Y29031383D01*
X34020788Y29075000D01*
X33797212Y29075000D01*
X33577933Y29031383D01*
X33371376Y28945824D01*
X33274000Y28880759D01*
X33176624Y28945824D01*
X32970067Y29031383D01*
X32750788Y29075000D01*
X32527212Y29075000D01*
X32307933Y29031383D01*
X32101376Y28945824D01*
X32004000Y28880759D01*
X31906624Y28945824D01*
X31700067Y29031383D01*
X31480788Y29075000D01*
X31257212Y29075000D01*
X31037933Y29031383D01*
X30831376Y28945824D01*
X30734000Y28880759D01*
X30636624Y28945824D01*
X30430067Y29031383D01*
X30210788Y29075000D01*
X29987212Y29075000D01*
X29767933Y29031383D01*
X29561376Y28945824D01*
X29464000Y28880759D01*
X29366624Y28945824D01*
X29160067Y29031383D01*
X28940788Y29075000D01*
X28717212Y29075000D01*
X28497933Y29031383D01*
X28291376Y28945824D01*
X28194000Y28880759D01*
X28096624Y28945824D01*
X27890067Y29031383D01*
X27670788Y29075000D01*
X27447212Y29075000D01*
X27227933Y29031383D01*
X27021376Y28945824D01*
X26924000Y28880759D01*
X26826624Y28945824D01*
X26620067Y29031383D01*
X26400788Y29075000D01*
X26177212Y29075000D01*
X25957933Y29031383D01*
X25751376Y28945824D01*
X25565480Y28821612D01*
X25407388Y28663520D01*
X25283176Y28477624D01*
X25197617Y28271067D01*
X25154000Y28051788D01*
X25154000Y27828212D01*
X25197617Y27608933D01*
X25283176Y27402376D01*
X25407388Y27216480D01*
X25565480Y27058388D01*
X25751376Y26934176D01*
X25957933Y26848617D01*
X26177212Y26805000D01*
X26400788Y26805000D01*
X26620067Y26848617D01*
X26826624Y26934176D01*
X26924000Y26999241D01*
X27021376Y26934176D01*
X27227933Y26848617D01*
X27447212Y26805000D01*
X27670788Y26805000D01*
X27890067Y26848617D01*
X28096624Y26934176D01*
X28194000Y26999241D01*
X28291376Y26934176D01*
X28497933Y26848617D01*
X28717212Y26805000D01*
X28940788Y26805000D01*
X29160067Y26848617D01*
X29366624Y26934176D01*
X29464000Y26999241D01*
X29561376Y26934176D01*
X29767933Y26848617D01*
X29987212Y26805000D01*
X30210788Y26805000D01*
X30430067Y26848617D01*
X30636624Y26934176D01*
X30734000Y26999241D01*
X30831376Y26934176D01*
X31037933Y26848617D01*
X31257212Y26805000D01*
X31480788Y26805000D01*
X31700067Y26848617D01*
X31906624Y26934176D01*
X32004000Y26999241D01*
X32101376Y26934176D01*
X32307933Y26848617D01*
X32527212Y26805000D01*
X32750788Y26805000D01*
X32970067Y26848617D01*
X33176624Y26934176D01*
X33274000Y26999241D01*
X33371376Y26934176D01*
X33577933Y26848617D01*
X33797212Y26805000D01*
X34020788Y26805000D01*
X34240067Y26848617D01*
X34446624Y26934176D01*
X34544000Y26999241D01*
X34641376Y26934176D01*
X34847933Y26848617D01*
X35067212Y26805000D01*
X35290788Y26805000D01*
X35510067Y26848617D01*
X35716624Y26934176D01*
X35814000Y26999241D01*
X35911376Y26934176D01*
X36117933Y26848617D01*
X36337212Y26805000D01*
X36560788Y26805000D01*
X36780067Y26848617D01*
X36986624Y26934176D01*
X37084000Y26999241D01*
X37181376Y26934176D01*
X37387933Y26848617D01*
X37607212Y26805000D01*
X37830788Y26805000D01*
X38050067Y26848617D01*
X38256624Y26934176D01*
X38354000Y26999241D01*
X38451376Y26934176D01*
X38657933Y26848617D01*
X38877212Y26805000D01*
X39100788Y26805000D01*
X39320067Y26848617D01*
X39526624Y26934176D01*
X39624000Y26999241D01*
X39721376Y26934176D01*
X39927933Y26848617D01*
X40147212Y26805000D01*
X40370788Y26805000D01*
X40590067Y26848617D01*
X40796624Y26934176D01*
X40894000Y26999241D01*
X40991376Y26934176D01*
X41197933Y26848617D01*
X41345875Y26819190D01*
X37107287Y22580600D01*
X24324750Y22580600D01*
X24217165Y22602000D01*
X24042835Y22602000D01*
X23871855Y22567990D01*
X23710795Y22501277D01*
X23565845Y22404424D01*
X23442576Y22281155D01*
X23345723Y22136205D01*
X23279010Y21975145D01*
X23245000Y21804165D01*
X23245000Y21629835D01*
X23276892Y21469501D01*
X17561068Y27185325D01*
X17548277Y27216205D01*
X17451424Y27361155D01*
X17328155Y27484424D01*
X17183205Y27581277D01*
X17022145Y27647990D01*
X16851165Y27682000D01*
X16676835Y27682000D01*
X16505855Y27647990D01*
X16344795Y27581277D01*
X16199845Y27484424D01*
X16076576Y27361155D01*
X15979723Y27216205D01*
X15913010Y27055145D01*
X15879000Y26884165D01*
X15879000Y26709835D01*
X15913010Y26538855D01*
X15979723Y26377795D01*
X16076576Y26232845D01*
X16199845Y26109576D01*
X16344795Y26012723D01*
X16375675Y25999932D01*
X36880800Y5494806D01*
X36880800Y5010777D01*
X36759155Y5132422D01*
X36614205Y5229275D01*
X36460685Y5292865D01*
X30556123Y11197428D01*
X30531469Y11227469D01*
X30411572Y11325866D01*
X30274783Y11398982D01*
X30126357Y11444006D01*
X30010673Y11455400D01*
X30010663Y11455400D01*
X29972000Y11459208D01*
X29933337Y11455400D01*
X3086663Y11455400D01*
X3048000Y11459208D01*
X3009337Y11455400D01*
X3009327Y11455400D01*
X2893643Y11444006D01*
X2755532Y11402111D01*
X2745217Y11398982D01*
X2608427Y11325866D01*
X2547465Y11275835D01*
X2538606Y11268564D01*
X2310184Y11314000D01*
X2007816Y11314000D01*
X1711257Y11255011D01*
X1431905Y11139299D01*
X1180495Y10971312D01*
X966688Y10757505D01*
X798701Y10506095D01*
X682989Y10226743D01*
X660000Y10111169D01*
X660000Y17474788D01*
X2709000Y17474788D01*
X2709000Y17251212D01*
X2752617Y17031933D01*
X2838176Y16825376D01*
X2962388Y16639480D01*
X3120480Y16481388D01*
X3306376Y16357176D01*
X3512933Y16271617D01*
X3732212Y16228000D01*
X3955788Y16228000D01*
X4175067Y16271617D01*
X4381624Y16357176D01*
X4567520Y16481388D01*
X4725612Y16639480D01*
X4849824Y16825376D01*
X4935383Y17031933D01*
X4979000Y17251212D01*
X4979000Y17474788D01*
X4935383Y17694067D01*
X4849824Y17900624D01*
X4725612Y18086520D01*
X4567520Y18244612D01*
X4381624Y18368824D01*
X4175067Y18454383D01*
X3955788Y18498000D01*
X3732212Y18498000D01*
X3512933Y18454383D01*
X3306376Y18368824D01*
X3120480Y18244612D01*
X2962388Y18086520D01*
X2838176Y17900624D01*
X2752617Y17694067D01*
X2709000Y17474788D01*
X660000Y17474788D01*
X660000Y25473788D01*
X2706000Y25473788D01*
X2706000Y25250212D01*
X2749617Y25030933D01*
X2835176Y24824376D01*
X2959388Y24638480D01*
X3117480Y24480388D01*
X3303376Y24356176D01*
X3509933Y24270617D01*
X3729212Y24227000D01*
X3952788Y24227000D01*
X4172067Y24270617D01*
X4378624Y24356176D01*
X4564520Y24480388D01*
X4722612Y24638480D01*
X4846824Y24824376D01*
X4932383Y25030933D01*
X4976000Y25250212D01*
X4976000Y25473788D01*
X4932383Y25693067D01*
X4846824Y25899624D01*
X4722612Y26085520D01*
X4564520Y26243612D01*
X4378624Y26367824D01*
X4172067Y26453383D01*
X3952788Y26497000D01*
X3729212Y26497000D01*
X3509933Y26453383D01*
X3303376Y26367824D01*
X3117480Y26243612D01*
X2959388Y26085520D01*
X2835176Y25899624D01*
X2749617Y25693067D01*
X2706000Y25473788D01*
X660000Y25473788D01*
X660000Y29820000D01*
X71303335Y29820000D01*
X70962315Y29592138D01*
G36*
X61984000Y2612890D02*
G01*
X61984000Y2467110D01*
X61863143Y2346252D01*
X61849000Y2360395D01*
X61834858Y2346252D01*
X61714000Y2467110D01*
X61714000Y2612890D01*
X61834858Y2733747D01*
X61849000Y2719605D01*
X61863143Y2733747D01*
X61984000Y2612890D01*
G37*
X61984000Y2612890D02*
X61984000Y2467110D01*
X61863143Y2346252D01*
X61849000Y2360395D01*
X61834858Y2346252D01*
X61714000Y2467110D01*
X61714000Y2612890D01*
X61834858Y2733747D01*
X61849000Y2719605D01*
X61863143Y2733747D01*
X61984000Y2612890D01*
G36*
X29251133Y4179316D02*
G01*
X29314723Y4025795D01*
X29411576Y3880845D01*
X29534845Y3757576D01*
X29679795Y3660723D01*
X29759281Y3627799D01*
X29561376Y3545824D01*
X29464000Y3480759D01*
X29366624Y3545824D01*
X29160067Y3631383D01*
X28940788Y3675000D01*
X28717212Y3675000D01*
X28497933Y3631383D01*
X28291376Y3545824D01*
X28194000Y3480759D01*
X28096624Y3545824D01*
X27890067Y3631383D01*
X27670788Y3675000D01*
X27447212Y3675000D01*
X27227933Y3631383D01*
X27021376Y3545824D01*
X26924000Y3480759D01*
X26826624Y3545824D01*
X26620067Y3631383D01*
X26400788Y3675000D01*
X26177212Y3675000D01*
X25957933Y3631383D01*
X25751376Y3545824D01*
X25565480Y3421612D01*
X25407388Y3263520D01*
X25331269Y3149600D01*
X17716806Y3149600D01*
X17810932Y3376842D01*
X17868000Y3663740D01*
X17868000Y3956260D01*
X17810932Y4243158D01*
X17792110Y4288599D01*
X29141850Y4288599D01*
X29251133Y4179316D01*
G37*
X29251133Y4179316D02*
X29314723Y4025795D01*
X29411576Y3880845D01*
X29534845Y3757576D01*
X29679795Y3660723D01*
X29759281Y3627799D01*
X29561376Y3545824D01*
X29464000Y3480759D01*
X29366624Y3545824D01*
X29160067Y3631383D01*
X28940788Y3675000D01*
X28717212Y3675000D01*
X28497933Y3631383D01*
X28291376Y3545824D01*
X28194000Y3480759D01*
X28096624Y3545824D01*
X27890067Y3631383D01*
X27670788Y3675000D01*
X27447212Y3675000D01*
X27227933Y3631383D01*
X27021376Y3545824D01*
X26924000Y3480759D01*
X26826624Y3545824D01*
X26620067Y3631383D01*
X26400788Y3675000D01*
X26177212Y3675000D01*
X25957933Y3631383D01*
X25751376Y3545824D01*
X25565480Y3421612D01*
X25407388Y3263520D01*
X25331269Y3149600D01*
X17716806Y3149600D01*
X17810932Y3376842D01*
X17868000Y3663740D01*
X17868000Y3956260D01*
X17810932Y4243158D01*
X17792110Y4288599D01*
X29141850Y4288599D01*
X29251133Y4179316D01*
G36*
X14907188Y9864482D02*
G01*
X14894928Y9740000D01*
X14898000Y9175750D01*
X15056750Y9017000D01*
X16256000Y9017000D01*
X16256000Y9037000D01*
X16510000Y9037000D01*
X16510000Y9017000D01*
X17709250Y9017000D01*
X17868000Y9175750D01*
X17871072Y9740000D01*
X17858812Y9864482D01*
X17853923Y9880600D01*
X29645850Y9880600D01*
X35347133Y4179313D01*
X35410723Y4025793D01*
X35507576Y3880843D01*
X35630845Y3757574D01*
X35775795Y3660721D01*
X35936855Y3594008D01*
X35998229Y3581800D01*
X35911376Y3545824D01*
X35814000Y3480759D01*
X35716624Y3545824D01*
X35510067Y3631383D01*
X35290788Y3675000D01*
X35067212Y3675000D01*
X34847933Y3631383D01*
X34641376Y3545824D01*
X34567622Y3496543D01*
X34596424Y3525345D01*
X34693277Y3670295D01*
X34759990Y3831355D01*
X34794000Y4002335D01*
X34794000Y4176665D01*
X34759990Y4347645D01*
X34693277Y4508705D01*
X34596424Y4653655D01*
X34473155Y4776924D01*
X34328205Y4873777D01*
X34174683Y4937367D01*
X30962628Y8149422D01*
X30937969Y8179469D01*
X30818072Y8277866D01*
X30681283Y8350982D01*
X30532857Y8396006D01*
X30417173Y8407400D01*
X30417163Y8407400D01*
X30378500Y8411208D01*
X30339837Y8407400D01*
X17869072Y8407400D01*
X17868000Y8604250D01*
X17709250Y8763000D01*
X16510000Y8763000D01*
X16510000Y8743000D01*
X16256000Y8743000D01*
X16256000Y8763000D01*
X15056750Y8763000D01*
X14898000Y8604250D01*
X14896928Y8407400D01*
X14500791Y8407400D01*
X13615766Y9292423D01*
X13591108Y9322469D01*
X13471211Y9420866D01*
X13334422Y9493982D01*
X13185996Y9539006D01*
X13070312Y9550400D01*
X13070302Y9550400D01*
X13031639Y9554208D01*
X12992976Y9550400D01*
X3721662Y9550400D01*
X3682999Y9554208D01*
X3679286Y9553842D01*
X3694000Y9627816D01*
X3694000Y9880600D01*
X14912077Y9880600D01*
X14907188Y9864482D01*
G37*
X14907188Y9864482D02*
X14894928Y9740000D01*
X14898000Y9175750D01*
X15056750Y9017000D01*
X16256000Y9017000D01*
X16256000Y9037000D01*
X16510000Y9037000D01*
X16510000Y9017000D01*
X17709250Y9017000D01*
X17868000Y9175750D01*
X17871072Y9740000D01*
X17858812Y9864482D01*
X17853923Y9880600D01*
X29645850Y9880600D01*
X35347133Y4179313D01*
X35410723Y4025793D01*
X35507576Y3880843D01*
X35630845Y3757574D01*
X35775795Y3660721D01*
X35936855Y3594008D01*
X35998229Y3581800D01*
X35911376Y3545824D01*
X35814000Y3480759D01*
X35716624Y3545824D01*
X35510067Y3631383D01*
X35290788Y3675000D01*
X35067212Y3675000D01*
X34847933Y3631383D01*
X34641376Y3545824D01*
X34567622Y3496543D01*
X34596424Y3525345D01*
X34693277Y3670295D01*
X34759990Y3831355D01*
X34794000Y4002335D01*
X34794000Y4176665D01*
X34759990Y4347645D01*
X34693277Y4508705D01*
X34596424Y4653655D01*
X34473155Y4776924D01*
X34328205Y4873777D01*
X34174683Y4937367D01*
X30962628Y8149422D01*
X30937969Y8179469D01*
X30818072Y8277866D01*
X30681283Y8350982D01*
X30532857Y8396006D01*
X30417173Y8407400D01*
X30417163Y8407400D01*
X30378500Y8411208D01*
X30339837Y8407400D01*
X17869072Y8407400D01*
X17868000Y8604250D01*
X17709250Y8763000D01*
X16510000Y8763000D01*
X16510000Y8743000D01*
X16256000Y8743000D01*
X16256000Y8763000D01*
X15056750Y8763000D01*
X14898000Y8604250D01*
X14896928Y8407400D01*
X14500791Y8407400D01*
X13615766Y9292423D01*
X13591108Y9322469D01*
X13471211Y9420866D01*
X13334422Y9493982D01*
X13185996Y9539006D01*
X13070312Y9550400D01*
X13070302Y9550400D01*
X13031639Y9554208D01*
X12992976Y9550400D01*
X3721662Y9550400D01*
X3682999Y9554208D01*
X3679286Y9553842D01*
X3694000Y9627816D01*
X3694000Y9880600D01*
X14912077Y9880600D01*
X14907188Y9864482D01*
G36*
X33061133Y3823817D02*
G01*
X33124723Y3670295D01*
X33221576Y3525345D01*
X33250378Y3496543D01*
X33176624Y3545824D01*
X32970067Y3631383D01*
X32750788Y3675000D01*
X32527212Y3675000D01*
X32307933Y3631383D01*
X32101376Y3545824D01*
X32004000Y3480759D01*
X31906624Y3545824D01*
X31700067Y3631383D01*
X31480788Y3675000D01*
X31257212Y3675000D01*
X31037933Y3631383D01*
X30831376Y3545824D01*
X30734000Y3480759D01*
X30636624Y3545824D01*
X30438719Y3627799D01*
X30518205Y3660723D01*
X30663155Y3757576D01*
X30786424Y3880845D01*
X30883277Y4025795D01*
X30949990Y4186855D01*
X30984000Y4357835D01*
X30984000Y4532165D01*
X30949990Y4703145D01*
X30883277Y4864205D01*
X30786424Y5009155D01*
X30663155Y5132424D01*
X30518205Y5229277D01*
X30364684Y5292867D01*
X30052128Y5605422D01*
X30027470Y5635468D01*
X29907573Y5733865D01*
X29770784Y5806981D01*
X29622358Y5852005D01*
X29506674Y5863399D01*
X29506664Y5863399D01*
X29468001Y5867207D01*
X29429338Y5863399D01*
X17788795Y5863399D01*
X17810932Y5916842D01*
X17868000Y6203740D01*
X17868000Y6496260D01*
X17810932Y6783158D01*
X17790453Y6832600D01*
X30052350Y6832600D01*
X33061133Y3823817D01*
G37*
X33061133Y3823817D02*
X33124723Y3670295D01*
X33221576Y3525345D01*
X33250378Y3496543D01*
X33176624Y3545824D01*
X32970067Y3631383D01*
X32750788Y3675000D01*
X32527212Y3675000D01*
X32307933Y3631383D01*
X32101376Y3545824D01*
X32004000Y3480759D01*
X31906624Y3545824D01*
X31700067Y3631383D01*
X31480788Y3675000D01*
X31257212Y3675000D01*
X31037933Y3631383D01*
X30831376Y3545824D01*
X30734000Y3480759D01*
X30636624Y3545824D01*
X30438719Y3627799D01*
X30518205Y3660723D01*
X30663155Y3757576D01*
X30786424Y3880845D01*
X30883277Y4025795D01*
X30949990Y4186855D01*
X30984000Y4357835D01*
X30984000Y4532165D01*
X30949990Y4703145D01*
X30883277Y4864205D01*
X30786424Y5009155D01*
X30663155Y5132424D01*
X30518205Y5229277D01*
X30364684Y5292867D01*
X30052128Y5605422D01*
X30027470Y5635468D01*
X29907573Y5733865D01*
X29770784Y5806981D01*
X29622358Y5852005D01*
X29506674Y5863399D01*
X29506664Y5863399D01*
X29468001Y5867207D01*
X29429338Y5863399D01*
X17788795Y5863399D01*
X17810932Y5916842D01*
X17868000Y6203740D01*
X17868000Y6496260D01*
X17810932Y6783158D01*
X17790453Y6832600D01*
X30052350Y6832600D01*
X33061133Y3823817D01*
G36*
X72572748Y11754142D02*
G01*
X72558605Y11740000D01*
X72572748Y11725857D01*
X72393143Y11546252D01*
X72379000Y11560395D01*
X72364858Y11546252D01*
X72185253Y11725857D01*
X72199395Y11740000D01*
X72185253Y11754142D01*
X72364858Y11933747D01*
X72379000Y11919605D01*
X72393143Y11933747D01*
X72572748Y11754142D01*
G37*
X72572748Y11754142D02*
X72558605Y11740000D01*
X72572748Y11725857D01*
X72393143Y11546252D01*
X72379000Y11560395D01*
X72364858Y11546252D01*
X72185253Y11725857D01*
X72199395Y11740000D01*
X72185253Y11754142D01*
X72364858Y11933747D01*
X72379000Y11919605D01*
X72393143Y11933747D01*
X72572748Y11754142D01*
G36*
X42934000Y28012890D02*
G01*
X42934000Y27867110D01*
X42813143Y27746252D01*
X42799000Y27760395D01*
X42784858Y27746252D01*
X42664000Y27867110D01*
X42664000Y28012890D01*
X42784858Y28133747D01*
X42799000Y28119605D01*
X42813143Y28133747D01*
X42934000Y28012890D01*
G37*
X42934000Y28012890D02*
X42934000Y27867110D01*
X42813143Y27746252D01*
X42799000Y27760395D01*
X42784858Y27746252D01*
X42664000Y27867110D01*
X42664000Y28012890D01*
X42784858Y28133747D01*
X42799000Y28119605D01*
X42813143Y28133747D01*
X42934000Y28012890D01*
M02*
