G04 #@! TF.GenerationSoftware,KiCad,Pcbnew,(5.1.5)-3*
G04 #@! TF.CreationDate,2020-07-11T10:03:06+02:00*
G04 #@! TF.ProjectId,switch,73776974-6368-42e6-9b69-6361645f7063,rev?*
G04 #@! TF.SameCoordinates,PX48c2b58PY65ad6b4*
G04 #@! TF.FileFunction,Legend,Bot*
G04 #@! TF.FilePolarity,Positive*
%FSLAX46Y46*%
G04 Gerber Fmt 4.6, Leading zero omitted, Abs format (unit mm)*
G04 Created by KiCad (PCBNEW (5.1.5)-3) date 2020-07-11 10:03:06*
%MOMM*%
%LPD*%
G04 APERTURE LIST*
%ADD10C,0.150000*%
%ADD11C,0.400000*%
%ADD12C,0.050000*%
%ADD13C,0.020000*%
G04 APERTURE END LIST*
D10*
X13716000Y9448072D02*
X13679714Y9520643D01*
X13679714Y9629501D01*
X13716000Y9738358D01*
X13788571Y9810929D01*
X13861142Y9847215D01*
X14006285Y9883501D01*
X14115142Y9883501D01*
X14260285Y9847215D01*
X14332857Y9810929D01*
X14405428Y9738358D01*
X14441714Y9629501D01*
X14441714Y9556929D01*
X14405428Y9448072D01*
X14369142Y9411786D01*
X14115142Y9411786D01*
X14115142Y9556929D01*
X14441714Y9085215D02*
X13679714Y9085215D01*
X14441714Y8649786D01*
X13679714Y8649786D01*
X14441714Y8286929D02*
X13679714Y8286929D01*
X13679714Y8105501D01*
X13716000Y7996643D01*
X13788571Y7924072D01*
X13861142Y7887786D01*
X14006285Y7851501D01*
X14115142Y7851501D01*
X14260285Y7887786D01*
X14332857Y7924072D01*
X14405428Y7996643D01*
X14441714Y8105501D01*
X14441714Y8286929D01*
X14441714Y6454500D02*
X14078857Y6708500D01*
X14441714Y6889929D02*
X13679714Y6889929D01*
X13679714Y6599643D01*
X13716000Y6527072D01*
X13752285Y6490786D01*
X13824857Y6454500D01*
X13933714Y6454500D01*
X14006285Y6490786D01*
X14042571Y6527072D01*
X14078857Y6599643D01*
X14078857Y6889929D01*
X13679714Y6200500D02*
X14441714Y5692500D01*
X13679714Y5692500D02*
X14441714Y6200500D01*
X13679714Y4368072D02*
X13679714Y3932643D01*
X14441714Y4150358D02*
X13679714Y4150358D01*
X13679714Y3751215D02*
X14441714Y3243215D01*
X13679714Y3243215D02*
X14441714Y3751215D01*
X19153142Y8719501D02*
X19200761Y8767120D01*
X19248380Y8909977D01*
X19248380Y9005215D01*
X19200761Y9148072D01*
X19105523Y9243310D01*
X19010285Y9290929D01*
X18819809Y9338548D01*
X18676952Y9338548D01*
X18486476Y9290929D01*
X18391238Y9243310D01*
X18296000Y9148072D01*
X18248380Y9005215D01*
X18248380Y8909977D01*
X18296000Y8767120D01*
X18343619Y8719501D01*
X18248380Y8100453D02*
X18248380Y7909977D01*
X18296000Y7814739D01*
X18391238Y7719501D01*
X18581714Y7671882D01*
X18915047Y7671882D01*
X19105523Y7719501D01*
X19200761Y7814739D01*
X19248380Y7909977D01*
X19248380Y8100453D01*
X19200761Y8195691D01*
X19105523Y8290929D01*
X18915047Y8338548D01*
X18581714Y8338548D01*
X18391238Y8290929D01*
X18296000Y8195691D01*
X18248380Y8100453D01*
X19248380Y7243310D02*
X18248380Y7243310D01*
X19248380Y6671882D01*
X18248380Y6671882D01*
X19200761Y6243310D02*
X19248380Y6100453D01*
X19248380Y5862358D01*
X19200761Y5767120D01*
X19153142Y5719501D01*
X19057904Y5671882D01*
X18962666Y5671882D01*
X18867428Y5719501D01*
X18819809Y5767120D01*
X18772190Y5862358D01*
X18724571Y6052834D01*
X18676952Y6148072D01*
X18629333Y6195691D01*
X18534095Y6243310D01*
X18438857Y6243310D01*
X18343619Y6195691D01*
X18296000Y6148072D01*
X18248380Y6052834D01*
X18248380Y5814739D01*
X18296000Y5671882D01*
X18248380Y5052834D02*
X18248380Y4862358D01*
X18296000Y4767120D01*
X18391238Y4671882D01*
X18581714Y4624263D01*
X18915047Y4624263D01*
X19105523Y4671882D01*
X19200761Y4767120D01*
X19248380Y4862358D01*
X19248380Y5052834D01*
X19200761Y5148072D01*
X19105523Y5243310D01*
X18915047Y5290929D01*
X18581714Y5290929D01*
X18391238Y5243310D01*
X18296000Y5148072D01*
X18248380Y5052834D01*
X19248380Y3719501D02*
X19248380Y4195691D01*
X18248380Y4195691D01*
X18724571Y3386167D02*
X18724571Y3052834D01*
X19248380Y2909977D02*
X19248380Y3386167D01*
X18248380Y3386167D01*
X18248380Y2909977D01*
D11*
X60954047Y8129477D02*
X60668333Y8034239D01*
X60192142Y8034239D01*
X60001666Y8129477D01*
X59906428Y8224715D01*
X59811190Y8415191D01*
X59811190Y8605667D01*
X59906428Y8796143D01*
X60001666Y8891381D01*
X60192142Y8986620D01*
X60573095Y9081858D01*
X60763571Y9177096D01*
X60858809Y9272334D01*
X60954047Y9462810D01*
X60954047Y9653286D01*
X60858809Y9843762D01*
X60763571Y9939000D01*
X60573095Y10034239D01*
X60096904Y10034239D01*
X59811190Y9939000D01*
X59239761Y10034239D02*
X58096904Y10034239D01*
X58668333Y8034239D02*
X58668333Y10034239D01*
X57430238Y8034239D02*
X57430238Y10034239D01*
X56477857Y8034239D02*
X56477857Y10034239D01*
X55811190Y8605667D01*
X55144523Y10034239D01*
X55144523Y8034239D01*
X54192142Y10034239D02*
X54192142Y8415191D01*
X54096904Y8224715D01*
X54001666Y8129477D01*
X53811190Y8034239D01*
X53430238Y8034239D01*
X53239761Y8129477D01*
X53144523Y8224715D01*
X53049285Y8415191D01*
X53049285Y10034239D01*
X52096904Y8034239D02*
X52096904Y10034239D01*
X51620714Y10034239D01*
X51335000Y9939000D01*
X51144523Y9748524D01*
X51049285Y9558048D01*
X50954047Y9177096D01*
X50954047Y8891381D01*
X51049285Y8510429D01*
X51144523Y8319953D01*
X51335000Y8129477D01*
X51620714Y8034239D01*
X52096904Y8034239D01*
X47430238Y8034239D02*
X48096904Y8986620D01*
X48573095Y8034239D02*
X48573095Y10034239D01*
X47811190Y10034239D01*
X47620714Y9939000D01*
X47525476Y9843762D01*
X47430238Y9653286D01*
X47430238Y9367572D01*
X47525476Y9177096D01*
X47620714Y9081858D01*
X47811190Y8986620D01*
X48573095Y8986620D01*
X45811190Y8129477D02*
X46001666Y8034239D01*
X46382619Y8034239D01*
X46573095Y8129477D01*
X46668333Y8319953D01*
X46668333Y9081858D01*
X46573095Y9272334D01*
X46382619Y9367572D01*
X46001666Y9367572D01*
X45811190Y9272334D01*
X45715952Y9081858D01*
X45715952Y8891381D01*
X46668333Y8700905D01*
X45049285Y9367572D02*
X44573095Y8034239D01*
X44096904Y9367572D01*
X43335000Y8224715D02*
X43239761Y8129477D01*
X43335000Y8034239D01*
X43430238Y8129477D01*
X43335000Y8224715D01*
X43335000Y8034239D01*
X40192142Y9081858D02*
X39906428Y8986620D01*
X39811190Y8891381D01*
X39715952Y8700905D01*
X39715952Y8415191D01*
X39811190Y8224715D01*
X39906428Y8129477D01*
X40096904Y8034239D01*
X40858809Y8034239D01*
X40858809Y10034239D01*
X40192142Y10034239D01*
X40001666Y9939000D01*
X39906428Y9843762D01*
X39811190Y9653286D01*
X39811190Y9462810D01*
X39906428Y9272334D01*
X40001666Y9177096D01*
X40192142Y9081858D01*
X40858809Y9081858D01*
X60858809Y4634239D02*
X60858809Y6634239D01*
X60382619Y6634239D01*
X60096904Y6539000D01*
X59906428Y6348524D01*
X59811190Y6158048D01*
X59715952Y5777096D01*
X59715952Y5491381D01*
X59811190Y5110429D01*
X59906428Y4919953D01*
X60096904Y4729477D01*
X60382619Y4634239D01*
X60858809Y4634239D01*
X58001666Y4634239D02*
X58001666Y5681858D01*
X58096904Y5872334D01*
X58287380Y5967572D01*
X58668333Y5967572D01*
X58858809Y5872334D01*
X58001666Y4729477D02*
X58192142Y4634239D01*
X58668333Y4634239D01*
X58858809Y4729477D01*
X58954047Y4919953D01*
X58954047Y5110429D01*
X58858809Y5300905D01*
X58668333Y5396143D01*
X58192142Y5396143D01*
X58001666Y5491381D01*
X57049285Y5967572D02*
X57049285Y4634239D01*
X57049285Y5777096D02*
X56954047Y5872334D01*
X56763571Y5967572D01*
X56477857Y5967572D01*
X56287380Y5872334D01*
X56192142Y5681858D01*
X56192142Y4634239D01*
X55239761Y4634239D02*
X55239761Y5967572D01*
X55239761Y6634239D02*
X55335000Y6539000D01*
X55239761Y6443762D01*
X55144523Y6539000D01*
X55239761Y6634239D01*
X55239761Y6443762D01*
X53525476Y4729477D02*
X53715952Y4634239D01*
X54096904Y4634239D01*
X54287380Y4729477D01*
X54382619Y4919953D01*
X54382619Y5681858D01*
X54287380Y5872334D01*
X54096904Y5967572D01*
X53715952Y5967572D01*
X53525476Y5872334D01*
X53430238Y5681858D01*
X53430238Y5491381D01*
X54382619Y5300905D01*
X52287380Y4634239D02*
X52477857Y4729477D01*
X52573095Y4919953D01*
X52573095Y6634239D01*
X50096904Y4729477D02*
X49811190Y4634239D01*
X49335000Y4634239D01*
X49144523Y4729477D01*
X49049285Y4824715D01*
X48954047Y5015191D01*
X48954047Y5205667D01*
X49049285Y5396143D01*
X49144523Y5491381D01*
X49335000Y5586620D01*
X49715952Y5681858D01*
X49906428Y5777096D01*
X50001666Y5872334D01*
X50096904Y6062810D01*
X50096904Y6253286D01*
X50001666Y6443762D01*
X49906428Y6539000D01*
X49715952Y6634239D01*
X49239761Y6634239D01*
X48954047Y6539000D01*
X48382619Y5967572D02*
X47620714Y5967572D01*
X48096904Y6634239D02*
X48096904Y4919953D01*
X48001666Y4729477D01*
X47811190Y4634239D01*
X47620714Y4634239D01*
X46096904Y4634239D02*
X46096904Y5681858D01*
X46192142Y5872334D01*
X46382619Y5967572D01*
X46763571Y5967572D01*
X46954047Y5872334D01*
X46096904Y4729477D02*
X46287380Y4634239D01*
X46763571Y4634239D01*
X46954047Y4729477D01*
X47049285Y4919953D01*
X47049285Y5110429D01*
X46954047Y5300905D01*
X46763571Y5396143D01*
X46287380Y5396143D01*
X46096904Y5491381D01*
X45144523Y4634239D02*
X45144523Y5967572D01*
X45144523Y5586620D02*
X45049285Y5777096D01*
X44954047Y5872334D01*
X44763571Y5967572D01*
X44573095Y5967572D01*
X43906428Y4634239D02*
X43906428Y6634239D01*
X43715952Y5396143D02*
X43144523Y4634239D01*
X43144523Y5967572D02*
X43906428Y5205667D01*
X41525476Y4729477D02*
X41715952Y4634239D01*
X42096904Y4634239D01*
X42287380Y4729477D01*
X42382619Y4919953D01*
X42382619Y5681858D01*
X42287380Y5872334D01*
X42096904Y5967572D01*
X41715952Y5967572D01*
X41525476Y5872334D01*
X41430238Y5681858D01*
X41430238Y5491381D01*
X42382619Y5300905D01*
D12*
X0Y30480000D02*
X76862000Y30480000D01*
X0Y0D02*
X0Y30480000D01*
X76862000Y0D02*
X0Y0D01*
X76862000Y30480000D02*
X76862000Y0D01*
D13*
G36*
X38468000Y21958000D02*
G01*
X38468000Y21458000D01*
X37968000Y21458000D01*
X37968000Y21958000D01*
X38468000Y21958000D01*
G37*
G36*
X37968000Y21958000D02*
G01*
X37968000Y21458000D01*
X37468000Y21458000D01*
X37468000Y21958000D01*
X37968000Y21958000D01*
G37*
G36*
X37468000Y21958000D02*
G01*
X37468000Y21458000D01*
X36968000Y21458000D01*
X36968000Y21958000D01*
X37468000Y21958000D01*
G37*
G36*
X36968000Y21958000D02*
G01*
X36968000Y21458000D01*
X36468000Y21458000D01*
X36468000Y21958000D01*
X36968000Y21958000D01*
G37*
G36*
X36468000Y21958000D02*
G01*
X36468000Y21458000D01*
X35968000Y21458000D01*
X35968000Y21958000D01*
X36468000Y21958000D01*
G37*
G36*
X35968000Y21958000D02*
G01*
X35968000Y21458000D01*
X35468000Y21458000D01*
X35468000Y21958000D01*
X35968000Y21958000D01*
G37*
G36*
X35468000Y21958000D02*
G01*
X35468000Y21458000D01*
X34968000Y21458000D01*
X34968000Y21958000D01*
X35468000Y21958000D01*
G37*
G36*
X34968000Y21958000D02*
G01*
X34968000Y21458000D01*
X34468000Y21458000D01*
X34468000Y21958000D01*
X34968000Y21958000D01*
G37*
G36*
X34468000Y21958000D02*
G01*
X34468000Y21458000D01*
X33968000Y21458000D01*
X33968000Y21958000D01*
X34468000Y21958000D01*
G37*
G36*
X33968000Y21958000D02*
G01*
X33968000Y21458000D01*
X33468000Y21458000D01*
X33468000Y21958000D01*
X33968000Y21958000D01*
G37*
G36*
X33468000Y21958000D02*
G01*
X33468000Y21458000D01*
X32968000Y21458000D01*
X32968000Y21958000D01*
X33468000Y21958000D01*
G37*
G36*
X32968000Y21958000D02*
G01*
X32968000Y21458000D01*
X32468000Y21458000D01*
X32468000Y21958000D01*
X32968000Y21958000D01*
G37*
G36*
X32468000Y21958000D02*
G01*
X32468000Y21458000D01*
X31968000Y21458000D01*
X31968000Y21958000D01*
X32468000Y21958000D01*
G37*
G36*
X31968000Y21958000D02*
G01*
X31968000Y21458000D01*
X31468000Y21458000D01*
X31468000Y21958000D01*
X31968000Y21958000D01*
G37*
G36*
X31468000Y21958000D02*
G01*
X31468000Y21458000D01*
X30968000Y21458000D01*
X30968000Y21958000D01*
X31468000Y21958000D01*
G37*
G36*
X30968000Y21958000D02*
G01*
X30968000Y21458000D01*
X30468000Y21458000D01*
X30468000Y21958000D01*
X30968000Y21958000D01*
G37*
G36*
X30468000Y21958000D02*
G01*
X30468000Y21458000D01*
X29968000Y21458000D01*
X29968000Y21958000D01*
X30468000Y21958000D01*
G37*
G36*
X29968000Y21958000D02*
G01*
X29968000Y21458000D01*
X29468000Y21458000D01*
X29468000Y21958000D01*
X29968000Y21958000D01*
G37*
G36*
X29468000Y21958000D02*
G01*
X29468000Y21458000D01*
X28968000Y21458000D01*
X28968000Y21958000D01*
X29468000Y21958000D01*
G37*
G36*
X28968000Y21958000D02*
G01*
X28968000Y21458000D01*
X28468000Y21458000D01*
X28468000Y21958000D01*
X28968000Y21958000D01*
G37*
G36*
X28468000Y21958000D02*
G01*
X28468000Y21458000D01*
X27968000Y21458000D01*
X27968000Y21958000D01*
X28468000Y21958000D01*
G37*
G36*
X27968000Y21958000D02*
G01*
X27968000Y21458000D01*
X27468000Y21458000D01*
X27468000Y21958000D01*
X27968000Y21958000D01*
G37*
G36*
X27468000Y21958000D02*
G01*
X27468000Y21458000D01*
X26968000Y21458000D01*
X26968000Y21958000D01*
X27468000Y21958000D01*
G37*
G36*
X26968000Y21958000D02*
G01*
X26968000Y21458000D01*
X26468000Y21458000D01*
X26468000Y21958000D01*
X26968000Y21958000D01*
G37*
G36*
X26468000Y21958000D02*
G01*
X26468000Y21458000D01*
X25968000Y21458000D01*
X25968000Y21958000D01*
X26468000Y21958000D01*
G37*
G36*
X25968000Y21958000D02*
G01*
X25968000Y21458000D01*
X25468000Y21458000D01*
X25468000Y21958000D01*
X25968000Y21958000D01*
G37*
G36*
X25468000Y21958000D02*
G01*
X25468000Y21458000D01*
X24968000Y21458000D01*
X24968000Y21958000D01*
X25468000Y21958000D01*
G37*
G36*
X24968000Y21958000D02*
G01*
X24968000Y21458000D01*
X24468000Y21458000D01*
X24468000Y21958000D01*
X24968000Y21958000D01*
G37*
G36*
X24468000Y21958000D02*
G01*
X24468000Y21458000D01*
X23968000Y21458000D01*
X23968000Y21958000D01*
X24468000Y21958000D01*
G37*
G36*
X23968000Y21958000D02*
G01*
X23968000Y21458000D01*
X23468000Y21458000D01*
X23468000Y21958000D01*
X23968000Y21958000D01*
G37*
G36*
X23468000Y21958000D02*
G01*
X23468000Y21458000D01*
X22968000Y21458000D01*
X22968000Y21958000D01*
X23468000Y21958000D01*
G37*
G36*
X22968000Y21958000D02*
G01*
X22968000Y21458000D01*
X22468000Y21458000D01*
X22468000Y21958000D01*
X22968000Y21958000D01*
G37*
G36*
X22468000Y21958000D02*
G01*
X22468000Y21458000D01*
X21968000Y21458000D01*
X21968000Y21958000D01*
X22468000Y21958000D01*
G37*
G36*
X21968000Y21958000D02*
G01*
X21968000Y21458000D01*
X21468000Y21458000D01*
X21468000Y21958000D01*
X21968000Y21958000D01*
G37*
G36*
X21468000Y21958000D02*
G01*
X21468000Y21458000D01*
X20968000Y21458000D01*
X20968000Y21958000D01*
X21468000Y21958000D01*
G37*
G36*
X38468000Y21458000D02*
G01*
X38468000Y20958000D01*
X37968000Y20958000D01*
X37968000Y21458000D01*
X38468000Y21458000D01*
G37*
G36*
X37468000Y21458000D02*
G01*
X37468000Y20958000D01*
X36968000Y20958000D01*
X36968000Y21458000D01*
X37468000Y21458000D01*
G37*
G36*
X36968000Y21458000D02*
G01*
X36968000Y20958000D01*
X36468000Y20958000D01*
X36468000Y21458000D01*
X36968000Y21458000D01*
G37*
G36*
X36468000Y21458000D02*
G01*
X36468000Y20958000D01*
X35968000Y20958000D01*
X35968000Y21458000D01*
X36468000Y21458000D01*
G37*
G36*
X35968000Y21458000D02*
G01*
X35968000Y20958000D01*
X35468000Y20958000D01*
X35468000Y21458000D01*
X35968000Y21458000D01*
G37*
G36*
X35468000Y21458000D02*
G01*
X35468000Y20958000D01*
X34968000Y20958000D01*
X34968000Y21458000D01*
X35468000Y21458000D01*
G37*
G36*
X34468000Y21458000D02*
G01*
X34468000Y20958000D01*
X33968000Y20958000D01*
X33968000Y21458000D01*
X34468000Y21458000D01*
G37*
G36*
X33468000Y21458000D02*
G01*
X33468000Y20958000D01*
X32968000Y20958000D01*
X32968000Y21458000D01*
X33468000Y21458000D01*
G37*
G36*
X29968000Y21458000D02*
G01*
X29968000Y20958000D01*
X29468000Y20958000D01*
X29468000Y21458000D01*
X29968000Y21458000D01*
G37*
G36*
X29468000Y21458000D02*
G01*
X29468000Y20958000D01*
X28968000Y20958000D01*
X28968000Y21458000D01*
X29468000Y21458000D01*
G37*
G36*
X27468000Y21458000D02*
G01*
X27468000Y20958000D01*
X26968000Y20958000D01*
X26968000Y21458000D01*
X27468000Y21458000D01*
G37*
G36*
X26968000Y21458000D02*
G01*
X26968000Y20958000D01*
X26468000Y20958000D01*
X26468000Y21458000D01*
X26968000Y21458000D01*
G37*
G36*
X26468000Y21458000D02*
G01*
X26468000Y20958000D01*
X25968000Y20958000D01*
X25968000Y21458000D01*
X26468000Y21458000D01*
G37*
G36*
X25468000Y21458000D02*
G01*
X25468000Y20958000D01*
X24968000Y20958000D01*
X24968000Y21458000D01*
X25468000Y21458000D01*
G37*
G36*
X21468000Y21458000D02*
G01*
X21468000Y20958000D01*
X20968000Y20958000D01*
X20968000Y21458000D01*
X21468000Y21458000D01*
G37*
G36*
X38468000Y20958000D02*
G01*
X38468000Y20458000D01*
X37968000Y20458000D01*
X37968000Y20958000D01*
X38468000Y20958000D01*
G37*
G36*
X37968000Y20958000D02*
G01*
X37968000Y20458000D01*
X37468000Y20458000D01*
X37468000Y20958000D01*
X37968000Y20958000D01*
G37*
G36*
X37468000Y20958000D02*
G01*
X37468000Y20458000D01*
X36968000Y20458000D01*
X36968000Y20958000D01*
X37468000Y20958000D01*
G37*
G36*
X36968000Y20958000D02*
G01*
X36968000Y20458000D01*
X36468000Y20458000D01*
X36468000Y20958000D01*
X36968000Y20958000D01*
G37*
G36*
X36468000Y20958000D02*
G01*
X36468000Y20458000D01*
X35968000Y20458000D01*
X35968000Y20958000D01*
X36468000Y20958000D01*
G37*
G36*
X35968000Y20958000D02*
G01*
X35968000Y20458000D01*
X35468000Y20458000D01*
X35468000Y20958000D01*
X35968000Y20958000D01*
G37*
G36*
X35468000Y20958000D02*
G01*
X35468000Y20458000D01*
X34968000Y20458000D01*
X34968000Y20958000D01*
X35468000Y20958000D01*
G37*
G36*
X34968000Y20958000D02*
G01*
X34968000Y20458000D01*
X34468000Y20458000D01*
X34468000Y20958000D01*
X34968000Y20958000D01*
G37*
G36*
X34468000Y20958000D02*
G01*
X34468000Y20458000D01*
X33968000Y20458000D01*
X33968000Y20958000D01*
X34468000Y20958000D01*
G37*
G36*
X33968000Y20958000D02*
G01*
X33968000Y20458000D01*
X33468000Y20458000D01*
X33468000Y20958000D01*
X33968000Y20958000D01*
G37*
G36*
X33468000Y20958000D02*
G01*
X33468000Y20458000D01*
X32968000Y20458000D01*
X32968000Y20958000D01*
X33468000Y20958000D01*
G37*
G36*
X32968000Y20958000D02*
G01*
X32968000Y20458000D01*
X32468000Y20458000D01*
X32468000Y20958000D01*
X32968000Y20958000D01*
G37*
G36*
X31968000Y20958000D02*
G01*
X31968000Y20458000D01*
X31468000Y20458000D01*
X31468000Y20958000D01*
X31968000Y20958000D01*
G37*
G36*
X31468000Y20958000D02*
G01*
X31468000Y20458000D01*
X30968000Y20458000D01*
X30968000Y20958000D01*
X31468000Y20958000D01*
G37*
G36*
X30968000Y20958000D02*
G01*
X30968000Y20458000D01*
X30468000Y20458000D01*
X30468000Y20958000D01*
X30968000Y20958000D01*
G37*
G36*
X28468000Y20958000D02*
G01*
X28468000Y20458000D01*
X27968000Y20458000D01*
X27968000Y20958000D01*
X28468000Y20958000D01*
G37*
G36*
X27968000Y20958000D02*
G01*
X27968000Y20458000D01*
X27468000Y20458000D01*
X27468000Y20958000D01*
X27968000Y20958000D01*
G37*
G36*
X27468000Y20958000D02*
G01*
X27468000Y20458000D01*
X26968000Y20458000D01*
X26968000Y20958000D01*
X27468000Y20958000D01*
G37*
G36*
X25968000Y20958000D02*
G01*
X25968000Y20458000D01*
X25468000Y20458000D01*
X25468000Y20958000D01*
X25968000Y20958000D01*
G37*
G36*
X25468000Y20958000D02*
G01*
X25468000Y20458000D01*
X24968000Y20458000D01*
X24968000Y20958000D01*
X25468000Y20958000D01*
G37*
G36*
X24468000Y20958000D02*
G01*
X24468000Y20458000D01*
X23968000Y20458000D01*
X23968000Y20958000D01*
X24468000Y20958000D01*
G37*
G36*
X23968000Y20958000D02*
G01*
X23968000Y20458000D01*
X23468000Y20458000D01*
X23468000Y20958000D01*
X23968000Y20958000D01*
G37*
G36*
X23468000Y20958000D02*
G01*
X23468000Y20458000D01*
X22968000Y20458000D01*
X22968000Y20958000D01*
X23468000Y20958000D01*
G37*
G36*
X22968000Y20958000D02*
G01*
X22968000Y20458000D01*
X22468000Y20458000D01*
X22468000Y20958000D01*
X22968000Y20958000D01*
G37*
G36*
X22468000Y20958000D02*
G01*
X22468000Y20458000D01*
X21968000Y20458000D01*
X21968000Y20958000D01*
X22468000Y20958000D01*
G37*
G36*
X21468000Y20958000D02*
G01*
X21468000Y20458000D01*
X20968000Y20458000D01*
X20968000Y20958000D01*
X21468000Y20958000D01*
G37*
G36*
X38468000Y20458000D02*
G01*
X38468000Y19958000D01*
X37968000Y19958000D01*
X37968000Y20458000D01*
X38468000Y20458000D01*
G37*
G36*
X37968000Y20458000D02*
G01*
X37968000Y19958000D01*
X37468000Y19958000D01*
X37468000Y20458000D01*
X37968000Y20458000D01*
G37*
G36*
X37468000Y20458000D02*
G01*
X37468000Y19958000D01*
X36968000Y19958000D01*
X36968000Y20458000D01*
X37468000Y20458000D01*
G37*
G36*
X36968000Y20458000D02*
G01*
X36968000Y19958000D01*
X36468000Y19958000D01*
X36468000Y20458000D01*
X36968000Y20458000D01*
G37*
G36*
X36468000Y20458000D02*
G01*
X36468000Y19958000D01*
X35968000Y19958000D01*
X35968000Y20458000D01*
X36468000Y20458000D01*
G37*
G36*
X34468000Y20458000D02*
G01*
X34468000Y19958000D01*
X33968000Y19958000D01*
X33968000Y20458000D01*
X34468000Y20458000D01*
G37*
G36*
X32968000Y20458000D02*
G01*
X32968000Y19958000D01*
X32468000Y19958000D01*
X32468000Y20458000D01*
X32968000Y20458000D01*
G37*
G36*
X32468000Y20458000D02*
G01*
X32468000Y19958000D01*
X31968000Y19958000D01*
X31968000Y20458000D01*
X32468000Y20458000D01*
G37*
G36*
X31468000Y20458000D02*
G01*
X31468000Y19958000D01*
X30968000Y19958000D01*
X30968000Y20458000D01*
X31468000Y20458000D01*
G37*
G36*
X29968000Y20458000D02*
G01*
X29968000Y19958000D01*
X29468000Y19958000D01*
X29468000Y20458000D01*
X29968000Y20458000D01*
G37*
G36*
X28968000Y20458000D02*
G01*
X28968000Y19958000D01*
X28468000Y19958000D01*
X28468000Y20458000D01*
X28968000Y20458000D01*
G37*
G36*
X28468000Y20458000D02*
G01*
X28468000Y19958000D01*
X27968000Y19958000D01*
X27968000Y20458000D01*
X28468000Y20458000D01*
G37*
G36*
X27968000Y20458000D02*
G01*
X27968000Y19958000D01*
X27468000Y19958000D01*
X27468000Y20458000D01*
X27968000Y20458000D01*
G37*
G36*
X26468000Y20458000D02*
G01*
X26468000Y19958000D01*
X25968000Y19958000D01*
X25968000Y20458000D01*
X26468000Y20458000D01*
G37*
G36*
X25968000Y20458000D02*
G01*
X25968000Y19958000D01*
X25468000Y19958000D01*
X25468000Y20458000D01*
X25968000Y20458000D01*
G37*
G36*
X25468000Y20458000D02*
G01*
X25468000Y19958000D01*
X24968000Y19958000D01*
X24968000Y20458000D01*
X25468000Y20458000D01*
G37*
G36*
X24468000Y20458000D02*
G01*
X24468000Y19958000D01*
X23968000Y19958000D01*
X23968000Y20458000D01*
X24468000Y20458000D01*
G37*
G36*
X22468000Y20458000D02*
G01*
X22468000Y19958000D01*
X21968000Y19958000D01*
X21968000Y20458000D01*
X22468000Y20458000D01*
G37*
G36*
X21468000Y20458000D02*
G01*
X21468000Y19958000D01*
X20968000Y19958000D01*
X20968000Y20458000D01*
X21468000Y20458000D01*
G37*
G36*
X38468000Y19958000D02*
G01*
X38468000Y19458000D01*
X37968000Y19458000D01*
X37968000Y19958000D01*
X38468000Y19958000D01*
G37*
G36*
X37968000Y19958000D02*
G01*
X37968000Y19458000D01*
X37468000Y19458000D01*
X37468000Y19958000D01*
X37968000Y19958000D01*
G37*
G36*
X36968000Y19958000D02*
G01*
X36968000Y19458000D01*
X36468000Y19458000D01*
X36468000Y19958000D01*
X36968000Y19958000D01*
G37*
G36*
X36468000Y19958000D02*
G01*
X36468000Y19458000D01*
X35968000Y19458000D01*
X35968000Y19958000D01*
X36468000Y19958000D01*
G37*
G36*
X34468000Y19958000D02*
G01*
X34468000Y19458000D01*
X33968000Y19458000D01*
X33968000Y19958000D01*
X34468000Y19958000D01*
G37*
G36*
X32968000Y19958000D02*
G01*
X32968000Y19458000D01*
X32468000Y19458000D01*
X32468000Y19958000D01*
X32968000Y19958000D01*
G37*
G36*
X29968000Y19958000D02*
G01*
X29968000Y19458000D01*
X29468000Y19458000D01*
X29468000Y19958000D01*
X29968000Y19958000D01*
G37*
G36*
X29468000Y19958000D02*
G01*
X29468000Y19458000D01*
X28968000Y19458000D01*
X28968000Y19958000D01*
X29468000Y19958000D01*
G37*
G36*
X27968000Y19958000D02*
G01*
X27968000Y19458000D01*
X27468000Y19458000D01*
X27468000Y19958000D01*
X27968000Y19958000D01*
G37*
G36*
X27468000Y19958000D02*
G01*
X27468000Y19458000D01*
X26968000Y19458000D01*
X26968000Y19958000D01*
X27468000Y19958000D01*
G37*
G36*
X26468000Y19958000D02*
G01*
X26468000Y19458000D01*
X25968000Y19458000D01*
X25968000Y19958000D01*
X26468000Y19958000D01*
G37*
G36*
X25968000Y19958000D02*
G01*
X25968000Y19458000D01*
X25468000Y19458000D01*
X25468000Y19958000D01*
X25968000Y19958000D01*
G37*
G36*
X25468000Y19958000D02*
G01*
X25468000Y19458000D01*
X24968000Y19458000D01*
X24968000Y19958000D01*
X25468000Y19958000D01*
G37*
G36*
X24468000Y19958000D02*
G01*
X24468000Y19458000D01*
X23968000Y19458000D01*
X23968000Y19958000D01*
X24468000Y19958000D01*
G37*
G36*
X22468000Y19958000D02*
G01*
X22468000Y19458000D01*
X21968000Y19458000D01*
X21968000Y19958000D01*
X22468000Y19958000D01*
G37*
G36*
X21468000Y19958000D02*
G01*
X21468000Y19458000D01*
X20968000Y19458000D01*
X20968000Y19958000D01*
X21468000Y19958000D01*
G37*
G36*
X38468000Y19458000D02*
G01*
X38468000Y18958000D01*
X37968000Y18958000D01*
X37968000Y19458000D01*
X38468000Y19458000D01*
G37*
G36*
X37968000Y19458000D02*
G01*
X37968000Y18958000D01*
X37468000Y18958000D01*
X37468000Y19458000D01*
X37968000Y19458000D01*
G37*
G36*
X36968000Y19458000D02*
G01*
X36968000Y18958000D01*
X36468000Y18958000D01*
X36468000Y19458000D01*
X36968000Y19458000D01*
G37*
G36*
X33468000Y19458000D02*
G01*
X33468000Y18958000D01*
X32968000Y18958000D01*
X32968000Y19458000D01*
X33468000Y19458000D01*
G37*
G36*
X32468000Y19458000D02*
G01*
X32468000Y18958000D01*
X31968000Y18958000D01*
X31968000Y19458000D01*
X32468000Y19458000D01*
G37*
G36*
X31968000Y19458000D02*
G01*
X31968000Y18958000D01*
X31468000Y18958000D01*
X31468000Y19458000D01*
X31968000Y19458000D01*
G37*
G36*
X31468000Y19458000D02*
G01*
X31468000Y18958000D01*
X30968000Y18958000D01*
X30968000Y19458000D01*
X31468000Y19458000D01*
G37*
G36*
X30968000Y19458000D02*
G01*
X30968000Y18958000D01*
X30468000Y18958000D01*
X30468000Y19458000D01*
X30968000Y19458000D01*
G37*
G36*
X30468000Y19458000D02*
G01*
X30468000Y18958000D01*
X29968000Y18958000D01*
X29968000Y19458000D01*
X30468000Y19458000D01*
G37*
G36*
X27468000Y19458000D02*
G01*
X27468000Y18958000D01*
X26968000Y18958000D01*
X26968000Y19458000D01*
X27468000Y19458000D01*
G37*
G36*
X25468000Y19458000D02*
G01*
X25468000Y18958000D01*
X24968000Y18958000D01*
X24968000Y19458000D01*
X25468000Y19458000D01*
G37*
G36*
X24468000Y19458000D02*
G01*
X24468000Y18958000D01*
X23968000Y18958000D01*
X23968000Y19458000D01*
X24468000Y19458000D01*
G37*
G36*
X22468000Y19458000D02*
G01*
X22468000Y18958000D01*
X21968000Y18958000D01*
X21968000Y19458000D01*
X22468000Y19458000D01*
G37*
G36*
X21468000Y19458000D02*
G01*
X21468000Y18958000D01*
X20968000Y18958000D01*
X20968000Y19458000D01*
X21468000Y19458000D01*
G37*
G36*
X38468000Y18958000D02*
G01*
X38468000Y18458000D01*
X37968000Y18458000D01*
X37968000Y18958000D01*
X38468000Y18958000D01*
G37*
G36*
X36968000Y18958000D02*
G01*
X36968000Y18458000D01*
X36468000Y18458000D01*
X36468000Y18958000D01*
X36968000Y18958000D01*
G37*
G36*
X36468000Y18958000D02*
G01*
X36468000Y18458000D01*
X35968000Y18458000D01*
X35968000Y18958000D01*
X36468000Y18958000D01*
G37*
G36*
X35468000Y18958000D02*
G01*
X35468000Y18458000D01*
X34968000Y18458000D01*
X34968000Y18958000D01*
X35468000Y18958000D01*
G37*
G36*
X34968000Y18958000D02*
G01*
X34968000Y18458000D01*
X34468000Y18458000D01*
X34468000Y18958000D01*
X34968000Y18958000D01*
G37*
G36*
X34468000Y18958000D02*
G01*
X34468000Y18458000D01*
X33968000Y18458000D01*
X33968000Y18958000D01*
X34468000Y18958000D01*
G37*
G36*
X33468000Y18958000D02*
G01*
X33468000Y18458000D01*
X32968000Y18458000D01*
X32968000Y18958000D01*
X33468000Y18958000D01*
G37*
G36*
X32468000Y18958000D02*
G01*
X32468000Y18458000D01*
X31968000Y18458000D01*
X31968000Y18958000D01*
X32468000Y18958000D01*
G37*
G36*
X31468000Y18958000D02*
G01*
X31468000Y18458000D01*
X30968000Y18458000D01*
X30968000Y18958000D01*
X31468000Y18958000D01*
G37*
G36*
X30968000Y18958000D02*
G01*
X30968000Y18458000D01*
X30468000Y18458000D01*
X30468000Y18958000D01*
X30968000Y18958000D01*
G37*
G36*
X30468000Y18958000D02*
G01*
X30468000Y18458000D01*
X29968000Y18458000D01*
X29968000Y18958000D01*
X30468000Y18958000D01*
G37*
G36*
X29968000Y18958000D02*
G01*
X29968000Y18458000D01*
X29468000Y18458000D01*
X29468000Y18958000D01*
X29968000Y18958000D01*
G37*
G36*
X27468000Y18958000D02*
G01*
X27468000Y18458000D01*
X26968000Y18458000D01*
X26968000Y18958000D01*
X27468000Y18958000D01*
G37*
G36*
X25968000Y18958000D02*
G01*
X25968000Y18458000D01*
X25468000Y18458000D01*
X25468000Y18958000D01*
X25968000Y18958000D01*
G37*
G36*
X25468000Y18958000D02*
G01*
X25468000Y18458000D01*
X24968000Y18458000D01*
X24968000Y18958000D01*
X25468000Y18958000D01*
G37*
G36*
X24468000Y18958000D02*
G01*
X24468000Y18458000D01*
X23968000Y18458000D01*
X23968000Y18958000D01*
X24468000Y18958000D01*
G37*
G36*
X23968000Y18958000D02*
G01*
X23968000Y18458000D01*
X23468000Y18458000D01*
X23468000Y18958000D01*
X23968000Y18958000D01*
G37*
G36*
X23468000Y18958000D02*
G01*
X23468000Y18458000D01*
X22968000Y18458000D01*
X22968000Y18958000D01*
X23468000Y18958000D01*
G37*
G36*
X22968000Y18958000D02*
G01*
X22968000Y18458000D01*
X22468000Y18458000D01*
X22468000Y18958000D01*
X22968000Y18958000D01*
G37*
G36*
X22468000Y18958000D02*
G01*
X22468000Y18458000D01*
X21968000Y18458000D01*
X21968000Y18958000D01*
X22468000Y18958000D01*
G37*
G36*
X21468000Y18958000D02*
G01*
X21468000Y18458000D01*
X20968000Y18458000D01*
X20968000Y18958000D01*
X21468000Y18958000D01*
G37*
G36*
X38468000Y18458000D02*
G01*
X38468000Y17958000D01*
X37968000Y17958000D01*
X37968000Y18458000D01*
X38468000Y18458000D01*
G37*
G36*
X37968000Y18458000D02*
G01*
X37968000Y17958000D01*
X37468000Y17958000D01*
X37468000Y18458000D01*
X37968000Y18458000D01*
G37*
G36*
X36968000Y18458000D02*
G01*
X36968000Y17958000D01*
X36468000Y17958000D01*
X36468000Y18458000D01*
X36968000Y18458000D01*
G37*
G36*
X35468000Y18458000D02*
G01*
X35468000Y17958000D01*
X34968000Y17958000D01*
X34968000Y18458000D01*
X35468000Y18458000D01*
G37*
G36*
X34468000Y18458000D02*
G01*
X34468000Y17958000D01*
X33968000Y17958000D01*
X33968000Y18458000D01*
X34468000Y18458000D01*
G37*
G36*
X33468000Y18458000D02*
G01*
X33468000Y17958000D01*
X32968000Y17958000D01*
X32968000Y18458000D01*
X33468000Y18458000D01*
G37*
G36*
X32968000Y18458000D02*
G01*
X32968000Y17958000D01*
X32468000Y17958000D01*
X32468000Y18458000D01*
X32968000Y18458000D01*
G37*
G36*
X32468000Y18458000D02*
G01*
X32468000Y17958000D01*
X31968000Y17958000D01*
X31968000Y18458000D01*
X32468000Y18458000D01*
G37*
G36*
X31468000Y18458000D02*
G01*
X31468000Y17958000D01*
X30968000Y17958000D01*
X30968000Y18458000D01*
X31468000Y18458000D01*
G37*
G36*
X30468000Y18458000D02*
G01*
X30468000Y17958000D01*
X29968000Y17958000D01*
X29968000Y18458000D01*
X30468000Y18458000D01*
G37*
G36*
X29968000Y18458000D02*
G01*
X29968000Y17958000D01*
X29468000Y17958000D01*
X29468000Y18458000D01*
X29968000Y18458000D01*
G37*
G36*
X27968000Y18458000D02*
G01*
X27968000Y17958000D01*
X27468000Y17958000D01*
X27468000Y18458000D01*
X27968000Y18458000D01*
G37*
G36*
X26968000Y18458000D02*
G01*
X26968000Y17958000D01*
X26468000Y17958000D01*
X26468000Y18458000D01*
X26968000Y18458000D01*
G37*
G36*
X25468000Y18458000D02*
G01*
X25468000Y17958000D01*
X24968000Y17958000D01*
X24968000Y18458000D01*
X25468000Y18458000D01*
G37*
G36*
X21468000Y18458000D02*
G01*
X21468000Y17958000D01*
X20968000Y17958000D01*
X20968000Y18458000D01*
X21468000Y18458000D01*
G37*
G36*
X38468000Y17958000D02*
G01*
X38468000Y17458000D01*
X37968000Y17458000D01*
X37968000Y17958000D01*
X38468000Y17958000D01*
G37*
G36*
X37968000Y17958000D02*
G01*
X37968000Y17458000D01*
X37468000Y17458000D01*
X37468000Y17958000D01*
X37968000Y17958000D01*
G37*
G36*
X36468000Y17958000D02*
G01*
X36468000Y17458000D01*
X35968000Y17458000D01*
X35968000Y17958000D01*
X36468000Y17958000D01*
G37*
G36*
X35468000Y17958000D02*
G01*
X35468000Y17458000D01*
X34968000Y17458000D01*
X34968000Y17958000D01*
X35468000Y17958000D01*
G37*
G36*
X34968000Y17958000D02*
G01*
X34968000Y17458000D01*
X34468000Y17458000D01*
X34468000Y17958000D01*
X34968000Y17958000D01*
G37*
G36*
X34468000Y17958000D02*
G01*
X34468000Y17458000D01*
X33968000Y17458000D01*
X33968000Y17958000D01*
X34468000Y17958000D01*
G37*
G36*
X32968000Y17958000D02*
G01*
X32968000Y17458000D01*
X32468000Y17458000D01*
X32468000Y17958000D01*
X32968000Y17958000D01*
G37*
G36*
X31468000Y17958000D02*
G01*
X31468000Y17458000D01*
X30968000Y17458000D01*
X30968000Y17958000D01*
X31468000Y17958000D01*
G37*
G36*
X25468000Y17958000D02*
G01*
X25468000Y17458000D01*
X24968000Y17458000D01*
X24968000Y17958000D01*
X25468000Y17958000D01*
G37*
G36*
X24968000Y17958000D02*
G01*
X24968000Y17458000D01*
X24468000Y17458000D01*
X24468000Y17958000D01*
X24968000Y17958000D01*
G37*
G36*
X24468000Y17958000D02*
G01*
X24468000Y17458000D01*
X23968000Y17458000D01*
X23968000Y17958000D01*
X24468000Y17958000D01*
G37*
G36*
X23968000Y17958000D02*
G01*
X23968000Y17458000D01*
X23468000Y17458000D01*
X23468000Y17958000D01*
X23968000Y17958000D01*
G37*
G36*
X23468000Y17958000D02*
G01*
X23468000Y17458000D01*
X22968000Y17458000D01*
X22968000Y17958000D01*
X23468000Y17958000D01*
G37*
G36*
X22968000Y17958000D02*
G01*
X22968000Y17458000D01*
X22468000Y17458000D01*
X22468000Y17958000D01*
X22968000Y17958000D01*
G37*
G36*
X22468000Y17958000D02*
G01*
X22468000Y17458000D01*
X21968000Y17458000D01*
X21968000Y17958000D01*
X22468000Y17958000D01*
G37*
G36*
X21968000Y17958000D02*
G01*
X21968000Y17458000D01*
X21468000Y17458000D01*
X21468000Y17958000D01*
X21968000Y17958000D01*
G37*
G36*
X21468000Y17958000D02*
G01*
X21468000Y17458000D01*
X20968000Y17458000D01*
X20968000Y17958000D01*
X21468000Y17958000D01*
G37*
G36*
X38468000Y17458000D02*
G01*
X38468000Y16958000D01*
X37968000Y16958000D01*
X37968000Y17458000D01*
X38468000Y17458000D01*
G37*
G36*
X37468000Y17458000D02*
G01*
X37468000Y16958000D01*
X36968000Y16958000D01*
X36968000Y17458000D01*
X37468000Y17458000D01*
G37*
G36*
X36968000Y17458000D02*
G01*
X36968000Y16958000D01*
X36468000Y16958000D01*
X36468000Y17458000D01*
X36968000Y17458000D01*
G37*
G36*
X36468000Y17458000D02*
G01*
X36468000Y16958000D01*
X35968000Y16958000D01*
X35968000Y17458000D01*
X36468000Y17458000D01*
G37*
G36*
X31468000Y17458000D02*
G01*
X31468000Y16958000D01*
X30968000Y16958000D01*
X30968000Y17458000D01*
X31468000Y17458000D01*
G37*
G36*
X30968000Y17458000D02*
G01*
X30968000Y16958000D01*
X30468000Y16958000D01*
X30468000Y17458000D01*
X30968000Y17458000D01*
G37*
G36*
X26468000Y17458000D02*
G01*
X26468000Y16958000D01*
X25968000Y16958000D01*
X25968000Y17458000D01*
X26468000Y17458000D01*
G37*
G36*
X25968000Y17458000D02*
G01*
X25968000Y16958000D01*
X25468000Y16958000D01*
X25468000Y17458000D01*
X25968000Y17458000D01*
G37*
G36*
X23968000Y17458000D02*
G01*
X23968000Y16958000D01*
X23468000Y16958000D01*
X23468000Y17458000D01*
X23968000Y17458000D01*
G37*
G36*
X23468000Y17458000D02*
G01*
X23468000Y16958000D01*
X22968000Y16958000D01*
X22968000Y17458000D01*
X23468000Y17458000D01*
G37*
G36*
X21468000Y17458000D02*
G01*
X21468000Y16958000D01*
X20968000Y16958000D01*
X20968000Y17458000D01*
X21468000Y17458000D01*
G37*
G36*
X38468000Y16958000D02*
G01*
X38468000Y16458000D01*
X37968000Y16458000D01*
X37968000Y16958000D01*
X38468000Y16958000D01*
G37*
G36*
X36968000Y16958000D02*
G01*
X36968000Y16458000D01*
X36468000Y16458000D01*
X36468000Y16958000D01*
X36968000Y16958000D01*
G37*
G36*
X36468000Y16958000D02*
G01*
X36468000Y16458000D01*
X35968000Y16458000D01*
X35968000Y16958000D01*
X36468000Y16958000D01*
G37*
G36*
X35968000Y16958000D02*
G01*
X35968000Y16458000D01*
X35468000Y16458000D01*
X35468000Y16958000D01*
X35968000Y16958000D01*
G37*
G36*
X35468000Y16958000D02*
G01*
X35468000Y16458000D01*
X34968000Y16458000D01*
X34968000Y16958000D01*
X35468000Y16958000D01*
G37*
G36*
X33468000Y16958000D02*
G01*
X33468000Y16458000D01*
X32968000Y16458000D01*
X32968000Y16958000D01*
X33468000Y16958000D01*
G37*
G36*
X32968000Y16958000D02*
G01*
X32968000Y16458000D01*
X32468000Y16458000D01*
X32468000Y16958000D01*
X32968000Y16958000D01*
G37*
G36*
X29968000Y16958000D02*
G01*
X29968000Y16458000D01*
X29468000Y16458000D01*
X29468000Y16958000D01*
X29968000Y16958000D01*
G37*
G36*
X29468000Y16958000D02*
G01*
X29468000Y16458000D01*
X28968000Y16458000D01*
X28968000Y16958000D01*
X29468000Y16958000D01*
G37*
G36*
X28968000Y16958000D02*
G01*
X28968000Y16458000D01*
X28468000Y16458000D01*
X28468000Y16958000D01*
X28968000Y16958000D01*
G37*
G36*
X28468000Y16958000D02*
G01*
X28468000Y16458000D01*
X27968000Y16458000D01*
X27968000Y16958000D01*
X28468000Y16958000D01*
G37*
G36*
X27468000Y16958000D02*
G01*
X27468000Y16458000D01*
X26968000Y16458000D01*
X26968000Y16958000D01*
X27468000Y16958000D01*
G37*
G36*
X25968000Y16958000D02*
G01*
X25968000Y16458000D01*
X25468000Y16458000D01*
X25468000Y16958000D01*
X25968000Y16958000D01*
G37*
G36*
X24968000Y16958000D02*
G01*
X24968000Y16458000D01*
X24468000Y16458000D01*
X24468000Y16958000D01*
X24968000Y16958000D01*
G37*
G36*
X24468000Y16958000D02*
G01*
X24468000Y16458000D01*
X23968000Y16458000D01*
X23968000Y16958000D01*
X24468000Y16958000D01*
G37*
G36*
X22468000Y16958000D02*
G01*
X22468000Y16458000D01*
X21968000Y16458000D01*
X21968000Y16958000D01*
X22468000Y16958000D01*
G37*
G36*
X21968000Y16958000D02*
G01*
X21968000Y16458000D01*
X21468000Y16458000D01*
X21468000Y16958000D01*
X21968000Y16958000D01*
G37*
G36*
X21468000Y16958000D02*
G01*
X21468000Y16458000D01*
X20968000Y16458000D01*
X20968000Y16958000D01*
X21468000Y16958000D01*
G37*
G36*
X38468000Y16458000D02*
G01*
X38468000Y15958000D01*
X37968000Y15958000D01*
X37968000Y16458000D01*
X38468000Y16458000D01*
G37*
G36*
X37968000Y16458000D02*
G01*
X37968000Y15958000D01*
X37468000Y15958000D01*
X37468000Y16458000D01*
X37968000Y16458000D01*
G37*
G36*
X36968000Y16458000D02*
G01*
X36968000Y15958000D01*
X36468000Y15958000D01*
X36468000Y16458000D01*
X36968000Y16458000D01*
G37*
G36*
X35468000Y16458000D02*
G01*
X35468000Y15958000D01*
X34968000Y15958000D01*
X34968000Y16458000D01*
X35468000Y16458000D01*
G37*
G36*
X34968000Y16458000D02*
G01*
X34968000Y15958000D01*
X34468000Y15958000D01*
X34468000Y16458000D01*
X34968000Y16458000D01*
G37*
G36*
X33968000Y16458000D02*
G01*
X33968000Y15958000D01*
X33468000Y15958000D01*
X33468000Y16458000D01*
X33968000Y16458000D01*
G37*
G36*
X33468000Y16458000D02*
G01*
X33468000Y15958000D01*
X32968000Y15958000D01*
X32968000Y16458000D01*
X33468000Y16458000D01*
G37*
G36*
X32468000Y16458000D02*
G01*
X32468000Y15958000D01*
X31968000Y15958000D01*
X31968000Y16458000D01*
X32468000Y16458000D01*
G37*
G36*
X31968000Y16458000D02*
G01*
X31968000Y15958000D01*
X31468000Y15958000D01*
X31468000Y16458000D01*
X31968000Y16458000D01*
G37*
G36*
X29468000Y16458000D02*
G01*
X29468000Y15958000D01*
X28968000Y15958000D01*
X28968000Y16458000D01*
X29468000Y16458000D01*
G37*
G36*
X28468000Y16458000D02*
G01*
X28468000Y15958000D01*
X27968000Y15958000D01*
X27968000Y16458000D01*
X28468000Y16458000D01*
G37*
G36*
X27968000Y16458000D02*
G01*
X27968000Y15958000D01*
X27468000Y15958000D01*
X27468000Y16458000D01*
X27968000Y16458000D01*
G37*
G36*
X27468000Y16458000D02*
G01*
X27468000Y15958000D01*
X26968000Y15958000D01*
X26968000Y16458000D01*
X27468000Y16458000D01*
G37*
G36*
X26968000Y16458000D02*
G01*
X26968000Y15958000D01*
X26468000Y15958000D01*
X26468000Y16458000D01*
X26968000Y16458000D01*
G37*
G36*
X24468000Y16458000D02*
G01*
X24468000Y15958000D01*
X23968000Y15958000D01*
X23968000Y16458000D01*
X24468000Y16458000D01*
G37*
G36*
X23968000Y16458000D02*
G01*
X23968000Y15958000D01*
X23468000Y15958000D01*
X23468000Y16458000D01*
X23968000Y16458000D01*
G37*
G36*
X22468000Y16458000D02*
G01*
X22468000Y15958000D01*
X21968000Y15958000D01*
X21968000Y16458000D01*
X22468000Y16458000D01*
G37*
G36*
X21968000Y16458000D02*
G01*
X21968000Y15958000D01*
X21468000Y15958000D01*
X21468000Y16458000D01*
X21968000Y16458000D01*
G37*
G36*
X21468000Y16458000D02*
G01*
X21468000Y15958000D01*
X20968000Y15958000D01*
X20968000Y16458000D01*
X21468000Y16458000D01*
G37*
G36*
X38468000Y15958000D02*
G01*
X38468000Y15458000D01*
X37968000Y15458000D01*
X37968000Y15958000D01*
X38468000Y15958000D01*
G37*
G36*
X37968000Y15958000D02*
G01*
X37968000Y15458000D01*
X37468000Y15458000D01*
X37468000Y15958000D01*
X37968000Y15958000D01*
G37*
G36*
X35968000Y15958000D02*
G01*
X35968000Y15458000D01*
X35468000Y15458000D01*
X35468000Y15958000D01*
X35968000Y15958000D01*
G37*
G36*
X33968000Y15958000D02*
G01*
X33968000Y15458000D01*
X33468000Y15458000D01*
X33468000Y15958000D01*
X33968000Y15958000D01*
G37*
G36*
X33468000Y15958000D02*
G01*
X33468000Y15458000D01*
X32968000Y15458000D01*
X32968000Y15958000D01*
X33468000Y15958000D01*
G37*
G36*
X32468000Y15958000D02*
G01*
X32468000Y15458000D01*
X31968000Y15458000D01*
X31968000Y15958000D01*
X32468000Y15958000D01*
G37*
G36*
X31968000Y15958000D02*
G01*
X31968000Y15458000D01*
X31468000Y15458000D01*
X31468000Y15958000D01*
X31968000Y15958000D01*
G37*
G36*
X30968000Y15958000D02*
G01*
X30968000Y15458000D01*
X30468000Y15458000D01*
X30468000Y15958000D01*
X30968000Y15958000D01*
G37*
G36*
X30468000Y15958000D02*
G01*
X30468000Y15458000D01*
X29968000Y15458000D01*
X29968000Y15958000D01*
X30468000Y15958000D01*
G37*
G36*
X29468000Y15958000D02*
G01*
X29468000Y15458000D01*
X28968000Y15458000D01*
X28968000Y15958000D01*
X29468000Y15958000D01*
G37*
G36*
X28468000Y15958000D02*
G01*
X28468000Y15458000D01*
X27968000Y15458000D01*
X27968000Y15958000D01*
X28468000Y15958000D01*
G37*
G36*
X26968000Y15958000D02*
G01*
X26968000Y15458000D01*
X26468000Y15458000D01*
X26468000Y15958000D01*
X26968000Y15958000D01*
G37*
G36*
X26468000Y15958000D02*
G01*
X26468000Y15458000D01*
X25968000Y15458000D01*
X25968000Y15958000D01*
X26468000Y15958000D01*
G37*
G36*
X25968000Y15958000D02*
G01*
X25968000Y15458000D01*
X25468000Y15458000D01*
X25468000Y15958000D01*
X25968000Y15958000D01*
G37*
G36*
X24968000Y15958000D02*
G01*
X24968000Y15458000D01*
X24468000Y15458000D01*
X24468000Y15958000D01*
X24968000Y15958000D01*
G37*
G36*
X24468000Y15958000D02*
G01*
X24468000Y15458000D01*
X23968000Y15458000D01*
X23968000Y15958000D01*
X24468000Y15958000D01*
G37*
G36*
X23968000Y15958000D02*
G01*
X23968000Y15458000D01*
X23468000Y15458000D01*
X23468000Y15958000D01*
X23968000Y15958000D01*
G37*
G36*
X22968000Y15958000D02*
G01*
X22968000Y15458000D01*
X22468000Y15458000D01*
X22468000Y15958000D01*
X22968000Y15958000D01*
G37*
G36*
X22468000Y15958000D02*
G01*
X22468000Y15458000D01*
X21968000Y15458000D01*
X21968000Y15958000D01*
X22468000Y15958000D01*
G37*
G36*
X21468000Y15958000D02*
G01*
X21468000Y15458000D01*
X20968000Y15458000D01*
X20968000Y15958000D01*
X21468000Y15958000D01*
G37*
G36*
X38468000Y15458000D02*
G01*
X38468000Y14958000D01*
X37968000Y14958000D01*
X37968000Y15458000D01*
X38468000Y15458000D01*
G37*
G36*
X37468000Y15458000D02*
G01*
X37468000Y14958000D01*
X36968000Y14958000D01*
X36968000Y15458000D01*
X37468000Y15458000D01*
G37*
G36*
X36968000Y15458000D02*
G01*
X36968000Y14958000D01*
X36468000Y14958000D01*
X36468000Y15458000D01*
X36968000Y15458000D01*
G37*
G36*
X34968000Y15458000D02*
G01*
X34968000Y14958000D01*
X34468000Y14958000D01*
X34468000Y15458000D01*
X34968000Y15458000D01*
G37*
G36*
X34468000Y15458000D02*
G01*
X34468000Y14958000D01*
X33968000Y14958000D01*
X33968000Y15458000D01*
X34468000Y15458000D01*
G37*
G36*
X33468000Y15458000D02*
G01*
X33468000Y14958000D01*
X32968000Y14958000D01*
X32968000Y15458000D01*
X33468000Y15458000D01*
G37*
G36*
X32968000Y15458000D02*
G01*
X32968000Y14958000D01*
X32468000Y14958000D01*
X32468000Y15458000D01*
X32968000Y15458000D01*
G37*
G36*
X32468000Y15458000D02*
G01*
X32468000Y14958000D01*
X31968000Y14958000D01*
X31968000Y15458000D01*
X32468000Y15458000D01*
G37*
G36*
X31468000Y15458000D02*
G01*
X31468000Y14958000D01*
X30968000Y14958000D01*
X30968000Y15458000D01*
X31468000Y15458000D01*
G37*
G36*
X30468000Y15458000D02*
G01*
X30468000Y14958000D01*
X29968000Y14958000D01*
X29968000Y15458000D01*
X30468000Y15458000D01*
G37*
G36*
X29968000Y15458000D02*
G01*
X29968000Y14958000D01*
X29468000Y14958000D01*
X29468000Y15458000D01*
X29968000Y15458000D01*
G37*
G36*
X29468000Y15458000D02*
G01*
X29468000Y14958000D01*
X28968000Y14958000D01*
X28968000Y15458000D01*
X29468000Y15458000D01*
G37*
G36*
X26968000Y15458000D02*
G01*
X26968000Y14958000D01*
X26468000Y14958000D01*
X26468000Y15458000D01*
X26968000Y15458000D01*
G37*
G36*
X26468000Y15458000D02*
G01*
X26468000Y14958000D01*
X25968000Y14958000D01*
X25968000Y15458000D01*
X26468000Y15458000D01*
G37*
G36*
X25468000Y15458000D02*
G01*
X25468000Y14958000D01*
X24968000Y14958000D01*
X24968000Y15458000D01*
X25468000Y15458000D01*
G37*
G36*
X22468000Y15458000D02*
G01*
X22468000Y14958000D01*
X21968000Y14958000D01*
X21968000Y15458000D01*
X22468000Y15458000D01*
G37*
G36*
X21968000Y15458000D02*
G01*
X21968000Y14958000D01*
X21468000Y14958000D01*
X21468000Y15458000D01*
X21968000Y15458000D01*
G37*
G36*
X21468000Y15458000D02*
G01*
X21468000Y14958000D01*
X20968000Y14958000D01*
X20968000Y15458000D01*
X21468000Y15458000D01*
G37*
G36*
X38468000Y14958000D02*
G01*
X38468000Y14458000D01*
X37968000Y14458000D01*
X37968000Y14958000D01*
X38468000Y14958000D01*
G37*
G36*
X37968000Y14958000D02*
G01*
X37968000Y14458000D01*
X37468000Y14458000D01*
X37468000Y14958000D01*
X37968000Y14958000D01*
G37*
G36*
X36968000Y14958000D02*
G01*
X36968000Y14458000D01*
X36468000Y14458000D01*
X36468000Y14958000D01*
X36968000Y14958000D01*
G37*
G36*
X36468000Y14958000D02*
G01*
X36468000Y14458000D01*
X35968000Y14458000D01*
X35968000Y14958000D01*
X36468000Y14958000D01*
G37*
G36*
X35968000Y14958000D02*
G01*
X35968000Y14458000D01*
X35468000Y14458000D01*
X35468000Y14958000D01*
X35968000Y14958000D01*
G37*
G36*
X34468000Y14958000D02*
G01*
X34468000Y14458000D01*
X33968000Y14458000D01*
X33968000Y14958000D01*
X34468000Y14958000D01*
G37*
G36*
X32968000Y14958000D02*
G01*
X32968000Y14458000D01*
X32468000Y14458000D01*
X32468000Y14958000D01*
X32968000Y14958000D01*
G37*
G36*
X29468000Y14958000D02*
G01*
X29468000Y14458000D01*
X28968000Y14458000D01*
X28968000Y14958000D01*
X29468000Y14958000D01*
G37*
G36*
X28468000Y14958000D02*
G01*
X28468000Y14458000D01*
X27968000Y14458000D01*
X27968000Y14958000D01*
X28468000Y14958000D01*
G37*
G36*
X27968000Y14958000D02*
G01*
X27968000Y14458000D01*
X27468000Y14458000D01*
X27468000Y14958000D01*
X27968000Y14958000D01*
G37*
G36*
X27468000Y14958000D02*
G01*
X27468000Y14458000D01*
X26968000Y14458000D01*
X26968000Y14958000D01*
X27468000Y14958000D01*
G37*
G36*
X26468000Y14958000D02*
G01*
X26468000Y14458000D01*
X25968000Y14458000D01*
X25968000Y14958000D01*
X26468000Y14958000D01*
G37*
G36*
X25968000Y14958000D02*
G01*
X25968000Y14458000D01*
X25468000Y14458000D01*
X25468000Y14958000D01*
X25968000Y14958000D01*
G37*
G36*
X24968000Y14958000D02*
G01*
X24968000Y14458000D01*
X24468000Y14458000D01*
X24468000Y14958000D01*
X24968000Y14958000D01*
G37*
G36*
X24468000Y14958000D02*
G01*
X24468000Y14458000D01*
X23968000Y14458000D01*
X23968000Y14958000D01*
X24468000Y14958000D01*
G37*
G36*
X22968000Y14958000D02*
G01*
X22968000Y14458000D01*
X22468000Y14458000D01*
X22468000Y14958000D01*
X22968000Y14958000D01*
G37*
G36*
X21968000Y14958000D02*
G01*
X21968000Y14458000D01*
X21468000Y14458000D01*
X21468000Y14958000D01*
X21968000Y14958000D01*
G37*
G36*
X21468000Y14958000D02*
G01*
X21468000Y14458000D01*
X20968000Y14458000D01*
X20968000Y14958000D01*
X21468000Y14958000D01*
G37*
G36*
X38468000Y14458000D02*
G01*
X38468000Y13958000D01*
X37968000Y13958000D01*
X37968000Y14458000D01*
X38468000Y14458000D01*
G37*
G36*
X37968000Y14458000D02*
G01*
X37968000Y13958000D01*
X37468000Y13958000D01*
X37468000Y14458000D01*
X37968000Y14458000D01*
G37*
G36*
X37468000Y14458000D02*
G01*
X37468000Y13958000D01*
X36968000Y13958000D01*
X36968000Y14458000D01*
X37468000Y14458000D01*
G37*
G36*
X36968000Y14458000D02*
G01*
X36968000Y13958000D01*
X36468000Y13958000D01*
X36468000Y14458000D01*
X36968000Y14458000D01*
G37*
G36*
X35968000Y14458000D02*
G01*
X35968000Y13958000D01*
X35468000Y13958000D01*
X35468000Y14458000D01*
X35968000Y14458000D01*
G37*
G36*
X33968000Y14458000D02*
G01*
X33968000Y13958000D01*
X33468000Y13958000D01*
X33468000Y14458000D01*
X33968000Y14458000D01*
G37*
G36*
X31468000Y14458000D02*
G01*
X31468000Y13958000D01*
X30968000Y13958000D01*
X30968000Y14458000D01*
X31468000Y14458000D01*
G37*
G36*
X30968000Y14458000D02*
G01*
X30968000Y13958000D01*
X30468000Y13958000D01*
X30468000Y14458000D01*
X30968000Y14458000D01*
G37*
G36*
X29968000Y14458000D02*
G01*
X29968000Y13958000D01*
X29468000Y13958000D01*
X29468000Y14458000D01*
X29968000Y14458000D01*
G37*
G36*
X28968000Y14458000D02*
G01*
X28968000Y13958000D01*
X28468000Y13958000D01*
X28468000Y14458000D01*
X28968000Y14458000D01*
G37*
G36*
X27468000Y14458000D02*
G01*
X27468000Y13958000D01*
X26968000Y13958000D01*
X26968000Y14458000D01*
X27468000Y14458000D01*
G37*
G36*
X26468000Y14458000D02*
G01*
X26468000Y13958000D01*
X25968000Y13958000D01*
X25968000Y14458000D01*
X26468000Y14458000D01*
G37*
G36*
X25468000Y14458000D02*
G01*
X25468000Y13958000D01*
X24968000Y13958000D01*
X24968000Y14458000D01*
X25468000Y14458000D01*
G37*
G36*
X23468000Y14458000D02*
G01*
X23468000Y13958000D01*
X22968000Y13958000D01*
X22968000Y14458000D01*
X23468000Y14458000D01*
G37*
G36*
X22968000Y14458000D02*
G01*
X22968000Y13958000D01*
X22468000Y13958000D01*
X22468000Y14458000D01*
X22968000Y14458000D01*
G37*
G36*
X22468000Y14458000D02*
G01*
X22468000Y13958000D01*
X21968000Y13958000D01*
X21968000Y14458000D01*
X22468000Y14458000D01*
G37*
G36*
X21968000Y14458000D02*
G01*
X21968000Y13958000D01*
X21468000Y13958000D01*
X21468000Y14458000D01*
X21968000Y14458000D01*
G37*
G36*
X21468000Y14458000D02*
G01*
X21468000Y13958000D01*
X20968000Y13958000D01*
X20968000Y14458000D01*
X21468000Y14458000D01*
G37*
G36*
X38468000Y13958000D02*
G01*
X38468000Y13458000D01*
X37968000Y13458000D01*
X37968000Y13958000D01*
X38468000Y13958000D01*
G37*
G36*
X37968000Y13958000D02*
G01*
X37968000Y13458000D01*
X37468000Y13458000D01*
X37468000Y13958000D01*
X37968000Y13958000D01*
G37*
G36*
X35968000Y13958000D02*
G01*
X35968000Y13458000D01*
X35468000Y13458000D01*
X35468000Y13958000D01*
X35968000Y13958000D01*
G37*
G36*
X35468000Y13958000D02*
G01*
X35468000Y13458000D01*
X34968000Y13458000D01*
X34968000Y13958000D01*
X35468000Y13958000D01*
G37*
G36*
X34968000Y13958000D02*
G01*
X34968000Y13458000D01*
X34468000Y13458000D01*
X34468000Y13958000D01*
X34968000Y13958000D01*
G37*
G36*
X33968000Y13958000D02*
G01*
X33968000Y13458000D01*
X33468000Y13458000D01*
X33468000Y13958000D01*
X33968000Y13958000D01*
G37*
G36*
X32968000Y13958000D02*
G01*
X32968000Y13458000D01*
X32468000Y13458000D01*
X32468000Y13958000D01*
X32968000Y13958000D01*
G37*
G36*
X32468000Y13958000D02*
G01*
X32468000Y13458000D01*
X31968000Y13458000D01*
X31968000Y13958000D01*
X32468000Y13958000D01*
G37*
G36*
X31968000Y13958000D02*
G01*
X31968000Y13458000D01*
X31468000Y13458000D01*
X31468000Y13958000D01*
X31968000Y13958000D01*
G37*
G36*
X31468000Y13958000D02*
G01*
X31468000Y13458000D01*
X30968000Y13458000D01*
X30968000Y13958000D01*
X31468000Y13958000D01*
G37*
G36*
X30468000Y13958000D02*
G01*
X30468000Y13458000D01*
X29968000Y13458000D01*
X29968000Y13958000D01*
X30468000Y13958000D01*
G37*
G36*
X28468000Y13958000D02*
G01*
X28468000Y13458000D01*
X27968000Y13458000D01*
X27968000Y13958000D01*
X28468000Y13958000D01*
G37*
G36*
X27468000Y13958000D02*
G01*
X27468000Y13458000D01*
X26968000Y13458000D01*
X26968000Y13958000D01*
X27468000Y13958000D01*
G37*
G36*
X26468000Y13958000D02*
G01*
X26468000Y13458000D01*
X25968000Y13458000D01*
X25968000Y13958000D01*
X26468000Y13958000D01*
G37*
G36*
X25968000Y13958000D02*
G01*
X25968000Y13458000D01*
X25468000Y13458000D01*
X25468000Y13958000D01*
X25968000Y13958000D01*
G37*
G36*
X25468000Y13958000D02*
G01*
X25468000Y13458000D01*
X24968000Y13458000D01*
X24968000Y13958000D01*
X25468000Y13958000D01*
G37*
G36*
X24968000Y13958000D02*
G01*
X24968000Y13458000D01*
X24468000Y13458000D01*
X24468000Y13958000D01*
X24968000Y13958000D01*
G37*
G36*
X24468000Y13958000D02*
G01*
X24468000Y13458000D01*
X23968000Y13458000D01*
X23968000Y13958000D01*
X24468000Y13958000D01*
G37*
G36*
X22468000Y13958000D02*
G01*
X22468000Y13458000D01*
X21968000Y13458000D01*
X21968000Y13958000D01*
X22468000Y13958000D01*
G37*
G36*
X21468000Y13958000D02*
G01*
X21468000Y13458000D01*
X20968000Y13458000D01*
X20968000Y13958000D01*
X21468000Y13958000D01*
G37*
G36*
X38468000Y13458000D02*
G01*
X38468000Y12958000D01*
X37968000Y12958000D01*
X37968000Y13458000D01*
X38468000Y13458000D01*
G37*
G36*
X37968000Y13458000D02*
G01*
X37968000Y12958000D01*
X37468000Y12958000D01*
X37468000Y13458000D01*
X37968000Y13458000D01*
G37*
G36*
X36968000Y13458000D02*
G01*
X36968000Y12958000D01*
X36468000Y12958000D01*
X36468000Y13458000D01*
X36968000Y13458000D01*
G37*
G36*
X35468000Y13458000D02*
G01*
X35468000Y12958000D01*
X34968000Y12958000D01*
X34968000Y13458000D01*
X35468000Y13458000D01*
G37*
G36*
X34468000Y13458000D02*
G01*
X34468000Y12958000D01*
X33968000Y12958000D01*
X33968000Y13458000D01*
X34468000Y13458000D01*
G37*
G36*
X33468000Y13458000D02*
G01*
X33468000Y12958000D01*
X32968000Y12958000D01*
X32968000Y13458000D01*
X33468000Y13458000D01*
G37*
G36*
X30968000Y13458000D02*
G01*
X30968000Y12958000D01*
X30468000Y12958000D01*
X30468000Y13458000D01*
X30968000Y13458000D01*
G37*
G36*
X29468000Y13458000D02*
G01*
X29468000Y12958000D01*
X28968000Y12958000D01*
X28968000Y13458000D01*
X29468000Y13458000D01*
G37*
G36*
X27968000Y13458000D02*
G01*
X27968000Y12958000D01*
X27468000Y12958000D01*
X27468000Y13458000D01*
X27968000Y13458000D01*
G37*
G36*
X26468000Y13458000D02*
G01*
X26468000Y12958000D01*
X25968000Y12958000D01*
X25968000Y13458000D01*
X26468000Y13458000D01*
G37*
G36*
X25968000Y13458000D02*
G01*
X25968000Y12958000D01*
X25468000Y12958000D01*
X25468000Y13458000D01*
X25968000Y13458000D01*
G37*
G36*
X23468000Y13458000D02*
G01*
X23468000Y12958000D01*
X22968000Y12958000D01*
X22968000Y13458000D01*
X23468000Y13458000D01*
G37*
G36*
X22468000Y13458000D02*
G01*
X22468000Y12958000D01*
X21968000Y12958000D01*
X21968000Y13458000D01*
X22468000Y13458000D01*
G37*
G36*
X21468000Y13458000D02*
G01*
X21468000Y12958000D01*
X20968000Y12958000D01*
X20968000Y13458000D01*
X21468000Y13458000D01*
G37*
G36*
X38468000Y12958000D02*
G01*
X38468000Y12458000D01*
X37968000Y12458000D01*
X37968000Y12958000D01*
X38468000Y12958000D01*
G37*
G36*
X37968000Y12958000D02*
G01*
X37968000Y12458000D01*
X37468000Y12458000D01*
X37468000Y12958000D01*
X37968000Y12958000D01*
G37*
G36*
X37468000Y12958000D02*
G01*
X37468000Y12458000D01*
X36968000Y12458000D01*
X36968000Y12958000D01*
X37468000Y12958000D01*
G37*
G36*
X36968000Y12958000D02*
G01*
X36968000Y12458000D01*
X36468000Y12458000D01*
X36468000Y12958000D01*
X36968000Y12958000D01*
G37*
G36*
X36468000Y12958000D02*
G01*
X36468000Y12458000D01*
X35968000Y12458000D01*
X35968000Y12958000D01*
X36468000Y12958000D01*
G37*
G36*
X35468000Y12958000D02*
G01*
X35468000Y12458000D01*
X34968000Y12458000D01*
X34968000Y12958000D01*
X35468000Y12958000D01*
G37*
G36*
X33968000Y12958000D02*
G01*
X33968000Y12458000D01*
X33468000Y12458000D01*
X33468000Y12958000D01*
X33968000Y12958000D01*
G37*
G36*
X31968000Y12958000D02*
G01*
X31968000Y12458000D01*
X31468000Y12458000D01*
X31468000Y12958000D01*
X31968000Y12958000D01*
G37*
G36*
X31468000Y12958000D02*
G01*
X31468000Y12458000D01*
X30968000Y12458000D01*
X30968000Y12958000D01*
X31468000Y12958000D01*
G37*
G36*
X28468000Y12958000D02*
G01*
X28468000Y12458000D01*
X27968000Y12458000D01*
X27968000Y12958000D01*
X28468000Y12958000D01*
G37*
G36*
X27468000Y12958000D02*
G01*
X27468000Y12458000D01*
X26968000Y12458000D01*
X26968000Y12958000D01*
X27468000Y12958000D01*
G37*
G36*
X24968000Y12958000D02*
G01*
X24968000Y12458000D01*
X24468000Y12458000D01*
X24468000Y12958000D01*
X24968000Y12958000D01*
G37*
G36*
X24468000Y12958000D02*
G01*
X24468000Y12458000D01*
X23968000Y12458000D01*
X23968000Y12958000D01*
X24468000Y12958000D01*
G37*
G36*
X23468000Y12958000D02*
G01*
X23468000Y12458000D01*
X22968000Y12458000D01*
X22968000Y12958000D01*
X23468000Y12958000D01*
G37*
G36*
X22968000Y12958000D02*
G01*
X22968000Y12458000D01*
X22468000Y12458000D01*
X22468000Y12958000D01*
X22968000Y12958000D01*
G37*
G36*
X21968000Y12958000D02*
G01*
X21968000Y12458000D01*
X21468000Y12458000D01*
X21468000Y12958000D01*
X21968000Y12958000D01*
G37*
G36*
X21468000Y12958000D02*
G01*
X21468000Y12458000D01*
X20968000Y12458000D01*
X20968000Y12958000D01*
X21468000Y12958000D01*
G37*
G36*
X38468000Y12458000D02*
G01*
X38468000Y11958000D01*
X37968000Y11958000D01*
X37968000Y12458000D01*
X38468000Y12458000D01*
G37*
G36*
X37968000Y12458000D02*
G01*
X37968000Y11958000D01*
X37468000Y11958000D01*
X37468000Y12458000D01*
X37968000Y12458000D01*
G37*
G36*
X36468000Y12458000D02*
G01*
X36468000Y11958000D01*
X35968000Y11958000D01*
X35968000Y12458000D01*
X36468000Y12458000D01*
G37*
G36*
X35468000Y12458000D02*
G01*
X35468000Y11958000D01*
X34968000Y11958000D01*
X34968000Y12458000D01*
X35468000Y12458000D01*
G37*
G36*
X32968000Y12458000D02*
G01*
X32968000Y11958000D01*
X32468000Y11958000D01*
X32468000Y12458000D01*
X32968000Y12458000D01*
G37*
G36*
X32468000Y12458000D02*
G01*
X32468000Y11958000D01*
X31968000Y11958000D01*
X31968000Y12458000D01*
X32468000Y12458000D01*
G37*
G36*
X31468000Y12458000D02*
G01*
X31468000Y11958000D01*
X30968000Y11958000D01*
X30968000Y12458000D01*
X31468000Y12458000D01*
G37*
G36*
X30968000Y12458000D02*
G01*
X30968000Y11958000D01*
X30468000Y11958000D01*
X30468000Y12458000D01*
X30968000Y12458000D01*
G37*
G36*
X29968000Y12458000D02*
G01*
X29968000Y11958000D01*
X29468000Y11958000D01*
X29468000Y12458000D01*
X29968000Y12458000D01*
G37*
G36*
X28468000Y12458000D02*
G01*
X28468000Y11958000D01*
X27968000Y11958000D01*
X27968000Y12458000D01*
X28468000Y12458000D01*
G37*
G36*
X27968000Y12458000D02*
G01*
X27968000Y11958000D01*
X27468000Y11958000D01*
X27468000Y12458000D01*
X27968000Y12458000D01*
G37*
G36*
X27468000Y12458000D02*
G01*
X27468000Y11958000D01*
X26968000Y11958000D01*
X26968000Y12458000D01*
X27468000Y12458000D01*
G37*
G36*
X26968000Y12458000D02*
G01*
X26968000Y11958000D01*
X26468000Y11958000D01*
X26468000Y12458000D01*
X26968000Y12458000D01*
G37*
G36*
X26468000Y12458000D02*
G01*
X26468000Y11958000D01*
X25968000Y11958000D01*
X25968000Y12458000D01*
X26468000Y12458000D01*
G37*
G36*
X25468000Y12458000D02*
G01*
X25468000Y11958000D01*
X24968000Y11958000D01*
X24968000Y12458000D01*
X25468000Y12458000D01*
G37*
G36*
X24468000Y12458000D02*
G01*
X24468000Y11958000D01*
X23968000Y11958000D01*
X23968000Y12458000D01*
X24468000Y12458000D01*
G37*
G36*
X23968000Y12458000D02*
G01*
X23968000Y11958000D01*
X23468000Y11958000D01*
X23468000Y12458000D01*
X23968000Y12458000D01*
G37*
G36*
X23468000Y12458000D02*
G01*
X23468000Y11958000D01*
X22968000Y11958000D01*
X22968000Y12458000D01*
X23468000Y12458000D01*
G37*
G36*
X22968000Y12458000D02*
G01*
X22968000Y11958000D01*
X22468000Y11958000D01*
X22468000Y12458000D01*
X22968000Y12458000D01*
G37*
G36*
X22468000Y12458000D02*
G01*
X22468000Y11958000D01*
X21968000Y11958000D01*
X21968000Y12458000D01*
X22468000Y12458000D01*
G37*
G36*
X21968000Y12458000D02*
G01*
X21968000Y11958000D01*
X21468000Y11958000D01*
X21468000Y12458000D01*
X21968000Y12458000D01*
G37*
G36*
X21468000Y12458000D02*
G01*
X21468000Y11958000D01*
X20968000Y11958000D01*
X20968000Y12458000D01*
X21468000Y12458000D01*
G37*
G36*
X38468000Y11958000D02*
G01*
X38468000Y11458000D01*
X37968000Y11458000D01*
X37968000Y11958000D01*
X38468000Y11958000D01*
G37*
G36*
X37968000Y11958000D02*
G01*
X37968000Y11458000D01*
X37468000Y11458000D01*
X37468000Y11958000D01*
X37968000Y11958000D01*
G37*
G36*
X37468000Y11958000D02*
G01*
X37468000Y11458000D01*
X36968000Y11458000D01*
X36968000Y11958000D01*
X37468000Y11958000D01*
G37*
G36*
X36468000Y11958000D02*
G01*
X36468000Y11458000D01*
X35968000Y11458000D01*
X35968000Y11958000D01*
X36468000Y11958000D01*
G37*
G36*
X35968000Y11958000D02*
G01*
X35968000Y11458000D01*
X35468000Y11458000D01*
X35468000Y11958000D01*
X35968000Y11958000D01*
G37*
G36*
X33468000Y11958000D02*
G01*
X33468000Y11458000D01*
X32968000Y11458000D01*
X32968000Y11958000D01*
X33468000Y11958000D01*
G37*
G36*
X32968000Y11958000D02*
G01*
X32968000Y11458000D01*
X32468000Y11458000D01*
X32468000Y11958000D01*
X32968000Y11958000D01*
G37*
G36*
X29968000Y11958000D02*
G01*
X29968000Y11458000D01*
X29468000Y11458000D01*
X29468000Y11958000D01*
X29968000Y11958000D01*
G37*
G36*
X29468000Y11958000D02*
G01*
X29468000Y11458000D01*
X28968000Y11458000D01*
X28968000Y11958000D01*
X29468000Y11958000D01*
G37*
G36*
X28468000Y11958000D02*
G01*
X28468000Y11458000D01*
X27968000Y11458000D01*
X27968000Y11958000D01*
X28468000Y11958000D01*
G37*
G36*
X27468000Y11958000D02*
G01*
X27468000Y11458000D01*
X26968000Y11458000D01*
X26968000Y11958000D01*
X27468000Y11958000D01*
G37*
G36*
X26968000Y11958000D02*
G01*
X26968000Y11458000D01*
X26468000Y11458000D01*
X26468000Y11958000D01*
X26968000Y11958000D01*
G37*
G36*
X26468000Y11958000D02*
G01*
X26468000Y11458000D01*
X25968000Y11458000D01*
X25968000Y11958000D01*
X26468000Y11958000D01*
G37*
G36*
X25468000Y11958000D02*
G01*
X25468000Y11458000D01*
X24968000Y11458000D01*
X24968000Y11958000D01*
X25468000Y11958000D01*
G37*
G36*
X24968000Y11958000D02*
G01*
X24968000Y11458000D01*
X24468000Y11458000D01*
X24468000Y11958000D01*
X24968000Y11958000D01*
G37*
G36*
X23468000Y11958000D02*
G01*
X23468000Y11458000D01*
X22968000Y11458000D01*
X22968000Y11958000D01*
X23468000Y11958000D01*
G37*
G36*
X22968000Y11958000D02*
G01*
X22968000Y11458000D01*
X22468000Y11458000D01*
X22468000Y11958000D01*
X22968000Y11958000D01*
G37*
G36*
X22468000Y11958000D02*
G01*
X22468000Y11458000D01*
X21968000Y11458000D01*
X21968000Y11958000D01*
X22468000Y11958000D01*
G37*
G36*
X21468000Y11958000D02*
G01*
X21468000Y11458000D01*
X20968000Y11458000D01*
X20968000Y11958000D01*
X21468000Y11958000D01*
G37*
G36*
X38468000Y11458000D02*
G01*
X38468000Y10958000D01*
X37968000Y10958000D01*
X37968000Y11458000D01*
X38468000Y11458000D01*
G37*
G36*
X37968000Y11458000D02*
G01*
X37968000Y10958000D01*
X37468000Y10958000D01*
X37468000Y11458000D01*
X37968000Y11458000D01*
G37*
G36*
X37468000Y11458000D02*
G01*
X37468000Y10958000D01*
X36968000Y10958000D01*
X36968000Y11458000D01*
X37468000Y11458000D01*
G37*
G36*
X36968000Y11458000D02*
G01*
X36968000Y10958000D01*
X36468000Y10958000D01*
X36468000Y11458000D01*
X36968000Y11458000D01*
G37*
G36*
X35468000Y11458000D02*
G01*
X35468000Y10958000D01*
X34968000Y10958000D01*
X34968000Y11458000D01*
X35468000Y11458000D01*
G37*
G36*
X33968000Y11458000D02*
G01*
X33968000Y10958000D01*
X33468000Y10958000D01*
X33468000Y11458000D01*
X33968000Y11458000D01*
G37*
G36*
X32468000Y11458000D02*
G01*
X32468000Y10958000D01*
X31968000Y10958000D01*
X31968000Y11458000D01*
X32468000Y11458000D01*
G37*
G36*
X31968000Y11458000D02*
G01*
X31968000Y10958000D01*
X31468000Y10958000D01*
X31468000Y11458000D01*
X31968000Y11458000D01*
G37*
G36*
X30968000Y11458000D02*
G01*
X30968000Y10958000D01*
X30468000Y10958000D01*
X30468000Y11458000D01*
X30968000Y11458000D01*
G37*
G36*
X30468000Y11458000D02*
G01*
X30468000Y10958000D01*
X29968000Y10958000D01*
X29968000Y11458000D01*
X30468000Y11458000D01*
G37*
G36*
X29468000Y11458000D02*
G01*
X29468000Y10958000D01*
X28968000Y10958000D01*
X28968000Y11458000D01*
X29468000Y11458000D01*
G37*
G36*
X28968000Y11458000D02*
G01*
X28968000Y10958000D01*
X28468000Y10958000D01*
X28468000Y11458000D01*
X28968000Y11458000D01*
G37*
G36*
X27468000Y11458000D02*
G01*
X27468000Y10958000D01*
X26968000Y10958000D01*
X26968000Y11458000D01*
X27468000Y11458000D01*
G37*
G36*
X25468000Y11458000D02*
G01*
X25468000Y10958000D01*
X24968000Y10958000D01*
X24968000Y11458000D01*
X25468000Y11458000D01*
G37*
G36*
X23968000Y11458000D02*
G01*
X23968000Y10958000D01*
X23468000Y10958000D01*
X23468000Y11458000D01*
X23968000Y11458000D01*
G37*
G36*
X23468000Y11458000D02*
G01*
X23468000Y10958000D01*
X22968000Y10958000D01*
X22968000Y11458000D01*
X23468000Y11458000D01*
G37*
G36*
X21968000Y11458000D02*
G01*
X21968000Y10958000D01*
X21468000Y10958000D01*
X21468000Y11458000D01*
X21968000Y11458000D01*
G37*
G36*
X21468000Y11458000D02*
G01*
X21468000Y10958000D01*
X20968000Y10958000D01*
X20968000Y11458000D01*
X21468000Y11458000D01*
G37*
G36*
X38468000Y10958000D02*
G01*
X38468000Y10458000D01*
X37968000Y10458000D01*
X37968000Y10958000D01*
X38468000Y10958000D01*
G37*
G36*
X36968000Y10958000D02*
G01*
X36968000Y10458000D01*
X36468000Y10458000D01*
X36468000Y10958000D01*
X36968000Y10958000D01*
G37*
G36*
X36468000Y10958000D02*
G01*
X36468000Y10458000D01*
X35968000Y10458000D01*
X35968000Y10958000D01*
X36468000Y10958000D01*
G37*
G36*
X35968000Y10958000D02*
G01*
X35968000Y10458000D01*
X35468000Y10458000D01*
X35468000Y10958000D01*
X35968000Y10958000D01*
G37*
G36*
X35468000Y10958000D02*
G01*
X35468000Y10458000D01*
X34968000Y10458000D01*
X34968000Y10958000D01*
X35468000Y10958000D01*
G37*
G36*
X34968000Y10958000D02*
G01*
X34968000Y10458000D01*
X34468000Y10458000D01*
X34468000Y10958000D01*
X34968000Y10958000D01*
G37*
G36*
X34468000Y10958000D02*
G01*
X34468000Y10458000D01*
X33968000Y10458000D01*
X33968000Y10958000D01*
X34468000Y10958000D01*
G37*
G36*
X33968000Y10958000D02*
G01*
X33968000Y10458000D01*
X33468000Y10458000D01*
X33468000Y10958000D01*
X33968000Y10958000D01*
G37*
G36*
X32468000Y10958000D02*
G01*
X32468000Y10458000D01*
X31968000Y10458000D01*
X31968000Y10958000D01*
X32468000Y10958000D01*
G37*
G36*
X31468000Y10958000D02*
G01*
X31468000Y10458000D01*
X30968000Y10458000D01*
X30968000Y10958000D01*
X31468000Y10958000D01*
G37*
G36*
X30968000Y10958000D02*
G01*
X30968000Y10458000D01*
X30468000Y10458000D01*
X30468000Y10958000D01*
X30968000Y10958000D01*
G37*
G36*
X30468000Y10958000D02*
G01*
X30468000Y10458000D01*
X29968000Y10458000D01*
X29968000Y10958000D01*
X30468000Y10958000D01*
G37*
G36*
X29968000Y10958000D02*
G01*
X29968000Y10458000D01*
X29468000Y10458000D01*
X29468000Y10958000D01*
X29968000Y10958000D01*
G37*
G36*
X28968000Y10958000D02*
G01*
X28968000Y10458000D01*
X28468000Y10458000D01*
X28468000Y10958000D01*
X28968000Y10958000D01*
G37*
G36*
X27968000Y10958000D02*
G01*
X27968000Y10458000D01*
X27468000Y10458000D01*
X27468000Y10958000D01*
X27968000Y10958000D01*
G37*
G36*
X27468000Y10958000D02*
G01*
X27468000Y10458000D01*
X26968000Y10458000D01*
X26968000Y10958000D01*
X27468000Y10958000D01*
G37*
G36*
X26968000Y10958000D02*
G01*
X26968000Y10458000D01*
X26468000Y10458000D01*
X26468000Y10958000D01*
X26968000Y10958000D01*
G37*
G36*
X26468000Y10958000D02*
G01*
X26468000Y10458000D01*
X25968000Y10458000D01*
X25968000Y10958000D01*
X26468000Y10958000D01*
G37*
G36*
X25968000Y10958000D02*
G01*
X25968000Y10458000D01*
X25468000Y10458000D01*
X25468000Y10958000D01*
X25968000Y10958000D01*
G37*
G36*
X24968000Y10958000D02*
G01*
X24968000Y10458000D01*
X24468000Y10458000D01*
X24468000Y10958000D01*
X24968000Y10958000D01*
G37*
G36*
X22968000Y10958000D02*
G01*
X22968000Y10458000D01*
X22468000Y10458000D01*
X22468000Y10958000D01*
X22968000Y10958000D01*
G37*
G36*
X21468000Y10958000D02*
G01*
X21468000Y10458000D01*
X20968000Y10458000D01*
X20968000Y10958000D01*
X21468000Y10958000D01*
G37*
G36*
X38468000Y10458000D02*
G01*
X38468000Y9958000D01*
X37968000Y9958000D01*
X37968000Y10458000D01*
X38468000Y10458000D01*
G37*
G36*
X37968000Y10458000D02*
G01*
X37968000Y9958000D01*
X37468000Y9958000D01*
X37468000Y10458000D01*
X37968000Y10458000D01*
G37*
G36*
X36968000Y10458000D02*
G01*
X36968000Y9958000D01*
X36468000Y9958000D01*
X36468000Y10458000D01*
X36968000Y10458000D01*
G37*
G36*
X35968000Y10458000D02*
G01*
X35968000Y9958000D01*
X35468000Y9958000D01*
X35468000Y10458000D01*
X35968000Y10458000D01*
G37*
G36*
X35468000Y10458000D02*
G01*
X35468000Y9958000D01*
X34968000Y9958000D01*
X34968000Y10458000D01*
X35468000Y10458000D01*
G37*
G36*
X34968000Y10458000D02*
G01*
X34968000Y9958000D01*
X34468000Y9958000D01*
X34468000Y10458000D01*
X34968000Y10458000D01*
G37*
G36*
X33968000Y10458000D02*
G01*
X33968000Y9958000D01*
X33468000Y9958000D01*
X33468000Y10458000D01*
X33968000Y10458000D01*
G37*
G36*
X32968000Y10458000D02*
G01*
X32968000Y9958000D01*
X32468000Y9958000D01*
X32468000Y10458000D01*
X32968000Y10458000D01*
G37*
G36*
X32468000Y10458000D02*
G01*
X32468000Y9958000D01*
X31968000Y9958000D01*
X31968000Y10458000D01*
X32468000Y10458000D01*
G37*
G36*
X31968000Y10458000D02*
G01*
X31968000Y9958000D01*
X31468000Y9958000D01*
X31468000Y10458000D01*
X31968000Y10458000D01*
G37*
G36*
X31468000Y10458000D02*
G01*
X31468000Y9958000D01*
X30968000Y9958000D01*
X30968000Y10458000D01*
X31468000Y10458000D01*
G37*
G36*
X30468000Y10458000D02*
G01*
X30468000Y9958000D01*
X29968000Y9958000D01*
X29968000Y10458000D01*
X30468000Y10458000D01*
G37*
G36*
X27468000Y10458000D02*
G01*
X27468000Y9958000D01*
X26968000Y9958000D01*
X26968000Y10458000D01*
X27468000Y10458000D01*
G37*
G36*
X26968000Y10458000D02*
G01*
X26968000Y9958000D01*
X26468000Y9958000D01*
X26468000Y10458000D01*
X26968000Y10458000D01*
G37*
G36*
X26468000Y10458000D02*
G01*
X26468000Y9958000D01*
X25968000Y9958000D01*
X25968000Y10458000D01*
X26468000Y10458000D01*
G37*
G36*
X25968000Y10458000D02*
G01*
X25968000Y9958000D01*
X25468000Y9958000D01*
X25468000Y10458000D01*
X25968000Y10458000D01*
G37*
G36*
X25468000Y10458000D02*
G01*
X25468000Y9958000D01*
X24968000Y9958000D01*
X24968000Y10458000D01*
X25468000Y10458000D01*
G37*
G36*
X23468000Y10458000D02*
G01*
X23468000Y9958000D01*
X22968000Y9958000D01*
X22968000Y10458000D01*
X23468000Y10458000D01*
G37*
G36*
X22468000Y10458000D02*
G01*
X22468000Y9958000D01*
X21968000Y9958000D01*
X21968000Y10458000D01*
X22468000Y10458000D01*
G37*
G36*
X21468000Y10458000D02*
G01*
X21468000Y9958000D01*
X20968000Y9958000D01*
X20968000Y10458000D01*
X21468000Y10458000D01*
G37*
G36*
X38468000Y9958000D02*
G01*
X38468000Y9458000D01*
X37968000Y9458000D01*
X37968000Y9958000D01*
X38468000Y9958000D01*
G37*
G36*
X37968000Y9958000D02*
G01*
X37968000Y9458000D01*
X37468000Y9458000D01*
X37468000Y9958000D01*
X37968000Y9958000D01*
G37*
G36*
X37468000Y9958000D02*
G01*
X37468000Y9458000D01*
X36968000Y9458000D01*
X36968000Y9958000D01*
X37468000Y9958000D01*
G37*
G36*
X35968000Y9958000D02*
G01*
X35968000Y9458000D01*
X35468000Y9458000D01*
X35468000Y9958000D01*
X35968000Y9958000D01*
G37*
G36*
X35468000Y9958000D02*
G01*
X35468000Y9458000D01*
X34968000Y9458000D01*
X34968000Y9958000D01*
X35468000Y9958000D01*
G37*
G36*
X34968000Y9958000D02*
G01*
X34968000Y9458000D01*
X34468000Y9458000D01*
X34468000Y9958000D01*
X34968000Y9958000D01*
G37*
G36*
X33968000Y9958000D02*
G01*
X33968000Y9458000D01*
X33468000Y9458000D01*
X33468000Y9958000D01*
X33968000Y9958000D01*
G37*
G36*
X32968000Y9958000D02*
G01*
X32968000Y9458000D01*
X32468000Y9458000D01*
X32468000Y9958000D01*
X32968000Y9958000D01*
G37*
G36*
X31968000Y9958000D02*
G01*
X31968000Y9458000D01*
X31468000Y9458000D01*
X31468000Y9958000D01*
X31968000Y9958000D01*
G37*
G36*
X31468000Y9958000D02*
G01*
X31468000Y9458000D01*
X30968000Y9458000D01*
X30968000Y9958000D01*
X31468000Y9958000D01*
G37*
G36*
X28468000Y9958000D02*
G01*
X28468000Y9458000D01*
X27968000Y9458000D01*
X27968000Y9958000D01*
X28468000Y9958000D01*
G37*
G36*
X27968000Y9958000D02*
G01*
X27968000Y9458000D01*
X27468000Y9458000D01*
X27468000Y9958000D01*
X27968000Y9958000D01*
G37*
G36*
X27468000Y9958000D02*
G01*
X27468000Y9458000D01*
X26968000Y9458000D01*
X26968000Y9958000D01*
X27468000Y9958000D01*
G37*
G36*
X26468000Y9958000D02*
G01*
X26468000Y9458000D01*
X25968000Y9458000D01*
X25968000Y9958000D01*
X26468000Y9958000D01*
G37*
G36*
X25968000Y9958000D02*
G01*
X25968000Y9458000D01*
X25468000Y9458000D01*
X25468000Y9958000D01*
X25968000Y9958000D01*
G37*
G36*
X24968000Y9958000D02*
G01*
X24968000Y9458000D01*
X24468000Y9458000D01*
X24468000Y9958000D01*
X24968000Y9958000D01*
G37*
G36*
X24468000Y9958000D02*
G01*
X24468000Y9458000D01*
X23968000Y9458000D01*
X23968000Y9958000D01*
X24468000Y9958000D01*
G37*
G36*
X23468000Y9958000D02*
G01*
X23468000Y9458000D01*
X22968000Y9458000D01*
X22968000Y9958000D01*
X23468000Y9958000D01*
G37*
G36*
X22968000Y9958000D02*
G01*
X22968000Y9458000D01*
X22468000Y9458000D01*
X22468000Y9958000D01*
X22968000Y9958000D01*
G37*
G36*
X22468000Y9958000D02*
G01*
X22468000Y9458000D01*
X21968000Y9458000D01*
X21968000Y9958000D01*
X22468000Y9958000D01*
G37*
G36*
X21968000Y9958000D02*
G01*
X21968000Y9458000D01*
X21468000Y9458000D01*
X21468000Y9958000D01*
X21968000Y9958000D01*
G37*
G36*
X21468000Y9958000D02*
G01*
X21468000Y9458000D01*
X20968000Y9458000D01*
X20968000Y9958000D01*
X21468000Y9958000D01*
G37*
G36*
X38468000Y9458000D02*
G01*
X38468000Y8958000D01*
X37968000Y8958000D01*
X37968000Y9458000D01*
X38468000Y9458000D01*
G37*
G36*
X37468000Y9458000D02*
G01*
X37468000Y8958000D01*
X36968000Y8958000D01*
X36968000Y9458000D01*
X37468000Y9458000D01*
G37*
G36*
X36968000Y9458000D02*
G01*
X36968000Y8958000D01*
X36468000Y8958000D01*
X36468000Y9458000D01*
X36968000Y9458000D01*
G37*
G36*
X33968000Y9458000D02*
G01*
X33968000Y8958000D01*
X33468000Y8958000D01*
X33468000Y9458000D01*
X33968000Y9458000D01*
G37*
G36*
X32968000Y9458000D02*
G01*
X32968000Y8958000D01*
X32468000Y8958000D01*
X32468000Y9458000D01*
X32968000Y9458000D01*
G37*
G36*
X31468000Y9458000D02*
G01*
X31468000Y8958000D01*
X30968000Y8958000D01*
X30968000Y9458000D01*
X31468000Y9458000D01*
G37*
G36*
X30968000Y9458000D02*
G01*
X30968000Y8958000D01*
X30468000Y8958000D01*
X30468000Y9458000D01*
X30968000Y9458000D01*
G37*
G36*
X29968000Y9458000D02*
G01*
X29968000Y8958000D01*
X29468000Y8958000D01*
X29468000Y9458000D01*
X29968000Y9458000D01*
G37*
G36*
X28968000Y9458000D02*
G01*
X28968000Y8958000D01*
X28468000Y8958000D01*
X28468000Y9458000D01*
X28968000Y9458000D01*
G37*
G36*
X28468000Y9458000D02*
G01*
X28468000Y8958000D01*
X27968000Y8958000D01*
X27968000Y9458000D01*
X28468000Y9458000D01*
G37*
G36*
X27968000Y9458000D02*
G01*
X27968000Y8958000D01*
X27468000Y8958000D01*
X27468000Y9458000D01*
X27968000Y9458000D01*
G37*
G36*
X27468000Y9458000D02*
G01*
X27468000Y8958000D01*
X26968000Y8958000D01*
X26968000Y9458000D01*
X27468000Y9458000D01*
G37*
G36*
X26468000Y9458000D02*
G01*
X26468000Y8958000D01*
X25968000Y8958000D01*
X25968000Y9458000D01*
X26468000Y9458000D01*
G37*
G36*
X24468000Y9458000D02*
G01*
X24468000Y8958000D01*
X23968000Y8958000D01*
X23968000Y9458000D01*
X24468000Y9458000D01*
G37*
G36*
X23468000Y9458000D02*
G01*
X23468000Y8958000D01*
X22968000Y8958000D01*
X22968000Y9458000D01*
X23468000Y9458000D01*
G37*
G36*
X22968000Y9458000D02*
G01*
X22968000Y8958000D01*
X22468000Y8958000D01*
X22468000Y9458000D01*
X22968000Y9458000D01*
G37*
G36*
X22468000Y9458000D02*
G01*
X22468000Y8958000D01*
X21968000Y8958000D01*
X21968000Y9458000D01*
X22468000Y9458000D01*
G37*
G36*
X21468000Y9458000D02*
G01*
X21468000Y8958000D01*
X20968000Y8958000D01*
X20968000Y9458000D01*
X21468000Y9458000D01*
G37*
G36*
X38468000Y8958000D02*
G01*
X38468000Y8458000D01*
X37968000Y8458000D01*
X37968000Y8958000D01*
X38468000Y8958000D01*
G37*
G36*
X37968000Y8958000D02*
G01*
X37968000Y8458000D01*
X37468000Y8458000D01*
X37468000Y8958000D01*
X37968000Y8958000D01*
G37*
G36*
X37468000Y8958000D02*
G01*
X37468000Y8458000D01*
X36968000Y8458000D01*
X36968000Y8958000D01*
X37468000Y8958000D01*
G37*
G36*
X36968000Y8958000D02*
G01*
X36968000Y8458000D01*
X36468000Y8458000D01*
X36468000Y8958000D01*
X36968000Y8958000D01*
G37*
G36*
X36468000Y8958000D02*
G01*
X36468000Y8458000D01*
X35968000Y8458000D01*
X35968000Y8958000D01*
X36468000Y8958000D01*
G37*
G36*
X35968000Y8958000D02*
G01*
X35968000Y8458000D01*
X35468000Y8458000D01*
X35468000Y8958000D01*
X35968000Y8958000D01*
G37*
G36*
X35468000Y8958000D02*
G01*
X35468000Y8458000D01*
X34968000Y8458000D01*
X34968000Y8958000D01*
X35468000Y8958000D01*
G37*
G36*
X34968000Y8958000D02*
G01*
X34968000Y8458000D01*
X34468000Y8458000D01*
X34468000Y8958000D01*
X34968000Y8958000D01*
G37*
G36*
X34468000Y8958000D02*
G01*
X34468000Y8458000D01*
X33968000Y8458000D01*
X33968000Y8958000D01*
X34468000Y8958000D01*
G37*
G36*
X33468000Y8958000D02*
G01*
X33468000Y8458000D01*
X32968000Y8458000D01*
X32968000Y8958000D01*
X33468000Y8958000D01*
G37*
G36*
X30968000Y8958000D02*
G01*
X30968000Y8458000D01*
X30468000Y8458000D01*
X30468000Y8958000D01*
X30968000Y8958000D01*
G37*
G36*
X29968000Y8958000D02*
G01*
X29968000Y8458000D01*
X29468000Y8458000D01*
X29468000Y8958000D01*
X29968000Y8958000D01*
G37*
G36*
X29468000Y8958000D02*
G01*
X29468000Y8458000D01*
X28968000Y8458000D01*
X28968000Y8958000D01*
X29468000Y8958000D01*
G37*
G36*
X28968000Y8958000D02*
G01*
X28968000Y8458000D01*
X28468000Y8458000D01*
X28468000Y8958000D01*
X28968000Y8958000D01*
G37*
G36*
X28468000Y8958000D02*
G01*
X28468000Y8458000D01*
X27968000Y8458000D01*
X27968000Y8958000D01*
X28468000Y8958000D01*
G37*
G36*
X26468000Y8958000D02*
G01*
X26468000Y8458000D01*
X25968000Y8458000D01*
X25968000Y8958000D01*
X26468000Y8958000D01*
G37*
G36*
X25468000Y8958000D02*
G01*
X25468000Y8458000D01*
X24968000Y8458000D01*
X24968000Y8958000D01*
X25468000Y8958000D01*
G37*
G36*
X24968000Y8958000D02*
G01*
X24968000Y8458000D01*
X24468000Y8458000D01*
X24468000Y8958000D01*
X24968000Y8958000D01*
G37*
G36*
X24468000Y8958000D02*
G01*
X24468000Y8458000D01*
X23968000Y8458000D01*
X23968000Y8958000D01*
X24468000Y8958000D01*
G37*
G36*
X23968000Y8958000D02*
G01*
X23968000Y8458000D01*
X23468000Y8458000D01*
X23468000Y8958000D01*
X23968000Y8958000D01*
G37*
G36*
X23468000Y8958000D02*
G01*
X23468000Y8458000D01*
X22968000Y8458000D01*
X22968000Y8958000D01*
X23468000Y8958000D01*
G37*
G36*
X22968000Y8958000D02*
G01*
X22968000Y8458000D01*
X22468000Y8458000D01*
X22468000Y8958000D01*
X22968000Y8958000D01*
G37*
G36*
X22468000Y8958000D02*
G01*
X22468000Y8458000D01*
X21968000Y8458000D01*
X21968000Y8958000D01*
X22468000Y8958000D01*
G37*
G36*
X21968000Y8958000D02*
G01*
X21968000Y8458000D01*
X21468000Y8458000D01*
X21468000Y8958000D01*
X21968000Y8958000D01*
G37*
G36*
X21468000Y8958000D02*
G01*
X21468000Y8458000D01*
X20968000Y8458000D01*
X20968000Y8958000D01*
X21468000Y8958000D01*
G37*
G36*
X38468000Y8458000D02*
G01*
X38468000Y7958000D01*
X37968000Y7958000D01*
X37968000Y8458000D01*
X38468000Y8458000D01*
G37*
G36*
X34468000Y8458000D02*
G01*
X34468000Y7958000D01*
X33968000Y7958000D01*
X33968000Y8458000D01*
X34468000Y8458000D01*
G37*
G36*
X33468000Y8458000D02*
G01*
X33468000Y7958000D01*
X32968000Y7958000D01*
X32968000Y8458000D01*
X33468000Y8458000D01*
G37*
G36*
X32468000Y8458000D02*
G01*
X32468000Y7958000D01*
X31968000Y7958000D01*
X31968000Y8458000D01*
X32468000Y8458000D01*
G37*
G36*
X31468000Y8458000D02*
G01*
X31468000Y7958000D01*
X30968000Y7958000D01*
X30968000Y8458000D01*
X31468000Y8458000D01*
G37*
G36*
X30468000Y8458000D02*
G01*
X30468000Y7958000D01*
X29968000Y7958000D01*
X29968000Y8458000D01*
X30468000Y8458000D01*
G37*
G36*
X29468000Y8458000D02*
G01*
X29468000Y7958000D01*
X28968000Y7958000D01*
X28968000Y8458000D01*
X29468000Y8458000D01*
G37*
G36*
X28468000Y8458000D02*
G01*
X28468000Y7958000D01*
X27968000Y7958000D01*
X27968000Y8458000D01*
X28468000Y8458000D01*
G37*
G36*
X27468000Y8458000D02*
G01*
X27468000Y7958000D01*
X26968000Y7958000D01*
X26968000Y8458000D01*
X27468000Y8458000D01*
G37*
G36*
X26468000Y8458000D02*
G01*
X26468000Y7958000D01*
X25968000Y7958000D01*
X25968000Y8458000D01*
X26468000Y8458000D01*
G37*
G36*
X25468000Y8458000D02*
G01*
X25468000Y7958000D01*
X24968000Y7958000D01*
X24968000Y8458000D01*
X25468000Y8458000D01*
G37*
G36*
X21468000Y8458000D02*
G01*
X21468000Y7958000D01*
X20968000Y7958000D01*
X20968000Y8458000D01*
X21468000Y8458000D01*
G37*
G36*
X38468000Y7958000D02*
G01*
X38468000Y7458000D01*
X37968000Y7458000D01*
X37968000Y7958000D01*
X38468000Y7958000D01*
G37*
G36*
X37468000Y7958000D02*
G01*
X37468000Y7458000D01*
X36968000Y7458000D01*
X36968000Y7958000D01*
X37468000Y7958000D01*
G37*
G36*
X36968000Y7958000D02*
G01*
X36968000Y7458000D01*
X36468000Y7458000D01*
X36468000Y7958000D01*
X36968000Y7958000D01*
G37*
G36*
X36468000Y7958000D02*
G01*
X36468000Y7458000D01*
X35968000Y7458000D01*
X35968000Y7958000D01*
X36468000Y7958000D01*
G37*
G36*
X35968000Y7958000D02*
G01*
X35968000Y7458000D01*
X35468000Y7458000D01*
X35468000Y7958000D01*
X35968000Y7958000D01*
G37*
G36*
X35468000Y7958000D02*
G01*
X35468000Y7458000D01*
X34968000Y7458000D01*
X34968000Y7958000D01*
X35468000Y7958000D01*
G37*
G36*
X34468000Y7958000D02*
G01*
X34468000Y7458000D01*
X33968000Y7458000D01*
X33968000Y7958000D01*
X34468000Y7958000D01*
G37*
G36*
X32968000Y7958000D02*
G01*
X32968000Y7458000D01*
X32468000Y7458000D01*
X32468000Y7958000D01*
X32968000Y7958000D01*
G37*
G36*
X31468000Y7958000D02*
G01*
X31468000Y7458000D01*
X30968000Y7458000D01*
X30968000Y7958000D01*
X31468000Y7958000D01*
G37*
G36*
X30968000Y7958000D02*
G01*
X30968000Y7458000D01*
X30468000Y7458000D01*
X30468000Y7958000D01*
X30968000Y7958000D01*
G37*
G36*
X29968000Y7958000D02*
G01*
X29968000Y7458000D01*
X29468000Y7458000D01*
X29468000Y7958000D01*
X29968000Y7958000D01*
G37*
G36*
X28468000Y7958000D02*
G01*
X28468000Y7458000D01*
X27968000Y7458000D01*
X27968000Y7958000D01*
X28468000Y7958000D01*
G37*
G36*
X26968000Y7958000D02*
G01*
X26968000Y7458000D01*
X26468000Y7458000D01*
X26468000Y7958000D01*
X26968000Y7958000D01*
G37*
G36*
X26468000Y7958000D02*
G01*
X26468000Y7458000D01*
X25968000Y7458000D01*
X25968000Y7958000D01*
X26468000Y7958000D01*
G37*
G36*
X25468000Y7958000D02*
G01*
X25468000Y7458000D01*
X24968000Y7458000D01*
X24968000Y7958000D01*
X25468000Y7958000D01*
G37*
G36*
X24468000Y7958000D02*
G01*
X24468000Y7458000D01*
X23968000Y7458000D01*
X23968000Y7958000D01*
X24468000Y7958000D01*
G37*
G36*
X23968000Y7958000D02*
G01*
X23968000Y7458000D01*
X23468000Y7458000D01*
X23468000Y7958000D01*
X23968000Y7958000D01*
G37*
G36*
X23468000Y7958000D02*
G01*
X23468000Y7458000D01*
X22968000Y7458000D01*
X22968000Y7958000D01*
X23468000Y7958000D01*
G37*
G36*
X22968000Y7958000D02*
G01*
X22968000Y7458000D01*
X22468000Y7458000D01*
X22468000Y7958000D01*
X22968000Y7958000D01*
G37*
G36*
X22468000Y7958000D02*
G01*
X22468000Y7458000D01*
X21968000Y7458000D01*
X21968000Y7958000D01*
X22468000Y7958000D01*
G37*
G36*
X21468000Y7958000D02*
G01*
X21468000Y7458000D01*
X20968000Y7458000D01*
X20968000Y7958000D01*
X21468000Y7958000D01*
G37*
G36*
X38468000Y7458000D02*
G01*
X38468000Y6958000D01*
X37968000Y6958000D01*
X37968000Y7458000D01*
X38468000Y7458000D01*
G37*
G36*
X37468000Y7458000D02*
G01*
X37468000Y6958000D01*
X36968000Y6958000D01*
X36968000Y7458000D01*
X37468000Y7458000D01*
G37*
G36*
X35468000Y7458000D02*
G01*
X35468000Y6958000D01*
X34968000Y6958000D01*
X34968000Y7458000D01*
X35468000Y7458000D01*
G37*
G36*
X34468000Y7458000D02*
G01*
X34468000Y6958000D01*
X33968000Y6958000D01*
X33968000Y7458000D01*
X34468000Y7458000D01*
G37*
G36*
X33968000Y7458000D02*
G01*
X33968000Y6958000D01*
X33468000Y6958000D01*
X33468000Y7458000D01*
X33968000Y7458000D01*
G37*
G36*
X33468000Y7458000D02*
G01*
X33468000Y6958000D01*
X32968000Y6958000D01*
X32968000Y7458000D01*
X33468000Y7458000D01*
G37*
G36*
X32468000Y7458000D02*
G01*
X32468000Y6958000D01*
X31968000Y6958000D01*
X31968000Y7458000D01*
X32468000Y7458000D01*
G37*
G36*
X31968000Y7458000D02*
G01*
X31968000Y6958000D01*
X31468000Y6958000D01*
X31468000Y7458000D01*
X31968000Y7458000D01*
G37*
G36*
X30968000Y7458000D02*
G01*
X30968000Y6958000D01*
X30468000Y6958000D01*
X30468000Y7458000D01*
X30968000Y7458000D01*
G37*
G36*
X29468000Y7458000D02*
G01*
X29468000Y6958000D01*
X28968000Y6958000D01*
X28968000Y7458000D01*
X29468000Y7458000D01*
G37*
G36*
X28968000Y7458000D02*
G01*
X28968000Y6958000D01*
X28468000Y6958000D01*
X28468000Y7458000D01*
X28968000Y7458000D01*
G37*
G36*
X27968000Y7458000D02*
G01*
X27968000Y6958000D01*
X27468000Y6958000D01*
X27468000Y7458000D01*
X27968000Y7458000D01*
G37*
G36*
X26968000Y7458000D02*
G01*
X26968000Y6958000D01*
X26468000Y6958000D01*
X26468000Y7458000D01*
X26968000Y7458000D01*
G37*
G36*
X26468000Y7458000D02*
G01*
X26468000Y6958000D01*
X25968000Y6958000D01*
X25968000Y7458000D01*
X26468000Y7458000D01*
G37*
G36*
X25468000Y7458000D02*
G01*
X25468000Y6958000D01*
X24968000Y6958000D01*
X24968000Y7458000D01*
X25468000Y7458000D01*
G37*
G36*
X24468000Y7458000D02*
G01*
X24468000Y6958000D01*
X23968000Y6958000D01*
X23968000Y7458000D01*
X24468000Y7458000D01*
G37*
G36*
X22468000Y7458000D02*
G01*
X22468000Y6958000D01*
X21968000Y6958000D01*
X21968000Y7458000D01*
X22468000Y7458000D01*
G37*
G36*
X21468000Y7458000D02*
G01*
X21468000Y6958000D01*
X20968000Y6958000D01*
X20968000Y7458000D01*
X21468000Y7458000D01*
G37*
G36*
X38468000Y6958000D02*
G01*
X38468000Y6458000D01*
X37968000Y6458000D01*
X37968000Y6958000D01*
X38468000Y6958000D01*
G37*
G36*
X37468000Y6958000D02*
G01*
X37468000Y6458000D01*
X36968000Y6458000D01*
X36968000Y6958000D01*
X37468000Y6958000D01*
G37*
G36*
X35468000Y6958000D02*
G01*
X35468000Y6458000D01*
X34968000Y6458000D01*
X34968000Y6958000D01*
X35468000Y6958000D01*
G37*
G36*
X34468000Y6958000D02*
G01*
X34468000Y6458000D01*
X33968000Y6458000D01*
X33968000Y6958000D01*
X34468000Y6958000D01*
G37*
G36*
X33968000Y6958000D02*
G01*
X33968000Y6458000D01*
X33468000Y6458000D01*
X33468000Y6958000D01*
X33968000Y6958000D01*
G37*
G36*
X31968000Y6958000D02*
G01*
X31968000Y6458000D01*
X31468000Y6458000D01*
X31468000Y6958000D01*
X31968000Y6958000D01*
G37*
G36*
X31468000Y6958000D02*
G01*
X31468000Y6458000D01*
X30968000Y6458000D01*
X30968000Y6958000D01*
X31468000Y6958000D01*
G37*
G36*
X30968000Y6958000D02*
G01*
X30968000Y6458000D01*
X30468000Y6458000D01*
X30468000Y6958000D01*
X30968000Y6958000D01*
G37*
G36*
X28968000Y6958000D02*
G01*
X28968000Y6458000D01*
X28468000Y6458000D01*
X28468000Y6958000D01*
X28968000Y6958000D01*
G37*
G36*
X28468000Y6958000D02*
G01*
X28468000Y6458000D01*
X27968000Y6458000D01*
X27968000Y6958000D01*
X28468000Y6958000D01*
G37*
G36*
X25468000Y6958000D02*
G01*
X25468000Y6458000D01*
X24968000Y6458000D01*
X24968000Y6958000D01*
X25468000Y6958000D01*
G37*
G36*
X24468000Y6958000D02*
G01*
X24468000Y6458000D01*
X23968000Y6458000D01*
X23968000Y6958000D01*
X24468000Y6958000D01*
G37*
G36*
X22468000Y6958000D02*
G01*
X22468000Y6458000D01*
X21968000Y6458000D01*
X21968000Y6958000D01*
X22468000Y6958000D01*
G37*
G36*
X21468000Y6958000D02*
G01*
X21468000Y6458000D01*
X20968000Y6458000D01*
X20968000Y6958000D01*
X21468000Y6958000D01*
G37*
G36*
X38468000Y6458000D02*
G01*
X38468000Y5958000D01*
X37968000Y5958000D01*
X37968000Y6458000D01*
X38468000Y6458000D01*
G37*
G36*
X37468000Y6458000D02*
G01*
X37468000Y5958000D01*
X36968000Y5958000D01*
X36968000Y6458000D01*
X37468000Y6458000D01*
G37*
G36*
X35468000Y6458000D02*
G01*
X35468000Y5958000D01*
X34968000Y5958000D01*
X34968000Y6458000D01*
X35468000Y6458000D01*
G37*
G36*
X34468000Y6458000D02*
G01*
X34468000Y5958000D01*
X33968000Y5958000D01*
X33968000Y6458000D01*
X34468000Y6458000D01*
G37*
G36*
X32968000Y6458000D02*
G01*
X32968000Y5958000D01*
X32468000Y5958000D01*
X32468000Y6458000D01*
X32968000Y6458000D01*
G37*
G36*
X31968000Y6458000D02*
G01*
X31968000Y5958000D01*
X31468000Y5958000D01*
X31468000Y6458000D01*
X31968000Y6458000D01*
G37*
G36*
X31468000Y6458000D02*
G01*
X31468000Y5958000D01*
X30968000Y5958000D01*
X30968000Y6458000D01*
X31468000Y6458000D01*
G37*
G36*
X28468000Y6458000D02*
G01*
X28468000Y5958000D01*
X27968000Y5958000D01*
X27968000Y6458000D01*
X28468000Y6458000D01*
G37*
G36*
X27968000Y6458000D02*
G01*
X27968000Y5958000D01*
X27468000Y5958000D01*
X27468000Y6458000D01*
X27968000Y6458000D01*
G37*
G36*
X27468000Y6458000D02*
G01*
X27468000Y5958000D01*
X26968000Y5958000D01*
X26968000Y6458000D01*
X27468000Y6458000D01*
G37*
G36*
X26968000Y6458000D02*
G01*
X26968000Y5958000D01*
X26468000Y5958000D01*
X26468000Y6458000D01*
X26968000Y6458000D01*
G37*
G36*
X26468000Y6458000D02*
G01*
X26468000Y5958000D01*
X25968000Y5958000D01*
X25968000Y6458000D01*
X26468000Y6458000D01*
G37*
G36*
X25968000Y6458000D02*
G01*
X25968000Y5958000D01*
X25468000Y5958000D01*
X25468000Y6458000D01*
X25968000Y6458000D01*
G37*
G36*
X25468000Y6458000D02*
G01*
X25468000Y5958000D01*
X24968000Y5958000D01*
X24968000Y6458000D01*
X25468000Y6458000D01*
G37*
G36*
X24468000Y6458000D02*
G01*
X24468000Y5958000D01*
X23968000Y5958000D01*
X23968000Y6458000D01*
X24468000Y6458000D01*
G37*
G36*
X22468000Y6458000D02*
G01*
X22468000Y5958000D01*
X21968000Y5958000D01*
X21968000Y6458000D01*
X22468000Y6458000D01*
G37*
G36*
X21468000Y6458000D02*
G01*
X21468000Y5958000D01*
X20968000Y5958000D01*
X20968000Y6458000D01*
X21468000Y6458000D01*
G37*
G36*
X38468000Y5958000D02*
G01*
X38468000Y5458000D01*
X37968000Y5458000D01*
X37968000Y5958000D01*
X38468000Y5958000D01*
G37*
G36*
X37468000Y5958000D02*
G01*
X37468000Y5458000D01*
X36968000Y5458000D01*
X36968000Y5958000D01*
X37468000Y5958000D01*
G37*
G36*
X36968000Y5958000D02*
G01*
X36968000Y5458000D01*
X36468000Y5458000D01*
X36468000Y5958000D01*
X36968000Y5958000D01*
G37*
G36*
X36468000Y5958000D02*
G01*
X36468000Y5458000D01*
X35968000Y5458000D01*
X35968000Y5958000D01*
X36468000Y5958000D01*
G37*
G36*
X35968000Y5958000D02*
G01*
X35968000Y5458000D01*
X35468000Y5458000D01*
X35468000Y5958000D01*
X35968000Y5958000D01*
G37*
G36*
X35468000Y5958000D02*
G01*
X35468000Y5458000D01*
X34968000Y5458000D01*
X34968000Y5958000D01*
X35468000Y5958000D01*
G37*
G36*
X34468000Y5958000D02*
G01*
X34468000Y5458000D01*
X33968000Y5458000D01*
X33968000Y5958000D01*
X34468000Y5958000D01*
G37*
G36*
X33968000Y5958000D02*
G01*
X33968000Y5458000D01*
X33468000Y5458000D01*
X33468000Y5958000D01*
X33968000Y5958000D01*
G37*
G36*
X33468000Y5958000D02*
G01*
X33468000Y5458000D01*
X32968000Y5458000D01*
X32968000Y5958000D01*
X33468000Y5958000D01*
G37*
G36*
X32968000Y5958000D02*
G01*
X32968000Y5458000D01*
X32468000Y5458000D01*
X32468000Y5958000D01*
X32968000Y5958000D01*
G37*
G36*
X32468000Y5958000D02*
G01*
X32468000Y5458000D01*
X31968000Y5458000D01*
X31968000Y5958000D01*
X32468000Y5958000D01*
G37*
G36*
X31968000Y5958000D02*
G01*
X31968000Y5458000D01*
X31468000Y5458000D01*
X31468000Y5958000D01*
X31968000Y5958000D01*
G37*
G36*
X30468000Y5958000D02*
G01*
X30468000Y5458000D01*
X29968000Y5458000D01*
X29968000Y5958000D01*
X30468000Y5958000D01*
G37*
G36*
X29468000Y5958000D02*
G01*
X29468000Y5458000D01*
X28968000Y5458000D01*
X28968000Y5958000D01*
X29468000Y5958000D01*
G37*
G36*
X27968000Y5958000D02*
G01*
X27968000Y5458000D01*
X27468000Y5458000D01*
X27468000Y5958000D01*
X27968000Y5958000D01*
G37*
G36*
X27468000Y5958000D02*
G01*
X27468000Y5458000D01*
X26968000Y5458000D01*
X26968000Y5958000D01*
X27468000Y5958000D01*
G37*
G36*
X26968000Y5958000D02*
G01*
X26968000Y5458000D01*
X26468000Y5458000D01*
X26468000Y5958000D01*
X26968000Y5958000D01*
G37*
G36*
X26468000Y5958000D02*
G01*
X26468000Y5458000D01*
X25968000Y5458000D01*
X25968000Y5958000D01*
X26468000Y5958000D01*
G37*
G36*
X25968000Y5958000D02*
G01*
X25968000Y5458000D01*
X25468000Y5458000D01*
X25468000Y5958000D01*
X25968000Y5958000D01*
G37*
G36*
X25468000Y5958000D02*
G01*
X25468000Y5458000D01*
X24968000Y5458000D01*
X24968000Y5958000D01*
X25468000Y5958000D01*
G37*
G36*
X24468000Y5958000D02*
G01*
X24468000Y5458000D01*
X23968000Y5458000D01*
X23968000Y5958000D01*
X24468000Y5958000D01*
G37*
G36*
X23968000Y5958000D02*
G01*
X23968000Y5458000D01*
X23468000Y5458000D01*
X23468000Y5958000D01*
X23968000Y5958000D01*
G37*
G36*
X23468000Y5958000D02*
G01*
X23468000Y5458000D01*
X22968000Y5458000D01*
X22968000Y5958000D01*
X23468000Y5958000D01*
G37*
G36*
X22968000Y5958000D02*
G01*
X22968000Y5458000D01*
X22468000Y5458000D01*
X22468000Y5958000D01*
X22968000Y5958000D01*
G37*
G36*
X22468000Y5958000D02*
G01*
X22468000Y5458000D01*
X21968000Y5458000D01*
X21968000Y5958000D01*
X22468000Y5958000D01*
G37*
G36*
X21468000Y5958000D02*
G01*
X21468000Y5458000D01*
X20968000Y5458000D01*
X20968000Y5958000D01*
X21468000Y5958000D01*
G37*
G36*
X38468000Y5458000D02*
G01*
X38468000Y4958000D01*
X37968000Y4958000D01*
X37968000Y5458000D01*
X38468000Y5458000D01*
G37*
G36*
X34468000Y5458000D02*
G01*
X34468000Y4958000D01*
X33968000Y4958000D01*
X33968000Y5458000D01*
X34468000Y5458000D01*
G37*
G36*
X33968000Y5458000D02*
G01*
X33968000Y4958000D01*
X33468000Y4958000D01*
X33468000Y5458000D01*
X33968000Y5458000D01*
G37*
G36*
X32968000Y5458000D02*
G01*
X32968000Y4958000D01*
X32468000Y4958000D01*
X32468000Y5458000D01*
X32968000Y5458000D01*
G37*
G36*
X32468000Y5458000D02*
G01*
X32468000Y4958000D01*
X31968000Y4958000D01*
X31968000Y5458000D01*
X32468000Y5458000D01*
G37*
G36*
X31968000Y5458000D02*
G01*
X31968000Y4958000D01*
X31468000Y4958000D01*
X31468000Y5458000D01*
X31968000Y5458000D01*
G37*
G36*
X31468000Y5458000D02*
G01*
X31468000Y4958000D01*
X30968000Y4958000D01*
X30968000Y5458000D01*
X31468000Y5458000D01*
G37*
G36*
X30468000Y5458000D02*
G01*
X30468000Y4958000D01*
X29968000Y4958000D01*
X29968000Y5458000D01*
X30468000Y5458000D01*
G37*
G36*
X28968000Y5458000D02*
G01*
X28968000Y4958000D01*
X28468000Y4958000D01*
X28468000Y5458000D01*
X28968000Y5458000D01*
G37*
G36*
X27968000Y5458000D02*
G01*
X27968000Y4958000D01*
X27468000Y4958000D01*
X27468000Y5458000D01*
X27968000Y5458000D01*
G37*
G36*
X27468000Y5458000D02*
G01*
X27468000Y4958000D01*
X26968000Y4958000D01*
X26968000Y5458000D01*
X27468000Y5458000D01*
G37*
G36*
X25468000Y5458000D02*
G01*
X25468000Y4958000D01*
X24968000Y4958000D01*
X24968000Y5458000D01*
X25468000Y5458000D01*
G37*
G36*
X21468000Y5458000D02*
G01*
X21468000Y4958000D01*
X20968000Y4958000D01*
X20968000Y5458000D01*
X21468000Y5458000D01*
G37*
G36*
X38468000Y4958000D02*
G01*
X38468000Y4458000D01*
X37968000Y4458000D01*
X37968000Y4958000D01*
X38468000Y4958000D01*
G37*
G36*
X37968000Y4958000D02*
G01*
X37968000Y4458000D01*
X37468000Y4458000D01*
X37468000Y4958000D01*
X37968000Y4958000D01*
G37*
G36*
X37468000Y4958000D02*
G01*
X37468000Y4458000D01*
X36968000Y4458000D01*
X36968000Y4958000D01*
X37468000Y4958000D01*
G37*
G36*
X36968000Y4958000D02*
G01*
X36968000Y4458000D01*
X36468000Y4458000D01*
X36468000Y4958000D01*
X36968000Y4958000D01*
G37*
G36*
X36468000Y4958000D02*
G01*
X36468000Y4458000D01*
X35968000Y4458000D01*
X35968000Y4958000D01*
X36468000Y4958000D01*
G37*
G36*
X35968000Y4958000D02*
G01*
X35968000Y4458000D01*
X35468000Y4458000D01*
X35468000Y4958000D01*
X35968000Y4958000D01*
G37*
G36*
X35468000Y4958000D02*
G01*
X35468000Y4458000D01*
X34968000Y4458000D01*
X34968000Y4958000D01*
X35468000Y4958000D01*
G37*
G36*
X34968000Y4958000D02*
G01*
X34968000Y4458000D01*
X34468000Y4458000D01*
X34468000Y4958000D01*
X34968000Y4958000D01*
G37*
G36*
X34468000Y4958000D02*
G01*
X34468000Y4458000D01*
X33968000Y4458000D01*
X33968000Y4958000D01*
X34468000Y4958000D01*
G37*
G36*
X33968000Y4958000D02*
G01*
X33968000Y4458000D01*
X33468000Y4458000D01*
X33468000Y4958000D01*
X33968000Y4958000D01*
G37*
G36*
X33468000Y4958000D02*
G01*
X33468000Y4458000D01*
X32968000Y4458000D01*
X32968000Y4958000D01*
X33468000Y4958000D01*
G37*
G36*
X32968000Y4958000D02*
G01*
X32968000Y4458000D01*
X32468000Y4458000D01*
X32468000Y4958000D01*
X32968000Y4958000D01*
G37*
G36*
X32468000Y4958000D02*
G01*
X32468000Y4458000D01*
X31968000Y4458000D01*
X31968000Y4958000D01*
X32468000Y4958000D01*
G37*
G36*
X31968000Y4958000D02*
G01*
X31968000Y4458000D01*
X31468000Y4458000D01*
X31468000Y4958000D01*
X31968000Y4958000D01*
G37*
G36*
X31468000Y4958000D02*
G01*
X31468000Y4458000D01*
X30968000Y4458000D01*
X30968000Y4958000D01*
X31468000Y4958000D01*
G37*
G36*
X30968000Y4958000D02*
G01*
X30968000Y4458000D01*
X30468000Y4458000D01*
X30468000Y4958000D01*
X30968000Y4958000D01*
G37*
G36*
X30468000Y4958000D02*
G01*
X30468000Y4458000D01*
X29968000Y4458000D01*
X29968000Y4958000D01*
X30468000Y4958000D01*
G37*
G36*
X29968000Y4958000D02*
G01*
X29968000Y4458000D01*
X29468000Y4458000D01*
X29468000Y4958000D01*
X29968000Y4958000D01*
G37*
G36*
X29468000Y4958000D02*
G01*
X29468000Y4458000D01*
X28968000Y4458000D01*
X28968000Y4958000D01*
X29468000Y4958000D01*
G37*
G36*
X28968000Y4958000D02*
G01*
X28968000Y4458000D01*
X28468000Y4458000D01*
X28468000Y4958000D01*
X28968000Y4958000D01*
G37*
G36*
X28468000Y4958000D02*
G01*
X28468000Y4458000D01*
X27968000Y4458000D01*
X27968000Y4958000D01*
X28468000Y4958000D01*
G37*
G36*
X27968000Y4958000D02*
G01*
X27968000Y4458000D01*
X27468000Y4458000D01*
X27468000Y4958000D01*
X27968000Y4958000D01*
G37*
G36*
X27468000Y4958000D02*
G01*
X27468000Y4458000D01*
X26968000Y4458000D01*
X26968000Y4958000D01*
X27468000Y4958000D01*
G37*
G36*
X26968000Y4958000D02*
G01*
X26968000Y4458000D01*
X26468000Y4458000D01*
X26468000Y4958000D01*
X26968000Y4958000D01*
G37*
G36*
X26468000Y4958000D02*
G01*
X26468000Y4458000D01*
X25968000Y4458000D01*
X25968000Y4958000D01*
X26468000Y4958000D01*
G37*
G36*
X25968000Y4958000D02*
G01*
X25968000Y4458000D01*
X25468000Y4458000D01*
X25468000Y4958000D01*
X25968000Y4958000D01*
G37*
G36*
X25468000Y4958000D02*
G01*
X25468000Y4458000D01*
X24968000Y4458000D01*
X24968000Y4958000D01*
X25468000Y4958000D01*
G37*
G36*
X24968000Y4958000D02*
G01*
X24968000Y4458000D01*
X24468000Y4458000D01*
X24468000Y4958000D01*
X24968000Y4958000D01*
G37*
G36*
X24468000Y4958000D02*
G01*
X24468000Y4458000D01*
X23968000Y4458000D01*
X23968000Y4958000D01*
X24468000Y4958000D01*
G37*
G36*
X23968000Y4958000D02*
G01*
X23968000Y4458000D01*
X23468000Y4458000D01*
X23468000Y4958000D01*
X23968000Y4958000D01*
G37*
G36*
X23468000Y4958000D02*
G01*
X23468000Y4458000D01*
X22968000Y4458000D01*
X22968000Y4958000D01*
X23468000Y4958000D01*
G37*
G36*
X22968000Y4958000D02*
G01*
X22968000Y4458000D01*
X22468000Y4458000D01*
X22468000Y4958000D01*
X22968000Y4958000D01*
G37*
G36*
X22468000Y4958000D02*
G01*
X22468000Y4458000D01*
X21968000Y4458000D01*
X21968000Y4958000D01*
X22468000Y4958000D01*
G37*
G36*
X21968000Y4958000D02*
G01*
X21968000Y4458000D01*
X21468000Y4458000D01*
X21468000Y4958000D01*
X21968000Y4958000D01*
G37*
G36*
X21468000Y4958000D02*
G01*
X21468000Y4458000D01*
X20968000Y4458000D01*
X20968000Y4958000D01*
X21468000Y4958000D01*
G37*
M02*
