G04 #@! TF.GenerationSoftware,KiCad,Pcbnew,(5.1.5)-3*
G04 #@! TF.CreationDate,2020-07-28T21:27:20+02:00*
G04 #@! TF.ProjectId,switch,73776974-6368-42e6-9b69-6361645f7063,rev?*
G04 #@! TF.SameCoordinates,PX18f3350PY2d4c310*
G04 #@! TF.FileFunction,Copper,L2,Bot*
G04 #@! TF.FilePolarity,Positive*
%FSLAX46Y46*%
G04 Gerber Fmt 4.6, Leading zero omitted, Abs format (unit mm)*
G04 Created by KiCad (PCBNEW (5.1.5)-3) date 2020-07-28 21:27:20*
%MOMM*%
%LPD*%
G04 APERTURE LIST*
%ADD10C,0.050000*%
%ADD11O,1.700000X1.700000*%
%ADD12R,1.700000X1.700000*%
%ADD13C,1.700000*%
%ADD14C,1.900000*%
%ADD15R,1.900000X1.900000*%
%ADD16C,0.457200*%
%ADD17C,0.254000*%
G04 APERTURE END LIST*
D10*
X18796000Y26416000D02*
X0Y26416000D01*
X18796000Y0D02*
X18796000Y26416000D01*
X0Y0D02*
X18796000Y0D01*
X0Y26416000D02*
X0Y0D01*
D11*
X17018000Y9398000D03*
X17018000Y11938000D03*
D12*
X17018000Y14478000D03*
D11*
X17018000Y1778000D03*
X14478000Y1778000D03*
X11938000Y1778000D03*
X9398000Y1778000D03*
X6858000Y1778000D03*
X4318000Y1778000D03*
D13*
X1778000Y1778000D03*
D12*
X17018000Y24638000D03*
D11*
X14478000Y24638000D03*
X11938000Y24638000D03*
X9398000Y24638000D03*
X6858000Y24638000D03*
X4318000Y24638000D03*
D13*
X1778000Y24638000D03*
D14*
X11990500Y10287000D03*
X4370500Y10287000D03*
X11990500Y12827000D03*
X4370500Y12827000D03*
X11990500Y15367000D03*
D15*
X4370500Y15367000D03*
D14*
X6910500Y7747000D03*
X9450500Y15367000D03*
X6910500Y15367000D03*
X11990500Y15367000D03*
D15*
X4370500Y15367000D03*
D16*
X4370500Y10287000D02*
X9450500Y15367000D01*
X11938000Y10234500D02*
X11990500Y10287000D01*
X11938000Y1778000D02*
X11938000Y10234500D01*
X6858000Y7694500D02*
X6910500Y7747000D01*
X6858000Y1778000D02*
X6858000Y7694500D01*
X7860499Y8696999D02*
X11990500Y12827000D01*
X6910500Y7747000D02*
X7860499Y8696999D01*
X3468001Y2627999D02*
X4318000Y1778000D01*
X2413000Y3683000D02*
X3468001Y2627999D01*
X2413000Y16383000D02*
X2413000Y3683000D01*
X15113000Y13843000D02*
X15113000Y15113000D01*
X17018000Y11938000D02*
X15113000Y13843000D01*
X15113000Y15113000D02*
X13208000Y17018000D01*
X13208000Y17018000D02*
X3048000Y17018000D01*
X3048000Y17018000D02*
X2413000Y16383000D01*
D17*
G36*
X17145000Y24765000D02*
G01*
X17165000Y24765000D01*
X17165000Y24511000D01*
X17145000Y24511000D01*
X17145000Y23311750D01*
X17303750Y23153000D01*
X17868000Y23149928D01*
X17992482Y23162188D01*
X18112180Y23198498D01*
X18136001Y23211231D01*
X18136001Y15904769D01*
X18112180Y15917502D01*
X17992482Y15953812D01*
X17868000Y15966072D01*
X17303750Y15963000D01*
X17145000Y15804250D01*
X17145000Y14605000D01*
X17165000Y14605000D01*
X17165000Y14351000D01*
X17145000Y14351000D01*
X17145000Y14331000D01*
X16891000Y14331000D01*
X16891000Y14351000D01*
X16871000Y14351000D01*
X16871000Y14605000D01*
X16891000Y14605000D01*
X16891000Y15804250D01*
X16732250Y15963000D01*
X16168000Y15966072D01*
X16043518Y15953812D01*
X15923820Y15917502D01*
X15813506Y15858537D01*
X15716815Y15779185D01*
X15694976Y15752575D01*
X15693660Y15753655D01*
X13848664Y17598650D01*
X13821612Y17631612D01*
X13690112Y17739531D01*
X13540084Y17819722D01*
X13377295Y17869104D01*
X13250420Y17881600D01*
X13208000Y17885778D01*
X13165580Y17881600D01*
X3090420Y17881600D01*
X3048000Y17885778D01*
X3005580Y17881600D01*
X2878705Y17869104D01*
X2715916Y17819722D01*
X2565888Y17739531D01*
X2434388Y17631612D01*
X2407345Y17598659D01*
X1832350Y17023663D01*
X1799388Y16996612D01*
X1691469Y16865111D01*
X1611278Y16715083D01*
X1564592Y16561180D01*
X1561896Y16552294D01*
X1545222Y16383000D01*
X1549400Y16340580D01*
X1549401Y3725430D01*
X1545222Y3683000D01*
X1561896Y3513706D01*
X1611279Y3350916D01*
X1658270Y3263000D01*
X1631740Y3263000D01*
X1344842Y3205932D01*
X1074589Y3093990D01*
X831368Y2931475D01*
X660000Y2760107D01*
X660000Y23655893D01*
X831368Y23484525D01*
X1074589Y23322010D01*
X1344842Y23210068D01*
X1631740Y23153000D01*
X1924260Y23153000D01*
X2211158Y23210068D01*
X2481411Y23322010D01*
X2724632Y23484525D01*
X2931475Y23691368D01*
X3048000Y23865760D01*
X3164525Y23691368D01*
X3371368Y23484525D01*
X3614589Y23322010D01*
X3884842Y23210068D01*
X4171740Y23153000D01*
X4464260Y23153000D01*
X4751158Y23210068D01*
X5021411Y23322010D01*
X5264632Y23484525D01*
X5471475Y23691368D01*
X5588000Y23865760D01*
X5704525Y23691368D01*
X5911368Y23484525D01*
X6154589Y23322010D01*
X6424842Y23210068D01*
X6711740Y23153000D01*
X7004260Y23153000D01*
X7291158Y23210068D01*
X7561411Y23322010D01*
X7804632Y23484525D01*
X8011475Y23691368D01*
X8128000Y23865760D01*
X8244525Y23691368D01*
X8451368Y23484525D01*
X8694589Y23322010D01*
X8964842Y23210068D01*
X9251740Y23153000D01*
X9544260Y23153000D01*
X9831158Y23210068D01*
X10101411Y23322010D01*
X10344632Y23484525D01*
X10551475Y23691368D01*
X10668000Y23865760D01*
X10784525Y23691368D01*
X10991368Y23484525D01*
X11234589Y23322010D01*
X11504842Y23210068D01*
X11791740Y23153000D01*
X12084260Y23153000D01*
X12371158Y23210068D01*
X12641411Y23322010D01*
X12884632Y23484525D01*
X13091475Y23691368D01*
X13208000Y23865760D01*
X13324525Y23691368D01*
X13531368Y23484525D01*
X13774589Y23322010D01*
X14044842Y23210068D01*
X14331740Y23153000D01*
X14624260Y23153000D01*
X14911158Y23210068D01*
X15181411Y23322010D01*
X15424632Y23484525D01*
X15556487Y23616380D01*
X15578498Y23543820D01*
X15637463Y23433506D01*
X15716815Y23336815D01*
X15813506Y23257463D01*
X15923820Y23198498D01*
X16043518Y23162188D01*
X16168000Y23149928D01*
X16732250Y23153000D01*
X16891000Y23311750D01*
X16891000Y24511000D01*
X16871000Y24511000D01*
X16871000Y24765000D01*
X16891000Y24765000D01*
X16891000Y24785000D01*
X17145000Y24785000D01*
X17145000Y24765000D01*
G37*
X17145000Y24765000D02*
X17165000Y24765000D01*
X17165000Y24511000D01*
X17145000Y24511000D01*
X17145000Y23311750D01*
X17303750Y23153000D01*
X17868000Y23149928D01*
X17992482Y23162188D01*
X18112180Y23198498D01*
X18136001Y23211231D01*
X18136001Y15904769D01*
X18112180Y15917502D01*
X17992482Y15953812D01*
X17868000Y15966072D01*
X17303750Y15963000D01*
X17145000Y15804250D01*
X17145000Y14605000D01*
X17165000Y14605000D01*
X17165000Y14351000D01*
X17145000Y14351000D01*
X17145000Y14331000D01*
X16891000Y14331000D01*
X16891000Y14351000D01*
X16871000Y14351000D01*
X16871000Y14605000D01*
X16891000Y14605000D01*
X16891000Y15804250D01*
X16732250Y15963000D01*
X16168000Y15966072D01*
X16043518Y15953812D01*
X15923820Y15917502D01*
X15813506Y15858537D01*
X15716815Y15779185D01*
X15694976Y15752575D01*
X15693660Y15753655D01*
X13848664Y17598650D01*
X13821612Y17631612D01*
X13690112Y17739531D01*
X13540084Y17819722D01*
X13377295Y17869104D01*
X13250420Y17881600D01*
X13208000Y17885778D01*
X13165580Y17881600D01*
X3090420Y17881600D01*
X3048000Y17885778D01*
X3005580Y17881600D01*
X2878705Y17869104D01*
X2715916Y17819722D01*
X2565888Y17739531D01*
X2434388Y17631612D01*
X2407345Y17598659D01*
X1832350Y17023663D01*
X1799388Y16996612D01*
X1691469Y16865111D01*
X1611278Y16715083D01*
X1564592Y16561180D01*
X1561896Y16552294D01*
X1545222Y16383000D01*
X1549400Y16340580D01*
X1549401Y3725430D01*
X1545222Y3683000D01*
X1561896Y3513706D01*
X1611279Y3350916D01*
X1658270Y3263000D01*
X1631740Y3263000D01*
X1344842Y3205932D01*
X1074589Y3093990D01*
X831368Y2931475D01*
X660000Y2760107D01*
X660000Y23655893D01*
X831368Y23484525D01*
X1074589Y23322010D01*
X1344842Y23210068D01*
X1631740Y23153000D01*
X1924260Y23153000D01*
X2211158Y23210068D01*
X2481411Y23322010D01*
X2724632Y23484525D01*
X2931475Y23691368D01*
X3048000Y23865760D01*
X3164525Y23691368D01*
X3371368Y23484525D01*
X3614589Y23322010D01*
X3884842Y23210068D01*
X4171740Y23153000D01*
X4464260Y23153000D01*
X4751158Y23210068D01*
X5021411Y23322010D01*
X5264632Y23484525D01*
X5471475Y23691368D01*
X5588000Y23865760D01*
X5704525Y23691368D01*
X5911368Y23484525D01*
X6154589Y23322010D01*
X6424842Y23210068D01*
X6711740Y23153000D01*
X7004260Y23153000D01*
X7291158Y23210068D01*
X7561411Y23322010D01*
X7804632Y23484525D01*
X8011475Y23691368D01*
X8128000Y23865760D01*
X8244525Y23691368D01*
X8451368Y23484525D01*
X8694589Y23322010D01*
X8964842Y23210068D01*
X9251740Y23153000D01*
X9544260Y23153000D01*
X9831158Y23210068D01*
X10101411Y23322010D01*
X10344632Y23484525D01*
X10551475Y23691368D01*
X10668000Y23865760D01*
X10784525Y23691368D01*
X10991368Y23484525D01*
X11234589Y23322010D01*
X11504842Y23210068D01*
X11791740Y23153000D01*
X12084260Y23153000D01*
X12371158Y23210068D01*
X12641411Y23322010D01*
X12884632Y23484525D01*
X13091475Y23691368D01*
X13208000Y23865760D01*
X13324525Y23691368D01*
X13531368Y23484525D01*
X13774589Y23322010D01*
X14044842Y23210068D01*
X14331740Y23153000D01*
X14624260Y23153000D01*
X14911158Y23210068D01*
X15181411Y23322010D01*
X15424632Y23484525D01*
X15556487Y23616380D01*
X15578498Y23543820D01*
X15637463Y23433506D01*
X15716815Y23336815D01*
X15813506Y23257463D01*
X15923820Y23198498D01*
X16043518Y23162188D01*
X16168000Y23149928D01*
X16732250Y23153000D01*
X16891000Y23311750D01*
X16891000Y24511000D01*
X16871000Y24511000D01*
X16871000Y24765000D01*
X16891000Y24765000D01*
X16891000Y24785000D01*
X17145000Y24785000D01*
X17145000Y24765000D01*
M02*
