M48
; DRILL file {KiCad (5.1.5)-3} date 28/07/2020 21:27:23
; FORMAT={-:-/ absolute / inch / decimal}
; #@! TF.CreationDate,2020-07-28T21:27:23+02:00
; #@! TF.GenerationSoftware,Kicad,Pcbnew,(5.1.5)-3
; #@! TF.FileFunction,Plated,1,2,PTH
FMAT,2
INCH
T1C0.0394
%
G90
G05
T1
X0.1721Y0.605
X0.1721Y0.505
X0.1721Y0.405
X0.4721Y0.605
X0.4721Y0.505
X0.4721Y0.405
X0.67Y0.57
X0.67Y0.47
X0.67Y0.37
X0.07Y0.97
X0.17Y0.97
X0.27Y0.97
X0.37Y0.97
X0.47Y0.97
X0.57Y0.97
X0.67Y0.97
X0.1721Y0.605
X0.2721Y0.605
X0.2721Y0.305
X0.3721Y0.605
X0.4721Y0.605
X0.07Y0.07
X0.17Y0.07
X0.27Y0.07
X0.37Y0.07
X0.47Y0.07
X0.57Y0.07
X0.67Y0.07
T0
M30
