G04 #@! TF.GenerationSoftware,KiCad,Pcbnew,(5.1.5)-3*
G04 #@! TF.CreationDate,2020-03-16T23:27:22+01:00*
G04 #@! TF.ProjectId,switch,73776974-6368-42e6-9b69-6361645f7063,rev?*
G04 #@! TF.SameCoordinates,PX18f3350PY2d4c310*
G04 #@! TF.FileFunction,Soldermask,Bot*
G04 #@! TF.FilePolarity,Negative*
%FSLAX46Y46*%
G04 Gerber Fmt 4.6, Leading zero omitted, Abs format (unit mm)*
G04 Created by KiCad (PCBNEW (5.1.5)-3) date 2020-03-16 23:27:22*
%MOMM*%
%LPD*%
G04 APERTURE LIST*
%ADD10C,0.050000*%
%ADD11C,0.020000*%
G04 APERTURE END LIST*
D10*
X18796000Y26416000D02*
X0Y26416000D01*
X18796000Y0D02*
X18796000Y26416000D01*
X0Y0D02*
X18796000Y0D01*
X0Y26416000D02*
X0Y0D01*
D11*
G36*
X2051867Y2680819D02*
G01*
X2222736Y2610042D01*
X2376514Y2507291D01*
X2507291Y2376514D01*
X2610042Y2222736D01*
X2680819Y2051867D01*
X2716900Y1870474D01*
X2716900Y1685526D01*
X2680819Y1504133D01*
X2610042Y1333264D01*
X2507291Y1179486D01*
X2376514Y1048709D01*
X2222736Y945958D01*
X2051867Y875181D01*
X1870474Y839100D01*
X1685526Y839100D01*
X1504133Y875181D01*
X1333264Y945958D01*
X1179486Y1048709D01*
X1048709Y1179486D01*
X945958Y1333264D01*
X875181Y1504133D01*
X839100Y1685526D01*
X839100Y1870474D01*
X875181Y2051867D01*
X945958Y2222736D01*
X1048709Y2376514D01*
X1179486Y2507291D01*
X1333264Y2610042D01*
X1504133Y2680819D01*
X1685526Y2716900D01*
X1870474Y2716900D01*
X2051867Y2680819D01*
G37*
G36*
X4591867Y2680819D02*
G01*
X4762736Y2610042D01*
X4916514Y2507291D01*
X5047291Y2376514D01*
X5150042Y2222736D01*
X5220819Y2051867D01*
X5256900Y1870474D01*
X5256900Y1685526D01*
X5220819Y1504133D01*
X5150042Y1333264D01*
X5047291Y1179486D01*
X4916514Y1048709D01*
X4762736Y945958D01*
X4591867Y875181D01*
X4410474Y839100D01*
X4225526Y839100D01*
X4044133Y875181D01*
X3873264Y945958D01*
X3719486Y1048709D01*
X3588709Y1179486D01*
X3485958Y1333264D01*
X3415181Y1504133D01*
X3379100Y1685526D01*
X3379100Y1870474D01*
X3415181Y2051867D01*
X3485958Y2222736D01*
X3588709Y2376514D01*
X3719486Y2507291D01*
X3873264Y2610042D01*
X4044133Y2680819D01*
X4225526Y2716900D01*
X4410474Y2716900D01*
X4591867Y2680819D01*
G37*
G36*
X7131867Y2680819D02*
G01*
X7302736Y2610042D01*
X7456514Y2507291D01*
X7587291Y2376514D01*
X7690042Y2222736D01*
X7760819Y2051867D01*
X7796900Y1870474D01*
X7796900Y1685526D01*
X7760819Y1504133D01*
X7690042Y1333264D01*
X7587291Y1179486D01*
X7456514Y1048709D01*
X7302736Y945958D01*
X7131867Y875181D01*
X6950474Y839100D01*
X6765526Y839100D01*
X6584133Y875181D01*
X6413264Y945958D01*
X6259486Y1048709D01*
X6128709Y1179486D01*
X6025958Y1333264D01*
X5955181Y1504133D01*
X5919100Y1685526D01*
X5919100Y1870474D01*
X5955181Y2051867D01*
X6025958Y2222736D01*
X6128709Y2376514D01*
X6259486Y2507291D01*
X6413264Y2610042D01*
X6584133Y2680819D01*
X6765526Y2716900D01*
X6950474Y2716900D01*
X7131867Y2680819D01*
G37*
G36*
X9671867Y2680819D02*
G01*
X9842736Y2610042D01*
X9996514Y2507291D01*
X10127291Y2376514D01*
X10230042Y2222736D01*
X10300819Y2051867D01*
X10336900Y1870474D01*
X10336900Y1685526D01*
X10300819Y1504133D01*
X10230042Y1333264D01*
X10127291Y1179486D01*
X9996514Y1048709D01*
X9842736Y945958D01*
X9671867Y875181D01*
X9490474Y839100D01*
X9305526Y839100D01*
X9124133Y875181D01*
X8953264Y945958D01*
X8799486Y1048709D01*
X8668709Y1179486D01*
X8565958Y1333264D01*
X8495181Y1504133D01*
X8459100Y1685526D01*
X8459100Y1870474D01*
X8495181Y2051867D01*
X8565958Y2222736D01*
X8668709Y2376514D01*
X8799486Y2507291D01*
X8953264Y2610042D01*
X9124133Y2680819D01*
X9305526Y2716900D01*
X9490474Y2716900D01*
X9671867Y2680819D01*
G37*
G36*
X12211867Y2680819D02*
G01*
X12382736Y2610042D01*
X12536514Y2507291D01*
X12667291Y2376514D01*
X12770042Y2222736D01*
X12840819Y2051867D01*
X12876900Y1870474D01*
X12876900Y1685526D01*
X12840819Y1504133D01*
X12770042Y1333264D01*
X12667291Y1179486D01*
X12536514Y1048709D01*
X12382736Y945958D01*
X12211867Y875181D01*
X12030474Y839100D01*
X11845526Y839100D01*
X11664133Y875181D01*
X11493264Y945958D01*
X11339486Y1048709D01*
X11208709Y1179486D01*
X11105958Y1333264D01*
X11035181Y1504133D01*
X10999100Y1685526D01*
X10999100Y1870474D01*
X11035181Y2051867D01*
X11105958Y2222736D01*
X11208709Y2376514D01*
X11339486Y2507291D01*
X11493264Y2610042D01*
X11664133Y2680819D01*
X11845526Y2716900D01*
X12030474Y2716900D01*
X12211867Y2680819D01*
G37*
G36*
X17291867Y2680819D02*
G01*
X17462736Y2610042D01*
X17616514Y2507291D01*
X17747291Y2376514D01*
X17850042Y2222736D01*
X17920819Y2051867D01*
X17956900Y1870474D01*
X17956900Y1685526D01*
X17920819Y1504133D01*
X17850042Y1333264D01*
X17747291Y1179486D01*
X17616514Y1048709D01*
X17462736Y945958D01*
X17291867Y875181D01*
X17110474Y839100D01*
X16925526Y839100D01*
X16744133Y875181D01*
X16573264Y945958D01*
X16419486Y1048709D01*
X16288709Y1179486D01*
X16185958Y1333264D01*
X16115181Y1504133D01*
X16079100Y1685526D01*
X16079100Y1870474D01*
X16115181Y2051867D01*
X16185958Y2222736D01*
X16288709Y2376514D01*
X16419486Y2507291D01*
X16573264Y2610042D01*
X16744133Y2680819D01*
X16925526Y2716900D01*
X17110474Y2716900D01*
X17291867Y2680819D01*
G37*
G36*
X14751867Y2680819D02*
G01*
X14922736Y2610042D01*
X15076514Y2507291D01*
X15207291Y2376514D01*
X15310042Y2222736D01*
X15380819Y2051867D01*
X15416900Y1870474D01*
X15416900Y1685526D01*
X15380819Y1504133D01*
X15310042Y1333264D01*
X15207291Y1179486D01*
X15076514Y1048709D01*
X14922736Y945958D01*
X14751867Y875181D01*
X14570474Y839100D01*
X14385526Y839100D01*
X14204133Y875181D01*
X14033264Y945958D01*
X13879486Y1048709D01*
X13748709Y1179486D01*
X13645958Y1333264D01*
X13575181Y1504133D01*
X13539100Y1685526D01*
X13539100Y1870474D01*
X13575181Y2051867D01*
X13645958Y2222736D01*
X13748709Y2376514D01*
X13879486Y2507291D01*
X14033264Y2610042D01*
X14204133Y2680819D01*
X14385526Y2716900D01*
X14570474Y2716900D01*
X14751867Y2680819D01*
G37*
G36*
X7213533Y8745977D02*
G01*
X7213535Y8745976D01*
X7213536Y8745976D01*
X7402604Y8667661D01*
X7572762Y8553965D01*
X7717465Y8409262D01*
X7831161Y8239104D01*
X7909477Y8050033D01*
X7949400Y7849323D01*
X7949400Y7644677D01*
X7909477Y7443967D01*
X7831161Y7254896D01*
X7717465Y7084738D01*
X7572762Y6940035D01*
X7402604Y6826339D01*
X7213536Y6748024D01*
X7213535Y6748024D01*
X7213533Y6748023D01*
X7012823Y6708100D01*
X6808177Y6708100D01*
X6607467Y6748023D01*
X6607465Y6748024D01*
X6607464Y6748024D01*
X6418396Y6826339D01*
X6248238Y6940035D01*
X6103535Y7084738D01*
X5989839Y7254896D01*
X5911523Y7443967D01*
X5871600Y7644677D01*
X5871600Y7849323D01*
X5911523Y8050033D01*
X5989839Y8239104D01*
X6103535Y8409262D01*
X6248238Y8553965D01*
X6418396Y8667661D01*
X6607464Y8745976D01*
X6607465Y8745976D01*
X6607467Y8745977D01*
X6808177Y8785900D01*
X7012823Y8785900D01*
X7213533Y8745977D01*
G37*
G36*
X4673533Y11285977D02*
G01*
X4673535Y11285976D01*
X4673536Y11285976D01*
X4862604Y11207661D01*
X5032762Y11093965D01*
X5177465Y10949262D01*
X5291161Y10779104D01*
X5369477Y10590033D01*
X5409400Y10389323D01*
X5409400Y10184677D01*
X5369477Y9983967D01*
X5291161Y9794896D01*
X5177465Y9624738D01*
X5032762Y9480035D01*
X4862604Y9366339D01*
X4673536Y9288024D01*
X4673535Y9288024D01*
X4673533Y9288023D01*
X4472823Y9248100D01*
X4268177Y9248100D01*
X4067467Y9288023D01*
X4067465Y9288024D01*
X4067464Y9288024D01*
X3878396Y9366339D01*
X3708238Y9480035D01*
X3563535Y9624738D01*
X3449839Y9794896D01*
X3371523Y9983967D01*
X3331600Y10184677D01*
X3331600Y10389323D01*
X3371523Y10590033D01*
X3449839Y10779104D01*
X3563535Y10949262D01*
X3708238Y11093965D01*
X3878396Y11207661D01*
X4067464Y11285976D01*
X4067465Y11285976D01*
X4067467Y11285977D01*
X4268177Y11325900D01*
X4472823Y11325900D01*
X4673533Y11285977D01*
G37*
G36*
X12293533Y11285977D02*
G01*
X12293535Y11285976D01*
X12293536Y11285976D01*
X12482604Y11207661D01*
X12652762Y11093965D01*
X12797465Y10949262D01*
X12911161Y10779104D01*
X12989477Y10590033D01*
X13029400Y10389323D01*
X13029400Y10184677D01*
X12989477Y9983967D01*
X12911161Y9794896D01*
X12797465Y9624738D01*
X12652762Y9480035D01*
X12482604Y9366339D01*
X12293536Y9288024D01*
X12293535Y9288024D01*
X12293533Y9288023D01*
X12092823Y9248100D01*
X11888177Y9248100D01*
X11687467Y9288023D01*
X11687465Y9288024D01*
X11687464Y9288024D01*
X11498396Y9366339D01*
X11328238Y9480035D01*
X11183535Y9624738D01*
X11069839Y9794896D01*
X10991523Y9983967D01*
X10951600Y10184677D01*
X10951600Y10389323D01*
X10991523Y10590033D01*
X11069839Y10779104D01*
X11183535Y10949262D01*
X11328238Y11093965D01*
X11498396Y11207661D01*
X11687464Y11285976D01*
X11687465Y11285976D01*
X11687467Y11285977D01*
X11888177Y11325900D01*
X12092823Y11325900D01*
X12293533Y11285977D01*
G37*
G36*
X12293533Y13825977D02*
G01*
X12293535Y13825976D01*
X12293536Y13825976D01*
X12482604Y13747661D01*
X12652762Y13633965D01*
X12797465Y13489262D01*
X12911161Y13319104D01*
X12989477Y13130033D01*
X13029400Y12929323D01*
X13029400Y12724677D01*
X12989477Y12523967D01*
X12911161Y12334896D01*
X12797465Y12164738D01*
X12652762Y12020035D01*
X12482604Y11906339D01*
X12293536Y11828024D01*
X12293535Y11828024D01*
X12293533Y11828023D01*
X12092823Y11788100D01*
X11888177Y11788100D01*
X11687467Y11828023D01*
X11687465Y11828024D01*
X11687464Y11828024D01*
X11498396Y11906339D01*
X11328238Y12020035D01*
X11183535Y12164738D01*
X11069839Y12334896D01*
X10991523Y12523967D01*
X10951600Y12724677D01*
X10951600Y12929323D01*
X10991523Y13130033D01*
X11069839Y13319104D01*
X11183535Y13489262D01*
X11328238Y13633965D01*
X11498396Y13747661D01*
X11687464Y13825976D01*
X11687465Y13825976D01*
X11687467Y13825977D01*
X11888177Y13865900D01*
X12092823Y13865900D01*
X12293533Y13825977D01*
G37*
G36*
X4673533Y13825977D02*
G01*
X4673535Y13825976D01*
X4673536Y13825976D01*
X4862604Y13747661D01*
X5032762Y13633965D01*
X5177465Y13489262D01*
X5291161Y13319104D01*
X5369477Y13130033D01*
X5409400Y12929323D01*
X5409400Y12724677D01*
X5369477Y12523967D01*
X5291161Y12334896D01*
X5177465Y12164738D01*
X5032762Y12020035D01*
X4862604Y11906339D01*
X4673536Y11828024D01*
X4673535Y11828024D01*
X4673533Y11828023D01*
X4472823Y11788100D01*
X4268177Y11788100D01*
X4067467Y11828023D01*
X4067465Y11828024D01*
X4067464Y11828024D01*
X3878396Y11906339D01*
X3708238Y12020035D01*
X3563535Y12164738D01*
X3449839Y12334896D01*
X3371523Y12523967D01*
X3331600Y12724677D01*
X3331600Y12929323D01*
X3371523Y13130033D01*
X3449839Y13319104D01*
X3563535Y13489262D01*
X3708238Y13633965D01*
X3878396Y13747661D01*
X4067464Y13825976D01*
X4067465Y13825976D01*
X4067467Y13825977D01*
X4268177Y13865900D01*
X4472823Y13865900D01*
X4673533Y13825977D01*
G37*
G36*
X5409400Y14328100D02*
G01*
X3331600Y14328100D01*
X3331600Y16405900D01*
X5409400Y16405900D01*
X5409400Y14328100D01*
G37*
G36*
X12293533Y16365977D02*
G01*
X12293535Y16365976D01*
X12293536Y16365976D01*
X12482604Y16287661D01*
X12652762Y16173965D01*
X12797465Y16029262D01*
X12911161Y15859104D01*
X12989477Y15670033D01*
X13029400Y15469323D01*
X13029400Y15264677D01*
X12989477Y15063967D01*
X12911161Y14874896D01*
X12797465Y14704738D01*
X12652762Y14560035D01*
X12482604Y14446339D01*
X12293536Y14368024D01*
X12293535Y14368024D01*
X12293533Y14368023D01*
X12092823Y14328100D01*
X11888177Y14328100D01*
X11687467Y14368023D01*
X11687465Y14368024D01*
X11687464Y14368024D01*
X11498396Y14446339D01*
X11328238Y14560035D01*
X11183535Y14704738D01*
X11069839Y14874896D01*
X10991523Y15063967D01*
X10951600Y15264677D01*
X10951600Y15469323D01*
X10991523Y15670033D01*
X11069839Y15859104D01*
X11183535Y16029262D01*
X11328238Y16173965D01*
X11498396Y16287661D01*
X11687464Y16365976D01*
X11687465Y16365976D01*
X11687467Y16365977D01*
X11888177Y16405900D01*
X12092823Y16405900D01*
X12293533Y16365977D01*
G37*
G36*
X9753533Y16365977D02*
G01*
X9753535Y16365976D01*
X9753536Y16365976D01*
X9942604Y16287661D01*
X10112762Y16173965D01*
X10257465Y16029262D01*
X10371161Y15859104D01*
X10449477Y15670033D01*
X10489400Y15469323D01*
X10489400Y15264677D01*
X10449477Y15063967D01*
X10371161Y14874896D01*
X10257465Y14704738D01*
X10112762Y14560035D01*
X9942604Y14446339D01*
X9753536Y14368024D01*
X9753535Y14368024D01*
X9753533Y14368023D01*
X9552823Y14328100D01*
X9348177Y14328100D01*
X9147467Y14368023D01*
X9147465Y14368024D01*
X9147464Y14368024D01*
X8958396Y14446339D01*
X8788238Y14560035D01*
X8643535Y14704738D01*
X8529839Y14874896D01*
X8451523Y15063967D01*
X8411600Y15264677D01*
X8411600Y15469323D01*
X8451523Y15670033D01*
X8529839Y15859104D01*
X8643535Y16029262D01*
X8788238Y16173965D01*
X8958396Y16287661D01*
X9147464Y16365976D01*
X9147465Y16365976D01*
X9147467Y16365977D01*
X9348177Y16405900D01*
X9552823Y16405900D01*
X9753533Y16365977D01*
G37*
G36*
X7213533Y16365977D02*
G01*
X7213535Y16365976D01*
X7213536Y16365976D01*
X7402604Y16287661D01*
X7572762Y16173965D01*
X7717465Y16029262D01*
X7831161Y15859104D01*
X7909477Y15670033D01*
X7949400Y15469323D01*
X7949400Y15264677D01*
X7909477Y15063967D01*
X7831161Y14874896D01*
X7717465Y14704738D01*
X7572762Y14560035D01*
X7402604Y14446339D01*
X7213536Y14368024D01*
X7213535Y14368024D01*
X7213533Y14368023D01*
X7012823Y14328100D01*
X6808177Y14328100D01*
X6607467Y14368023D01*
X6607465Y14368024D01*
X6607464Y14368024D01*
X6418396Y14446339D01*
X6248238Y14560035D01*
X6103535Y14704738D01*
X5989839Y14874896D01*
X5911523Y15063967D01*
X5871600Y15264677D01*
X5871600Y15469323D01*
X5911523Y15670033D01*
X5989839Y15859104D01*
X6103535Y16029262D01*
X6248238Y16173965D01*
X6418396Y16287661D01*
X6607464Y16365976D01*
X6607465Y16365976D01*
X6607467Y16365977D01*
X6808177Y16405900D01*
X7012823Y16405900D01*
X7213533Y16365977D01*
G37*
G36*
X9671867Y25540819D02*
G01*
X9842736Y25470042D01*
X9996514Y25367291D01*
X10127291Y25236514D01*
X10230042Y25082736D01*
X10300819Y24911867D01*
X10336900Y24730474D01*
X10336900Y24545526D01*
X10300819Y24364133D01*
X10230042Y24193264D01*
X10127291Y24039486D01*
X9996514Y23908709D01*
X9842736Y23805958D01*
X9671867Y23735181D01*
X9490474Y23699100D01*
X9305526Y23699100D01*
X9124133Y23735181D01*
X8953264Y23805958D01*
X8799486Y23908709D01*
X8668709Y24039486D01*
X8565958Y24193264D01*
X8495181Y24364133D01*
X8459100Y24545526D01*
X8459100Y24730474D01*
X8495181Y24911867D01*
X8565958Y25082736D01*
X8668709Y25236514D01*
X8799486Y25367291D01*
X8953264Y25470042D01*
X9124133Y25540819D01*
X9305526Y25576900D01*
X9490474Y25576900D01*
X9671867Y25540819D01*
G37*
G36*
X2051867Y25540819D02*
G01*
X2222736Y25470042D01*
X2376514Y25367291D01*
X2507291Y25236514D01*
X2610042Y25082736D01*
X2680819Y24911867D01*
X2716900Y24730474D01*
X2716900Y24545526D01*
X2680819Y24364133D01*
X2610042Y24193264D01*
X2507291Y24039486D01*
X2376514Y23908709D01*
X2222736Y23805958D01*
X2051867Y23735181D01*
X1870474Y23699100D01*
X1685526Y23699100D01*
X1504133Y23735181D01*
X1333264Y23805958D01*
X1179486Y23908709D01*
X1048709Y24039486D01*
X945958Y24193264D01*
X875181Y24364133D01*
X839100Y24545526D01*
X839100Y24730474D01*
X875181Y24911867D01*
X945958Y25082736D01*
X1048709Y25236514D01*
X1179486Y25367291D01*
X1333264Y25470042D01*
X1504133Y25540819D01*
X1685526Y25576900D01*
X1870474Y25576900D01*
X2051867Y25540819D01*
G37*
G36*
X4591867Y25540819D02*
G01*
X4762736Y25470042D01*
X4916514Y25367291D01*
X5047291Y25236514D01*
X5150042Y25082736D01*
X5220819Y24911867D01*
X5256900Y24730474D01*
X5256900Y24545526D01*
X5220819Y24364133D01*
X5150042Y24193264D01*
X5047291Y24039486D01*
X4916514Y23908709D01*
X4762736Y23805958D01*
X4591867Y23735181D01*
X4410474Y23699100D01*
X4225526Y23699100D01*
X4044133Y23735181D01*
X3873264Y23805958D01*
X3719486Y23908709D01*
X3588709Y24039486D01*
X3485958Y24193264D01*
X3415181Y24364133D01*
X3379100Y24545526D01*
X3379100Y24730474D01*
X3415181Y24911867D01*
X3485958Y25082736D01*
X3588709Y25236514D01*
X3719486Y25367291D01*
X3873264Y25470042D01*
X4044133Y25540819D01*
X4225526Y25576900D01*
X4410474Y25576900D01*
X4591867Y25540819D01*
G37*
G36*
X7131867Y25540819D02*
G01*
X7302736Y25470042D01*
X7456514Y25367291D01*
X7587291Y25236514D01*
X7690042Y25082736D01*
X7760819Y24911867D01*
X7796900Y24730474D01*
X7796900Y24545526D01*
X7760819Y24364133D01*
X7690042Y24193264D01*
X7587291Y24039486D01*
X7456514Y23908709D01*
X7302736Y23805958D01*
X7131867Y23735181D01*
X6950474Y23699100D01*
X6765526Y23699100D01*
X6584133Y23735181D01*
X6413264Y23805958D01*
X6259486Y23908709D01*
X6128709Y24039486D01*
X6025958Y24193264D01*
X5955181Y24364133D01*
X5919100Y24545526D01*
X5919100Y24730474D01*
X5955181Y24911867D01*
X6025958Y25082736D01*
X6128709Y25236514D01*
X6259486Y25367291D01*
X6413264Y25470042D01*
X6584133Y25540819D01*
X6765526Y25576900D01*
X6950474Y25576900D01*
X7131867Y25540819D01*
G37*
G36*
X12211867Y25540819D02*
G01*
X12382736Y25470042D01*
X12536514Y25367291D01*
X12667291Y25236514D01*
X12770042Y25082736D01*
X12840819Y24911867D01*
X12876900Y24730474D01*
X12876900Y24545526D01*
X12840819Y24364133D01*
X12770042Y24193264D01*
X12667291Y24039486D01*
X12536514Y23908709D01*
X12382736Y23805958D01*
X12211867Y23735181D01*
X12030474Y23699100D01*
X11845526Y23699100D01*
X11664133Y23735181D01*
X11493264Y23805958D01*
X11339486Y23908709D01*
X11208709Y24039486D01*
X11105958Y24193264D01*
X11035181Y24364133D01*
X10999100Y24545526D01*
X10999100Y24730474D01*
X11035181Y24911867D01*
X11105958Y25082736D01*
X11208709Y25236514D01*
X11339486Y25367291D01*
X11493264Y25470042D01*
X11664133Y25540819D01*
X11845526Y25576900D01*
X12030474Y25576900D01*
X12211867Y25540819D01*
G37*
G36*
X14751867Y25540819D02*
G01*
X14922736Y25470042D01*
X15076514Y25367291D01*
X15207291Y25236514D01*
X15310042Y25082736D01*
X15380819Y24911867D01*
X15416900Y24730474D01*
X15416900Y24545526D01*
X15380819Y24364133D01*
X15310042Y24193264D01*
X15207291Y24039486D01*
X15076514Y23908709D01*
X14922736Y23805958D01*
X14751867Y23735181D01*
X14570474Y23699100D01*
X14385526Y23699100D01*
X14204133Y23735181D01*
X14033264Y23805958D01*
X13879486Y23908709D01*
X13748709Y24039486D01*
X13645958Y24193264D01*
X13575181Y24364133D01*
X13539100Y24545526D01*
X13539100Y24730474D01*
X13575181Y24911867D01*
X13645958Y25082736D01*
X13748709Y25236514D01*
X13879486Y25367291D01*
X14033264Y25470042D01*
X14204133Y25540819D01*
X14385526Y25576900D01*
X14570474Y25576900D01*
X14751867Y25540819D01*
G37*
G36*
X17956900Y23699100D02*
G01*
X16079100Y23699100D01*
X16079100Y25576900D01*
X17956900Y25576900D01*
X17956900Y23699100D01*
G37*
M02*
