G04 #@! TF.GenerationSoftware,KiCad,Pcbnew,(5.1.5)-3*
G04 #@! TF.CreationDate,2020-03-16T23:27:22+01:00*
G04 #@! TF.ProjectId,switch,73776974-6368-42e6-9b69-6361645f7063,rev?*
G04 #@! TF.SameCoordinates,PX18f3350PY2d4c310*
G04 #@! TF.FileFunction,Legend,Top*
G04 #@! TF.FilePolarity,Positive*
%FSLAX46Y46*%
G04 Gerber Fmt 4.6, Leading zero omitted, Abs format (unit mm)*
G04 Created by KiCad (PCBNEW (5.1.5)-3) date 2020-03-16 23:27:22*
%MOMM*%
%LPD*%
G04 APERTURE LIST*
%ADD10C,0.150000*%
%ADD11C,0.203200*%
%ADD12C,0.050000*%
%ADD13C,0.120000*%
G04 APERTURE END LIST*
D10*
X9072523Y7457358D02*
X9024904Y7409739D01*
X8882047Y7362120D01*
X8786809Y7362120D01*
X8643952Y7409739D01*
X8548714Y7504977D01*
X8501095Y7600215D01*
X8453476Y7790691D01*
X8453476Y7933548D01*
X8501095Y8124024D01*
X8548714Y8219262D01*
X8643952Y8314500D01*
X8786809Y8362120D01*
X8882047Y8362120D01*
X9024904Y8314500D01*
X9072523Y8266881D01*
X2797023Y12537358D02*
X2749404Y12489739D01*
X2606547Y12442120D01*
X2511309Y12442120D01*
X2368452Y12489739D01*
X2273214Y12584977D01*
X2225595Y12680215D01*
X2177976Y12870691D01*
X2177976Y13013548D01*
X2225595Y13204024D01*
X2273214Y13299262D01*
X2368452Y13394500D01*
X2511309Y13442120D01*
X2606547Y13442120D01*
X2749404Y13394500D01*
X2797023Y13346881D01*
X14227023Y12537358D02*
X14179404Y12489739D01*
X14036547Y12442120D01*
X13941309Y12442120D01*
X13798452Y12489739D01*
X13703214Y12584977D01*
X13655595Y12680215D01*
X13607976Y12870691D01*
X13607976Y13013548D01*
X13655595Y13204024D01*
X13703214Y13299262D01*
X13798452Y13394500D01*
X13941309Y13442120D01*
X14036547Y13442120D01*
X14179404Y13394500D01*
X14227023Y13346881D01*
X13631785Y10806881D02*
X13679404Y10854500D01*
X13774642Y10902120D01*
X14012738Y10902120D01*
X14107976Y10854500D01*
X14155595Y10806881D01*
X14203214Y10711643D01*
X14203214Y10616405D01*
X14155595Y10473548D01*
X13584166Y9902120D01*
X14203214Y9902120D01*
X2677976Y10568786D02*
X2677976Y9902120D01*
X2439880Y10949739D02*
X2201785Y10235453D01*
X2820833Y10235453D01*
X11895261Y17391048D02*
X11800023Y17438667D01*
X11752404Y17486286D01*
X11704785Y17581524D01*
X11704785Y17629143D01*
X11752404Y17724381D01*
X11800023Y17772000D01*
X11895261Y17819620D01*
X12085738Y17819620D01*
X12180976Y17772000D01*
X12228595Y17724381D01*
X12276214Y17629143D01*
X12276214Y17581524D01*
X12228595Y17486286D01*
X12180976Y17438667D01*
X12085738Y17391048D01*
X11895261Y17391048D01*
X11800023Y17343429D01*
X11752404Y17295810D01*
X11704785Y17200572D01*
X11704785Y17010096D01*
X11752404Y16914858D01*
X11800023Y16867239D01*
X11895261Y16819620D01*
X12085738Y16819620D01*
X12180976Y16867239D01*
X12228595Y16914858D01*
X12276214Y17010096D01*
X12276214Y17200572D01*
X12228595Y17295810D01*
X12180976Y17343429D01*
X12085738Y17391048D01*
X9640976Y17486286D02*
X9640976Y16819620D01*
X9402880Y17867239D02*
X9164785Y17152953D01*
X9783833Y17152953D01*
X6624785Y17724381D02*
X6672404Y17772000D01*
X6767642Y17819620D01*
X7005738Y17819620D01*
X7100976Y17772000D01*
X7148595Y17724381D01*
X7196214Y17629143D01*
X7196214Y17533905D01*
X7148595Y17391048D01*
X6577166Y16819620D01*
X7196214Y16819620D01*
X4656214Y16819620D02*
X4084785Y16819620D01*
X4370500Y16819620D02*
X4370500Y17819620D01*
X4275261Y17676762D01*
X4180023Y17581524D01*
X4084785Y17533905D01*
X16256095Y22598000D02*
X16160857Y22645620D01*
X16018000Y22645620D01*
X15875142Y22598000D01*
X15779904Y22502762D01*
X15732285Y22407524D01*
X15684666Y22217048D01*
X15684666Y22074191D01*
X15732285Y21883715D01*
X15779904Y21788477D01*
X15875142Y21693239D01*
X16018000Y21645620D01*
X16113238Y21645620D01*
X16256095Y21693239D01*
X16303714Y21740858D01*
X16303714Y22074191D01*
X16113238Y22074191D01*
X16732285Y21645620D02*
X16732285Y22645620D01*
X17303714Y21645620D01*
X17303714Y22645620D01*
X17779904Y21645620D02*
X17779904Y22645620D01*
X18018000Y22645620D01*
X18160857Y22598000D01*
X18256095Y22502762D01*
X18303714Y22407524D01*
X18351333Y22217048D01*
X18351333Y22074191D01*
X18303714Y21883715D01*
X18256095Y21788477D01*
X18160857Y21693239D01*
X18018000Y21645620D01*
X17779904Y21645620D01*
D11*
X3370556Y5145839D02*
X3513413Y5098220D01*
X3751508Y5098220D01*
X3846746Y5145839D01*
X3894365Y5193458D01*
X3941984Y5288696D01*
X3941984Y5383934D01*
X3894365Y5479172D01*
X3846746Y5526791D01*
X3751508Y5574410D01*
X3561032Y5622029D01*
X3465794Y5669648D01*
X3418175Y5717267D01*
X3370556Y5812505D01*
X3370556Y5907743D01*
X3418175Y6002981D01*
X3465794Y6050600D01*
X3561032Y6098220D01*
X3799127Y6098220D01*
X3941984Y6050600D01*
X4227699Y6098220D02*
X4799127Y6098220D01*
X4513413Y5098220D02*
X4513413Y6098220D01*
X5132460Y5098220D02*
X5132460Y6098220D01*
X5608651Y5098220D02*
X5608651Y6098220D01*
X5941984Y5383934D01*
X6275318Y6098220D01*
X6275318Y5098220D01*
X6751508Y6098220D02*
X6751508Y5288696D01*
X6799127Y5193458D01*
X6846746Y5145839D01*
X6941984Y5098220D01*
X7132460Y5098220D01*
X7227699Y5145839D01*
X7275318Y5193458D01*
X7322937Y5288696D01*
X7322937Y6098220D01*
X7799127Y5098220D02*
X7799127Y6098220D01*
X8037222Y6098220D01*
X8180080Y6050600D01*
X8275318Y5955362D01*
X8322937Y5860124D01*
X8370556Y5669648D01*
X8370556Y5526791D01*
X8322937Y5336315D01*
X8275318Y5241077D01*
X8180080Y5145839D01*
X8037222Y5098220D01*
X7799127Y5098220D01*
X10132460Y5098220D02*
X9799127Y5574410D01*
X9561032Y5098220D02*
X9561032Y6098220D01*
X9941984Y6098220D01*
X10037222Y6050600D01*
X10084841Y6002981D01*
X10132460Y5907743D01*
X10132460Y5764886D01*
X10084841Y5669648D01*
X10037222Y5622029D01*
X9941984Y5574410D01*
X9561032Y5574410D01*
X10941984Y5145839D02*
X10846746Y5098220D01*
X10656270Y5098220D01*
X10561032Y5145839D01*
X10513413Y5241077D01*
X10513413Y5622029D01*
X10561032Y5717267D01*
X10656270Y5764886D01*
X10846746Y5764886D01*
X10941984Y5717267D01*
X10989603Y5622029D01*
X10989603Y5526791D01*
X10513413Y5431553D01*
X11322937Y5764886D02*
X11561032Y5098220D01*
X11799127Y5764886D01*
X12180080Y5193458D02*
X12227699Y5145839D01*
X12180080Y5098220D01*
X12132460Y5145839D01*
X12180080Y5193458D01*
X12180080Y5098220D01*
X13370556Y5383934D02*
X13846746Y5383934D01*
X13275318Y5098220D02*
X13608651Y6098220D01*
X13941984Y5098220D01*
X3418175Y3395020D02*
X3418175Y4395020D01*
X3656270Y4395020D01*
X3799127Y4347400D01*
X3894365Y4252162D01*
X3941984Y4156924D01*
X3989603Y3966448D01*
X3989603Y3823591D01*
X3941984Y3633115D01*
X3894365Y3537877D01*
X3799127Y3442639D01*
X3656270Y3395020D01*
X3418175Y3395020D01*
X4846746Y3395020D02*
X4846746Y3918829D01*
X4799127Y4014067D01*
X4703889Y4061686D01*
X4513413Y4061686D01*
X4418175Y4014067D01*
X4846746Y3442639D02*
X4751508Y3395020D01*
X4513413Y3395020D01*
X4418175Y3442639D01*
X4370556Y3537877D01*
X4370556Y3633115D01*
X4418175Y3728353D01*
X4513413Y3775972D01*
X4751508Y3775972D01*
X4846746Y3823591D01*
X5322937Y4061686D02*
X5322937Y3395020D01*
X5322937Y3966448D02*
X5370556Y4014067D01*
X5465794Y4061686D01*
X5608651Y4061686D01*
X5703889Y4014067D01*
X5751508Y3918829D01*
X5751508Y3395020D01*
X6227699Y3395020D02*
X6227699Y4061686D01*
X6227699Y4395020D02*
X6180080Y4347400D01*
X6227699Y4299781D01*
X6275318Y4347400D01*
X6227699Y4395020D01*
X6227699Y4299781D01*
X7084841Y3442639D02*
X6989603Y3395020D01*
X6799127Y3395020D01*
X6703889Y3442639D01*
X6656270Y3537877D01*
X6656270Y3918829D01*
X6703889Y4014067D01*
X6799127Y4061686D01*
X6989603Y4061686D01*
X7084841Y4014067D01*
X7132460Y3918829D01*
X7132460Y3823591D01*
X6656270Y3728353D01*
X7703889Y3395020D02*
X7608651Y3442639D01*
X7561032Y3537877D01*
X7561032Y4395020D01*
X8799127Y3442639D02*
X8941984Y3395020D01*
X9180080Y3395020D01*
X9275318Y3442639D01*
X9322937Y3490258D01*
X9370556Y3585496D01*
X9370556Y3680734D01*
X9322937Y3775972D01*
X9275318Y3823591D01*
X9180080Y3871210D01*
X8989603Y3918829D01*
X8894365Y3966448D01*
X8846746Y4014067D01*
X8799127Y4109305D01*
X8799127Y4204543D01*
X8846746Y4299781D01*
X8894365Y4347400D01*
X8989603Y4395020D01*
X9227699Y4395020D01*
X9370556Y4347400D01*
X9656270Y4061686D02*
X10037222Y4061686D01*
X9799127Y4395020D02*
X9799127Y3537877D01*
X9846746Y3442639D01*
X9941984Y3395020D01*
X10037222Y3395020D01*
X10799127Y3395020D02*
X10799127Y3918829D01*
X10751508Y4014067D01*
X10656270Y4061686D01*
X10465794Y4061686D01*
X10370556Y4014067D01*
X10799127Y3442639D02*
X10703889Y3395020D01*
X10465794Y3395020D01*
X10370556Y3442639D01*
X10322937Y3537877D01*
X10322937Y3633115D01*
X10370556Y3728353D01*
X10465794Y3775972D01*
X10703889Y3775972D01*
X10799127Y3823591D01*
X11275318Y3395020D02*
X11275318Y4061686D01*
X11275318Y3871210D02*
X11322937Y3966448D01*
X11370556Y4014067D01*
X11465794Y4061686D01*
X11561032Y4061686D01*
X11894365Y3395020D02*
X11894365Y4395020D01*
X11989603Y3775972D02*
X12275318Y3395020D01*
X12275318Y4061686D02*
X11894365Y3680734D01*
X13084841Y3442639D02*
X12989603Y3395020D01*
X12799127Y3395020D01*
X12703889Y3442639D01*
X12656270Y3537877D01*
X12656270Y3918829D01*
X12703889Y4014067D01*
X12799127Y4061686D01*
X12989603Y4061686D01*
X13084841Y4014067D01*
X13132460Y3918829D01*
X13132460Y3823591D01*
X12656270Y3728353D01*
D10*
X12390380Y18891334D02*
X12390380Y18319905D01*
X12390380Y18605620D02*
X11390380Y18605620D01*
X11533238Y18510381D01*
X11628476Y18415143D01*
X11676095Y18319905D01*
X12390380Y19367524D02*
X12390380Y19558000D01*
X12342761Y19653239D01*
X12295142Y19700858D01*
X12152285Y19796096D01*
X11961809Y19843715D01*
X11580857Y19843715D01*
X11485619Y19796096D01*
X11438000Y19748477D01*
X11390380Y19653239D01*
X11390380Y19462762D01*
X11438000Y19367524D01*
X11485619Y19319905D01*
X11580857Y19272286D01*
X11818952Y19272286D01*
X11914190Y19319905D01*
X11961809Y19367524D01*
X12009428Y19462762D01*
X12009428Y19653239D01*
X11961809Y19748477D01*
X11914190Y19796096D01*
X11818952Y19843715D01*
X11390380Y20700858D02*
X11390380Y20510381D01*
X11438000Y20415143D01*
X11485619Y20367524D01*
X11628476Y20272286D01*
X11818952Y20224667D01*
X12199904Y20224667D01*
X12295142Y20272286D01*
X12342761Y20319905D01*
X12390380Y20415143D01*
X12390380Y20605620D01*
X12342761Y20700858D01*
X12295142Y20748477D01*
X12199904Y20796096D01*
X11961809Y20796096D01*
X11866571Y20748477D01*
X11818952Y20700858D01*
X11771333Y20605620D01*
X11771333Y20415143D01*
X11818952Y20319905D01*
X11866571Y20272286D01*
X11961809Y20224667D01*
X14930380Y18891334D02*
X14930380Y18319905D01*
X14930380Y18605620D02*
X13930380Y18605620D01*
X14073238Y18510381D01*
X14168476Y18415143D01*
X14216095Y18319905D01*
X14930380Y19367524D02*
X14930380Y19558000D01*
X14882761Y19653239D01*
X14835142Y19700858D01*
X14692285Y19796096D01*
X14501809Y19843715D01*
X14120857Y19843715D01*
X14025619Y19796096D01*
X13978000Y19748477D01*
X13930380Y19653239D01*
X13930380Y19462762D01*
X13978000Y19367524D01*
X14025619Y19319905D01*
X14120857Y19272286D01*
X14358952Y19272286D01*
X14454190Y19319905D01*
X14501809Y19367524D01*
X14549428Y19462762D01*
X14549428Y19653239D01*
X14501809Y19748477D01*
X14454190Y19796096D01*
X14358952Y19843715D01*
X13930380Y20177048D02*
X13930380Y20843715D01*
X14930380Y20415143D01*
X4770380Y18891334D02*
X4770380Y18319905D01*
X4770380Y18605620D02*
X3770380Y18605620D01*
X3913238Y18510381D01*
X4008476Y18415143D01*
X4056095Y18319905D01*
X4770380Y19367524D02*
X4770380Y19558000D01*
X4722761Y19653239D01*
X4675142Y19700858D01*
X4532285Y19796096D01*
X4341809Y19843715D01*
X3960857Y19843715D01*
X3865619Y19796096D01*
X3818000Y19748477D01*
X3770380Y19653239D01*
X3770380Y19462762D01*
X3818000Y19367524D01*
X3865619Y19319905D01*
X3960857Y19272286D01*
X4198952Y19272286D01*
X4294190Y19319905D01*
X4341809Y19367524D01*
X4389428Y19462762D01*
X4389428Y19653239D01*
X4341809Y19748477D01*
X4294190Y19796096D01*
X4198952Y19843715D01*
X3770380Y20177048D02*
X3770380Y20796096D01*
X4151333Y20462762D01*
X4151333Y20605620D01*
X4198952Y20700858D01*
X4246571Y20748477D01*
X4341809Y20796096D01*
X4579904Y20796096D01*
X4675142Y20748477D01*
X4722761Y20700858D01*
X4770380Y20605620D01*
X4770380Y20319905D01*
X4722761Y20224667D01*
X4675142Y20177048D01*
X7310380Y18891334D02*
X7310380Y18319905D01*
X7310380Y18605620D02*
X6310380Y18605620D01*
X6453238Y18510381D01*
X6548476Y18415143D01*
X6596095Y18319905D01*
X7310380Y19367524D02*
X7310380Y19558000D01*
X7262761Y19653239D01*
X7215142Y19700858D01*
X7072285Y19796096D01*
X6881809Y19843715D01*
X6500857Y19843715D01*
X6405619Y19796096D01*
X6358000Y19748477D01*
X6310380Y19653239D01*
X6310380Y19462762D01*
X6358000Y19367524D01*
X6405619Y19319905D01*
X6500857Y19272286D01*
X6738952Y19272286D01*
X6834190Y19319905D01*
X6881809Y19367524D01*
X6929428Y19462762D01*
X6929428Y19653239D01*
X6881809Y19748477D01*
X6834190Y19796096D01*
X6738952Y19843715D01*
X6643714Y20700858D02*
X7310380Y20700858D01*
X6262761Y20462762D02*
X6977047Y20224667D01*
X6977047Y20843715D01*
X9850380Y18891334D02*
X9850380Y18319905D01*
X9850380Y18605620D02*
X8850380Y18605620D01*
X8993238Y18510381D01*
X9088476Y18415143D01*
X9136095Y18319905D01*
X9850380Y19367524D02*
X9850380Y19558000D01*
X9802761Y19653239D01*
X9755142Y19700858D01*
X9612285Y19796096D01*
X9421809Y19843715D01*
X9040857Y19843715D01*
X8945619Y19796096D01*
X8898000Y19748477D01*
X8850380Y19653239D01*
X8850380Y19462762D01*
X8898000Y19367524D01*
X8945619Y19319905D01*
X9040857Y19272286D01*
X9278952Y19272286D01*
X9374190Y19319905D01*
X9421809Y19367524D01*
X9469428Y19462762D01*
X9469428Y19653239D01*
X9421809Y19748477D01*
X9374190Y19796096D01*
X9278952Y19843715D01*
X8850380Y20748477D02*
X8850380Y20272286D01*
X9326571Y20224667D01*
X9278952Y20272286D01*
X9231333Y20367524D01*
X9231333Y20605620D01*
X9278952Y20700858D01*
X9326571Y20748477D01*
X9421809Y20796096D01*
X9659904Y20796096D01*
X9755142Y20748477D01*
X9802761Y20700858D01*
X9850380Y20605620D01*
X9850380Y20367524D01*
X9802761Y20272286D01*
X9755142Y20224667D01*
X2230380Y18891334D02*
X2230380Y18319905D01*
X2230380Y18605620D02*
X1230380Y18605620D01*
X1373238Y18510381D01*
X1468476Y18415143D01*
X1516095Y18319905D01*
X2230380Y19367524D02*
X2230380Y19558000D01*
X2182761Y19653239D01*
X2135142Y19700858D01*
X1992285Y19796096D01*
X1801809Y19843715D01*
X1420857Y19843715D01*
X1325619Y19796096D01*
X1278000Y19748477D01*
X1230380Y19653239D01*
X1230380Y19462762D01*
X1278000Y19367524D01*
X1325619Y19319905D01*
X1420857Y19272286D01*
X1658952Y19272286D01*
X1754190Y19319905D01*
X1801809Y19367524D01*
X1849428Y19462762D01*
X1849428Y19653239D01*
X1801809Y19748477D01*
X1754190Y19796096D01*
X1658952Y19843715D01*
X1325619Y20224667D02*
X1278000Y20272286D01*
X1230380Y20367524D01*
X1230380Y20605620D01*
X1278000Y20700858D01*
X1325619Y20748477D01*
X1420857Y20796096D01*
X1516095Y20796096D01*
X1658952Y20748477D01*
X2230380Y20177048D01*
X2230380Y20796096D01*
X14716095Y22645620D02*
X14239904Y22645620D01*
X14192285Y22169429D01*
X14239904Y22217048D01*
X14335142Y22264667D01*
X14573238Y22264667D01*
X14668476Y22217048D01*
X14716095Y22169429D01*
X14763714Y22074191D01*
X14763714Y21836096D01*
X14716095Y21740858D01*
X14668476Y21693239D01*
X14573238Y21645620D01*
X14335142Y21645620D01*
X14239904Y21693239D01*
X14192285Y21740858D01*
X12128476Y22312286D02*
X12128476Y21645620D01*
X11890380Y22693239D02*
X11652285Y21978953D01*
X12271333Y21978953D01*
X9064666Y22645620D02*
X9683714Y22645620D01*
X9350380Y22264667D01*
X9493238Y22264667D01*
X9588476Y22217048D01*
X9636095Y22169429D01*
X9683714Y22074191D01*
X9683714Y21836096D01*
X9636095Y21740858D01*
X9588476Y21693239D01*
X9493238Y21645620D01*
X9207523Y21645620D01*
X9112285Y21693239D01*
X9064666Y21740858D01*
X6572285Y22550381D02*
X6619904Y22598000D01*
X6715142Y22645620D01*
X6953238Y22645620D01*
X7048476Y22598000D01*
X7096095Y22550381D01*
X7143714Y22455143D01*
X7143714Y22359905D01*
X7096095Y22217048D01*
X6524666Y21645620D01*
X7143714Y21645620D01*
X4603714Y21645620D02*
X4032285Y21645620D01*
X4318000Y21645620D02*
X4318000Y22645620D01*
X4222761Y22502762D01*
X4127523Y22407524D01*
X4032285Y22359905D01*
X1730380Y22645620D02*
X1825619Y22645620D01*
X1920857Y22598000D01*
X1968476Y22550381D01*
X2016095Y22455143D01*
X2063714Y22264667D01*
X2063714Y22026572D01*
X2016095Y21836096D01*
X1968476Y21740858D01*
X1920857Y21693239D01*
X1825619Y21645620D01*
X1730380Y21645620D01*
X1635142Y21693239D01*
X1587523Y21740858D01*
X1539904Y21836096D01*
X1492285Y22026572D01*
X1492285Y22264667D01*
X1539904Y22455143D01*
X1587523Y22550381D01*
X1635142Y22598000D01*
X1730380Y22645620D01*
D12*
X18796000Y26416000D02*
X0Y26416000D01*
X18796000Y0D02*
X18796000Y26416000D01*
X0Y0D02*
X18796000Y0D01*
X0Y26416000D02*
X0Y0D01*
D13*
X2950500Y16847000D02*
X4320500Y16847000D01*
X2950500Y15477000D02*
X2950500Y16847000D01*
X8180500Y13477000D02*
X9460500Y12197000D01*
X6900500Y12197000D02*
X8180500Y13477000D01*
X8180500Y13350000D02*
X8180500Y9510000D01*
X2950500Y16847000D02*
X4320500Y16847000D01*
X2950500Y15477000D02*
X2950500Y16847000D01*
X13120500Y12827000D02*
X13120500Y11437000D01*
X13120500Y15367000D02*
X13120500Y13977000D01*
X3240500Y12827000D02*
X3240500Y11437000D01*
X3240500Y15367000D02*
X3240500Y13977000D01*
X13120500Y6517000D02*
X13120500Y6597000D01*
X3230500Y6517000D02*
X13120500Y6517000D01*
X3230500Y6597000D02*
X3230500Y6517000D01*
X13120500Y16597000D02*
X13120500Y16517000D01*
X3230500Y16597000D02*
X13120500Y16597000D01*
X3230500Y16517000D02*
X3230500Y16597000D01*
X10740500Y11430000D02*
G75*
G03X10740500Y11430000I-2560000J0D01*
G01*
D10*
X13525666Y16867239D02*
X13668523Y16819620D01*
X13906619Y16819620D01*
X14001857Y16867239D01*
X14049476Y16914858D01*
X14097095Y17010096D01*
X14097095Y17105334D01*
X14049476Y17200572D01*
X14001857Y17248191D01*
X13906619Y17295810D01*
X13716142Y17343429D01*
X13620904Y17391048D01*
X13573285Y17438667D01*
X13525666Y17533905D01*
X13525666Y17629143D01*
X13573285Y17724381D01*
X13620904Y17772000D01*
X13716142Y17819620D01*
X13954238Y17819620D01*
X14097095Y17772000D01*
X14430428Y17819620D02*
X14668523Y16819620D01*
X14859000Y17533905D01*
X15049476Y16819620D01*
X15287571Y17819620D01*
X16192333Y16819620D02*
X15620904Y16819620D01*
X15906619Y16819620D02*
X15906619Y17819620D01*
X15811380Y17676762D01*
X15716142Y17581524D01*
X15620904Y17533905D01*
M02*
