G04 #@! TF.GenerationSoftware,KiCad,Pcbnew,(5.1.5)-3*
G04 #@! TF.CreationDate,2020-03-16T23:27:22+01:00*
G04 #@! TF.ProjectId,switch,73776974-6368-42e6-9b69-6361645f7063,rev?*
G04 #@! TF.SameCoordinates,PX18f3350PY2d4c310*
G04 #@! TF.FileFunction,Copper,L1,Top*
G04 #@! TF.FilePolarity,Positive*
%FSLAX46Y46*%
G04 Gerber Fmt 4.6, Leading zero omitted, Abs format (unit mm)*
G04 Created by KiCad (PCBNEW (5.1.5)-3) date 2020-03-16 23:27:22*
%MOMM*%
%LPD*%
G04 APERTURE LIST*
%ADD10C,0.050000*%
%ADD11O,1.700000X1.700000*%
%ADD12C,1.700000*%
%ADD13R,1.700000X1.700000*%
%ADD14C,1.900000*%
%ADD15R,1.900000X1.900000*%
%ADD16C,0.457200*%
%ADD17C,0.254000*%
G04 APERTURE END LIST*
D10*
X18796000Y26416000D02*
X0Y26416000D01*
X18796000Y0D02*
X18796000Y26416000D01*
X0Y0D02*
X18796000Y0D01*
X0Y26416000D02*
X0Y0D01*
D11*
X17018000Y1778000D03*
X14478000Y1778000D03*
X11938000Y1778000D03*
X9398000Y1778000D03*
X6858000Y1778000D03*
X4318000Y1778000D03*
D12*
X1778000Y1778000D03*
D13*
X17018000Y24638000D03*
D11*
X14478000Y24638000D03*
X11938000Y24638000D03*
X9398000Y24638000D03*
X6858000Y24638000D03*
X4318000Y24638000D03*
D12*
X1778000Y24638000D03*
D14*
X11990500Y10287000D03*
X4370500Y10287000D03*
X11990500Y12827000D03*
X4370500Y12827000D03*
X11990500Y15367000D03*
D15*
X4370500Y15367000D03*
D14*
X6910500Y7747000D03*
X9450500Y15367000D03*
X6910500Y15367000D03*
X11990500Y15367000D03*
D15*
X4370500Y15367000D03*
D16*
X9398000Y24638000D02*
X9398000Y17780000D01*
X9398000Y17780000D02*
X9398000Y15367000D01*
X3048000Y17780000D02*
X9398000Y17780000D01*
X1778000Y16510000D02*
X3048000Y17780000D01*
X4370500Y10287000D02*
X1778000Y12879500D01*
X1778000Y12879500D02*
X1778000Y16510000D01*
X6910500Y15367000D02*
X6858000Y15367000D01*
X11990500Y10287000D02*
X6910500Y15367000D01*
D17*
G36*
X17145000Y24765000D02*
G01*
X17165000Y24765000D01*
X17165000Y24511000D01*
X17145000Y24511000D01*
X17145000Y23311750D01*
X17303750Y23153000D01*
X17868000Y23149928D01*
X17992482Y23162188D01*
X18112180Y23198498D01*
X18136001Y23211231D01*
X18136000Y2760107D01*
X17964632Y2931475D01*
X17721411Y3093990D01*
X17451158Y3205932D01*
X17164260Y3263000D01*
X16871740Y3263000D01*
X16584842Y3205932D01*
X16314589Y3093990D01*
X16071368Y2931475D01*
X15864525Y2724632D01*
X15748000Y2550240D01*
X15631475Y2724632D01*
X15424632Y2931475D01*
X15181411Y3093990D01*
X14911158Y3205932D01*
X14624260Y3263000D01*
X14331740Y3263000D01*
X14044842Y3205932D01*
X13774589Y3093990D01*
X13531368Y2931475D01*
X13324525Y2724632D01*
X13208000Y2550240D01*
X13091475Y2724632D01*
X12884632Y2931475D01*
X12641411Y3093990D01*
X12371158Y3205932D01*
X12084260Y3263000D01*
X11791740Y3263000D01*
X11504842Y3205932D01*
X11234589Y3093990D01*
X10991368Y2931475D01*
X10784525Y2724632D01*
X10668000Y2550240D01*
X10551475Y2724632D01*
X10344632Y2931475D01*
X10101411Y3093990D01*
X9831158Y3205932D01*
X9544260Y3263000D01*
X9251740Y3263000D01*
X8964842Y3205932D01*
X8694589Y3093990D01*
X8451368Y2931475D01*
X8244525Y2724632D01*
X8128000Y2550240D01*
X8011475Y2724632D01*
X7804632Y2931475D01*
X7561411Y3093990D01*
X7291158Y3205932D01*
X7004260Y3263000D01*
X6711740Y3263000D01*
X6424842Y3205932D01*
X6154589Y3093990D01*
X5911368Y2931475D01*
X5704525Y2724632D01*
X5588000Y2550240D01*
X5471475Y2724632D01*
X5264632Y2931475D01*
X5021411Y3093990D01*
X4751158Y3205932D01*
X4464260Y3263000D01*
X4171740Y3263000D01*
X3884842Y3205932D01*
X3614589Y3093990D01*
X3371368Y2931475D01*
X3164525Y2724632D01*
X3048000Y2550240D01*
X2931475Y2724632D01*
X2724632Y2931475D01*
X2481411Y3093990D01*
X2211158Y3205932D01*
X1924260Y3263000D01*
X1631740Y3263000D01*
X1344842Y3205932D01*
X1074589Y3093990D01*
X831368Y2931475D01*
X660000Y2760107D01*
X660000Y7903109D01*
X5325500Y7903109D01*
X5325500Y7590891D01*
X5386411Y7284673D01*
X5505891Y6996221D01*
X5679350Y6736621D01*
X5900121Y6515850D01*
X6159721Y6342391D01*
X6448173Y6222911D01*
X6754391Y6162000D01*
X7066609Y6162000D01*
X7372827Y6222911D01*
X7661279Y6342391D01*
X7920879Y6515850D01*
X8141650Y6736621D01*
X8315109Y6996221D01*
X8434589Y7284673D01*
X8495500Y7590891D01*
X8495500Y7903109D01*
X8434589Y8209327D01*
X8315109Y8497779D01*
X8141650Y8757379D01*
X7920879Y8978150D01*
X7661279Y9151609D01*
X7372827Y9271089D01*
X7066609Y9332000D01*
X6754391Y9332000D01*
X6448173Y9271089D01*
X6159721Y9151609D01*
X5900121Y8978150D01*
X5679350Y8757379D01*
X5505891Y8497779D01*
X5386411Y8209327D01*
X5325500Y7903109D01*
X660000Y7903109D01*
X660000Y23655893D01*
X831368Y23484525D01*
X1074589Y23322010D01*
X1344842Y23210068D01*
X1631740Y23153000D01*
X1924260Y23153000D01*
X2211158Y23210068D01*
X2481411Y23322010D01*
X2724632Y23484525D01*
X2931475Y23691368D01*
X3048000Y23865760D01*
X3164525Y23691368D01*
X3371368Y23484525D01*
X3614589Y23322010D01*
X3884842Y23210068D01*
X4171740Y23153000D01*
X4464260Y23153000D01*
X4751158Y23210068D01*
X5021411Y23322010D01*
X5264632Y23484525D01*
X5471475Y23691368D01*
X5588000Y23865760D01*
X5704525Y23691368D01*
X5911368Y23484525D01*
X6154589Y23322010D01*
X6424842Y23210068D01*
X6711740Y23153000D01*
X7004260Y23153000D01*
X7291158Y23210068D01*
X7561411Y23322010D01*
X7804632Y23484525D01*
X8011475Y23691368D01*
X8128000Y23865760D01*
X8244525Y23691368D01*
X8451368Y23484525D01*
X8534400Y23429045D01*
X8534401Y18643600D01*
X3090417Y18643600D01*
X3047999Y18647778D01*
X3005582Y18643600D01*
X3005580Y18643600D01*
X2878705Y18631104D01*
X2715916Y18581722D01*
X2565888Y18501531D01*
X2434388Y18393612D01*
X2407345Y18360660D01*
X1197346Y17150659D01*
X1164389Y17123612D01*
X1110928Y17058469D01*
X1056469Y16992111D01*
X976279Y16842084D01*
X926896Y16679294D01*
X910222Y16510000D01*
X914401Y16467570D01*
X914400Y12921920D01*
X910222Y12879500D01*
X914400Y12837081D01*
X926896Y12710206D01*
X976278Y12547417D01*
X1056469Y12397389D01*
X1164388Y12265888D01*
X1197351Y12238836D01*
X2819939Y10616246D01*
X2785500Y10443109D01*
X2785500Y10130891D01*
X2846411Y9824673D01*
X2965891Y9536221D01*
X3139350Y9276621D01*
X3360121Y9055850D01*
X3619721Y8882391D01*
X3908173Y8762911D01*
X4214391Y8702000D01*
X4526609Y8702000D01*
X4832827Y8762911D01*
X5121279Y8882391D01*
X5380879Y9055850D01*
X5601650Y9276621D01*
X5775109Y9536221D01*
X5894589Y9824673D01*
X5955500Y10130891D01*
X5955500Y10443109D01*
X5894589Y10749327D01*
X5775109Y11037779D01*
X5601650Y11297379D01*
X5380879Y11518150D01*
X5322736Y11557000D01*
X5380879Y11595850D01*
X5601650Y11816621D01*
X5775109Y12076221D01*
X5894589Y12364673D01*
X5955500Y12670891D01*
X5955500Y12983109D01*
X5894589Y13289327D01*
X5775109Y13577779D01*
X5601650Y13837379D01*
X5595211Y13843818D01*
X5674994Y13886463D01*
X5771685Y13965815D01*
X5851037Y14062506D01*
X5893682Y14142289D01*
X5900121Y14135850D01*
X6159721Y13962391D01*
X6448173Y13842911D01*
X6754391Y13782000D01*
X7066609Y13782000D01*
X7239747Y13816440D01*
X10439939Y10616247D01*
X10405500Y10443109D01*
X10405500Y10130891D01*
X10466411Y9824673D01*
X10585891Y9536221D01*
X10759350Y9276621D01*
X10980121Y9055850D01*
X11239721Y8882391D01*
X11528173Y8762911D01*
X11834391Y8702000D01*
X12146609Y8702000D01*
X12452827Y8762911D01*
X12741279Y8882391D01*
X13000879Y9055850D01*
X13221650Y9276621D01*
X13395109Y9536221D01*
X13514589Y9824673D01*
X13575500Y10130891D01*
X13575500Y10443109D01*
X13514589Y10749327D01*
X13395109Y11037779D01*
X13221650Y11297379D01*
X13000879Y11518150D01*
X12942736Y11557000D01*
X13000879Y11595850D01*
X13221650Y11816621D01*
X13395109Y12076221D01*
X13514589Y12364673D01*
X13575500Y12670891D01*
X13575500Y12983109D01*
X13514589Y13289327D01*
X13395109Y13577779D01*
X13221650Y13837379D01*
X13000879Y14058150D01*
X12942736Y14097000D01*
X13000879Y14135850D01*
X13221650Y14356621D01*
X13395109Y14616221D01*
X13514589Y14904673D01*
X13575500Y15210891D01*
X13575500Y15523109D01*
X13514589Y15829327D01*
X13395109Y16117779D01*
X13221650Y16377379D01*
X13000879Y16598150D01*
X12741279Y16771609D01*
X12452827Y16891089D01*
X12146609Y16952000D01*
X11834391Y16952000D01*
X11528173Y16891089D01*
X11239721Y16771609D01*
X10980121Y16598150D01*
X10759350Y16377379D01*
X10720500Y16319236D01*
X10681650Y16377379D01*
X10460879Y16598150D01*
X10261600Y16731304D01*
X10261600Y17737580D01*
X10265778Y17780000D01*
X10261600Y17822420D01*
X10261600Y23429045D01*
X10344632Y23484525D01*
X10551475Y23691368D01*
X10668000Y23865760D01*
X10784525Y23691368D01*
X10991368Y23484525D01*
X11234589Y23322010D01*
X11504842Y23210068D01*
X11791740Y23153000D01*
X12084260Y23153000D01*
X12371158Y23210068D01*
X12641411Y23322010D01*
X12884632Y23484525D01*
X13091475Y23691368D01*
X13208000Y23865760D01*
X13324525Y23691368D01*
X13531368Y23484525D01*
X13774589Y23322010D01*
X14044842Y23210068D01*
X14331740Y23153000D01*
X14624260Y23153000D01*
X14911158Y23210068D01*
X15181411Y23322010D01*
X15424632Y23484525D01*
X15556487Y23616380D01*
X15578498Y23543820D01*
X15637463Y23433506D01*
X15716815Y23336815D01*
X15813506Y23257463D01*
X15923820Y23198498D01*
X16043518Y23162188D01*
X16168000Y23149928D01*
X16732250Y23153000D01*
X16891000Y23311750D01*
X16891000Y24511000D01*
X16871000Y24511000D01*
X16871000Y24765000D01*
X16891000Y24765000D01*
X16891000Y24785000D01*
X17145000Y24785000D01*
X17145000Y24765000D01*
G37*
X17145000Y24765000D02*
X17165000Y24765000D01*
X17165000Y24511000D01*
X17145000Y24511000D01*
X17145000Y23311750D01*
X17303750Y23153000D01*
X17868000Y23149928D01*
X17992482Y23162188D01*
X18112180Y23198498D01*
X18136001Y23211231D01*
X18136000Y2760107D01*
X17964632Y2931475D01*
X17721411Y3093990D01*
X17451158Y3205932D01*
X17164260Y3263000D01*
X16871740Y3263000D01*
X16584842Y3205932D01*
X16314589Y3093990D01*
X16071368Y2931475D01*
X15864525Y2724632D01*
X15748000Y2550240D01*
X15631475Y2724632D01*
X15424632Y2931475D01*
X15181411Y3093990D01*
X14911158Y3205932D01*
X14624260Y3263000D01*
X14331740Y3263000D01*
X14044842Y3205932D01*
X13774589Y3093990D01*
X13531368Y2931475D01*
X13324525Y2724632D01*
X13208000Y2550240D01*
X13091475Y2724632D01*
X12884632Y2931475D01*
X12641411Y3093990D01*
X12371158Y3205932D01*
X12084260Y3263000D01*
X11791740Y3263000D01*
X11504842Y3205932D01*
X11234589Y3093990D01*
X10991368Y2931475D01*
X10784525Y2724632D01*
X10668000Y2550240D01*
X10551475Y2724632D01*
X10344632Y2931475D01*
X10101411Y3093990D01*
X9831158Y3205932D01*
X9544260Y3263000D01*
X9251740Y3263000D01*
X8964842Y3205932D01*
X8694589Y3093990D01*
X8451368Y2931475D01*
X8244525Y2724632D01*
X8128000Y2550240D01*
X8011475Y2724632D01*
X7804632Y2931475D01*
X7561411Y3093990D01*
X7291158Y3205932D01*
X7004260Y3263000D01*
X6711740Y3263000D01*
X6424842Y3205932D01*
X6154589Y3093990D01*
X5911368Y2931475D01*
X5704525Y2724632D01*
X5588000Y2550240D01*
X5471475Y2724632D01*
X5264632Y2931475D01*
X5021411Y3093990D01*
X4751158Y3205932D01*
X4464260Y3263000D01*
X4171740Y3263000D01*
X3884842Y3205932D01*
X3614589Y3093990D01*
X3371368Y2931475D01*
X3164525Y2724632D01*
X3048000Y2550240D01*
X2931475Y2724632D01*
X2724632Y2931475D01*
X2481411Y3093990D01*
X2211158Y3205932D01*
X1924260Y3263000D01*
X1631740Y3263000D01*
X1344842Y3205932D01*
X1074589Y3093990D01*
X831368Y2931475D01*
X660000Y2760107D01*
X660000Y7903109D01*
X5325500Y7903109D01*
X5325500Y7590891D01*
X5386411Y7284673D01*
X5505891Y6996221D01*
X5679350Y6736621D01*
X5900121Y6515850D01*
X6159721Y6342391D01*
X6448173Y6222911D01*
X6754391Y6162000D01*
X7066609Y6162000D01*
X7372827Y6222911D01*
X7661279Y6342391D01*
X7920879Y6515850D01*
X8141650Y6736621D01*
X8315109Y6996221D01*
X8434589Y7284673D01*
X8495500Y7590891D01*
X8495500Y7903109D01*
X8434589Y8209327D01*
X8315109Y8497779D01*
X8141650Y8757379D01*
X7920879Y8978150D01*
X7661279Y9151609D01*
X7372827Y9271089D01*
X7066609Y9332000D01*
X6754391Y9332000D01*
X6448173Y9271089D01*
X6159721Y9151609D01*
X5900121Y8978150D01*
X5679350Y8757379D01*
X5505891Y8497779D01*
X5386411Y8209327D01*
X5325500Y7903109D01*
X660000Y7903109D01*
X660000Y23655893D01*
X831368Y23484525D01*
X1074589Y23322010D01*
X1344842Y23210068D01*
X1631740Y23153000D01*
X1924260Y23153000D01*
X2211158Y23210068D01*
X2481411Y23322010D01*
X2724632Y23484525D01*
X2931475Y23691368D01*
X3048000Y23865760D01*
X3164525Y23691368D01*
X3371368Y23484525D01*
X3614589Y23322010D01*
X3884842Y23210068D01*
X4171740Y23153000D01*
X4464260Y23153000D01*
X4751158Y23210068D01*
X5021411Y23322010D01*
X5264632Y23484525D01*
X5471475Y23691368D01*
X5588000Y23865760D01*
X5704525Y23691368D01*
X5911368Y23484525D01*
X6154589Y23322010D01*
X6424842Y23210068D01*
X6711740Y23153000D01*
X7004260Y23153000D01*
X7291158Y23210068D01*
X7561411Y23322010D01*
X7804632Y23484525D01*
X8011475Y23691368D01*
X8128000Y23865760D01*
X8244525Y23691368D01*
X8451368Y23484525D01*
X8534400Y23429045D01*
X8534401Y18643600D01*
X3090417Y18643600D01*
X3047999Y18647778D01*
X3005582Y18643600D01*
X3005580Y18643600D01*
X2878705Y18631104D01*
X2715916Y18581722D01*
X2565888Y18501531D01*
X2434388Y18393612D01*
X2407345Y18360660D01*
X1197346Y17150659D01*
X1164389Y17123612D01*
X1110928Y17058469D01*
X1056469Y16992111D01*
X976279Y16842084D01*
X926896Y16679294D01*
X910222Y16510000D01*
X914401Y16467570D01*
X914400Y12921920D01*
X910222Y12879500D01*
X914400Y12837081D01*
X926896Y12710206D01*
X976278Y12547417D01*
X1056469Y12397389D01*
X1164388Y12265888D01*
X1197351Y12238836D01*
X2819939Y10616246D01*
X2785500Y10443109D01*
X2785500Y10130891D01*
X2846411Y9824673D01*
X2965891Y9536221D01*
X3139350Y9276621D01*
X3360121Y9055850D01*
X3619721Y8882391D01*
X3908173Y8762911D01*
X4214391Y8702000D01*
X4526609Y8702000D01*
X4832827Y8762911D01*
X5121279Y8882391D01*
X5380879Y9055850D01*
X5601650Y9276621D01*
X5775109Y9536221D01*
X5894589Y9824673D01*
X5955500Y10130891D01*
X5955500Y10443109D01*
X5894589Y10749327D01*
X5775109Y11037779D01*
X5601650Y11297379D01*
X5380879Y11518150D01*
X5322736Y11557000D01*
X5380879Y11595850D01*
X5601650Y11816621D01*
X5775109Y12076221D01*
X5894589Y12364673D01*
X5955500Y12670891D01*
X5955500Y12983109D01*
X5894589Y13289327D01*
X5775109Y13577779D01*
X5601650Y13837379D01*
X5595211Y13843818D01*
X5674994Y13886463D01*
X5771685Y13965815D01*
X5851037Y14062506D01*
X5893682Y14142289D01*
X5900121Y14135850D01*
X6159721Y13962391D01*
X6448173Y13842911D01*
X6754391Y13782000D01*
X7066609Y13782000D01*
X7239747Y13816440D01*
X10439939Y10616247D01*
X10405500Y10443109D01*
X10405500Y10130891D01*
X10466411Y9824673D01*
X10585891Y9536221D01*
X10759350Y9276621D01*
X10980121Y9055850D01*
X11239721Y8882391D01*
X11528173Y8762911D01*
X11834391Y8702000D01*
X12146609Y8702000D01*
X12452827Y8762911D01*
X12741279Y8882391D01*
X13000879Y9055850D01*
X13221650Y9276621D01*
X13395109Y9536221D01*
X13514589Y9824673D01*
X13575500Y10130891D01*
X13575500Y10443109D01*
X13514589Y10749327D01*
X13395109Y11037779D01*
X13221650Y11297379D01*
X13000879Y11518150D01*
X12942736Y11557000D01*
X13000879Y11595850D01*
X13221650Y11816621D01*
X13395109Y12076221D01*
X13514589Y12364673D01*
X13575500Y12670891D01*
X13575500Y12983109D01*
X13514589Y13289327D01*
X13395109Y13577779D01*
X13221650Y13837379D01*
X13000879Y14058150D01*
X12942736Y14097000D01*
X13000879Y14135850D01*
X13221650Y14356621D01*
X13395109Y14616221D01*
X13514589Y14904673D01*
X13575500Y15210891D01*
X13575500Y15523109D01*
X13514589Y15829327D01*
X13395109Y16117779D01*
X13221650Y16377379D01*
X13000879Y16598150D01*
X12741279Y16771609D01*
X12452827Y16891089D01*
X12146609Y16952000D01*
X11834391Y16952000D01*
X11528173Y16891089D01*
X11239721Y16771609D01*
X10980121Y16598150D01*
X10759350Y16377379D01*
X10720500Y16319236D01*
X10681650Y16377379D01*
X10460879Y16598150D01*
X10261600Y16731304D01*
X10261600Y17737580D01*
X10265778Y17780000D01*
X10261600Y17822420D01*
X10261600Y23429045D01*
X10344632Y23484525D01*
X10551475Y23691368D01*
X10668000Y23865760D01*
X10784525Y23691368D01*
X10991368Y23484525D01*
X11234589Y23322010D01*
X11504842Y23210068D01*
X11791740Y23153000D01*
X12084260Y23153000D01*
X12371158Y23210068D01*
X12641411Y23322010D01*
X12884632Y23484525D01*
X13091475Y23691368D01*
X13208000Y23865760D01*
X13324525Y23691368D01*
X13531368Y23484525D01*
X13774589Y23322010D01*
X14044842Y23210068D01*
X14331740Y23153000D01*
X14624260Y23153000D01*
X14911158Y23210068D01*
X15181411Y23322010D01*
X15424632Y23484525D01*
X15556487Y23616380D01*
X15578498Y23543820D01*
X15637463Y23433506D01*
X15716815Y23336815D01*
X15813506Y23257463D01*
X15923820Y23198498D01*
X16043518Y23162188D01*
X16168000Y23149928D01*
X16732250Y23153000D01*
X16891000Y23311750D01*
X16891000Y24511000D01*
X16871000Y24511000D01*
X16871000Y24765000D01*
X16891000Y24765000D01*
X16891000Y24785000D01*
X17145000Y24785000D01*
X17145000Y24765000D01*
M02*
