G04 #@! TF.GenerationSoftware,KiCad,Pcbnew,(5.1.5)-3*
G04 #@! TF.CreationDate,2020-03-16T23:27:22+01:00*
G04 #@! TF.ProjectId,switch,73776974-6368-42e6-9b69-6361645f7063,rev?*
G04 #@! TF.SameCoordinates,PX18f3350PY2d4c310*
G04 #@! TF.FileFunction,Copper,L2,Bot*
G04 #@! TF.FilePolarity,Positive*
%FSLAX46Y46*%
G04 Gerber Fmt 4.6, Leading zero omitted, Abs format (unit mm)*
G04 Created by KiCad (PCBNEW (5.1.5)-3) date 2020-03-16 23:27:22*
%MOMM*%
%LPD*%
G04 APERTURE LIST*
%ADD10C,0.050000*%
%ADD11O,1.700000X1.700000*%
%ADD12C,1.700000*%
%ADD13R,1.700000X1.700000*%
%ADD14C,1.900000*%
%ADD15R,1.900000X1.900000*%
%ADD16C,0.457200*%
%ADD17C,0.254000*%
G04 APERTURE END LIST*
D10*
X18796000Y26416000D02*
X0Y26416000D01*
X18796000Y0D02*
X18796000Y26416000D01*
X0Y0D02*
X18796000Y0D01*
X0Y26416000D02*
X0Y0D01*
D11*
X17018000Y1778000D03*
X14478000Y1778000D03*
X11938000Y1778000D03*
X9398000Y1778000D03*
X6858000Y1778000D03*
X4318000Y1778000D03*
D12*
X1778000Y1778000D03*
D13*
X17018000Y24638000D03*
D11*
X14478000Y24638000D03*
X11938000Y24638000D03*
X9398000Y24638000D03*
X6858000Y24638000D03*
X4318000Y24638000D03*
D12*
X1778000Y24638000D03*
D14*
X11990500Y10287000D03*
X4370500Y10287000D03*
X11990500Y12827000D03*
X4370500Y12827000D03*
X11990500Y15367000D03*
D15*
X4370500Y15367000D03*
D14*
X6910500Y7747000D03*
X9450500Y15367000D03*
X6910500Y15367000D03*
X11990500Y15367000D03*
D15*
X4370500Y15367000D03*
D16*
X11938000Y15367000D02*
X11938000Y24638000D01*
X6858000Y15367000D02*
X6858000Y24638000D01*
X4370500Y24585500D02*
X4318000Y24638000D01*
X4370500Y15367000D02*
X4370500Y24585500D01*
X4370500Y12827000D02*
X6731000Y12827000D01*
X3175000Y12827000D02*
X4370500Y12827000D01*
X1778000Y24638000D02*
X1778000Y14224000D01*
X1778000Y14224000D02*
X3175000Y12827000D01*
X6731000Y12827000D02*
X11990500Y12827000D01*
X6858000Y12700000D02*
X6731000Y12827000D01*
X6858000Y7747000D02*
X6858000Y12700000D01*
D17*
G36*
X17145000Y24765000D02*
G01*
X17165000Y24765000D01*
X17165000Y24511000D01*
X17145000Y24511000D01*
X17145000Y23311750D01*
X17303750Y23153000D01*
X17868000Y23149928D01*
X17992482Y23162188D01*
X18112180Y23198498D01*
X18136001Y23211231D01*
X18136000Y2760107D01*
X17964632Y2931475D01*
X17721411Y3093990D01*
X17451158Y3205932D01*
X17164260Y3263000D01*
X16871740Y3263000D01*
X16584842Y3205932D01*
X16314589Y3093990D01*
X16071368Y2931475D01*
X15864525Y2724632D01*
X15748000Y2550240D01*
X15631475Y2724632D01*
X15424632Y2931475D01*
X15181411Y3093990D01*
X14911158Y3205932D01*
X14624260Y3263000D01*
X14331740Y3263000D01*
X14044842Y3205932D01*
X13774589Y3093990D01*
X13531368Y2931475D01*
X13324525Y2724632D01*
X13208000Y2550240D01*
X13091475Y2724632D01*
X12884632Y2931475D01*
X12641411Y3093990D01*
X12371158Y3205932D01*
X12084260Y3263000D01*
X11791740Y3263000D01*
X11504842Y3205932D01*
X11234589Y3093990D01*
X10991368Y2931475D01*
X10784525Y2724632D01*
X10668000Y2550240D01*
X10551475Y2724632D01*
X10344632Y2931475D01*
X10101411Y3093990D01*
X9831158Y3205932D01*
X9544260Y3263000D01*
X9251740Y3263000D01*
X8964842Y3205932D01*
X8694589Y3093990D01*
X8451368Y2931475D01*
X8244525Y2724632D01*
X8128000Y2550240D01*
X8011475Y2724632D01*
X7804632Y2931475D01*
X7561411Y3093990D01*
X7291158Y3205932D01*
X7004260Y3263000D01*
X6711740Y3263000D01*
X6424842Y3205932D01*
X6154589Y3093990D01*
X5911368Y2931475D01*
X5704525Y2724632D01*
X5588000Y2550240D01*
X5471475Y2724632D01*
X5264632Y2931475D01*
X5021411Y3093990D01*
X4751158Y3205932D01*
X4464260Y3263000D01*
X4171740Y3263000D01*
X3884842Y3205932D01*
X3614589Y3093990D01*
X3371368Y2931475D01*
X3164525Y2724632D01*
X3048000Y2550240D01*
X2931475Y2724632D01*
X2724632Y2931475D01*
X2481411Y3093990D01*
X2211158Y3205932D01*
X1924260Y3263000D01*
X1631740Y3263000D01*
X1344842Y3205932D01*
X1074589Y3093990D01*
X831368Y2931475D01*
X660000Y2760107D01*
X660000Y23655893D01*
X831368Y23484525D01*
X914400Y23429045D01*
X914401Y14266430D01*
X910222Y14224000D01*
X926896Y14054706D01*
X976279Y13891916D01*
X1030119Y13791188D01*
X1056470Y13741888D01*
X1164389Y13610388D01*
X1197346Y13583341D01*
X2534345Y12246340D01*
X2561388Y12213388D01*
X2692888Y12105469D01*
X2842916Y12025278D01*
X3005705Y11975896D01*
X3034844Y11973026D01*
X3139350Y11816621D01*
X3360121Y11595850D01*
X3418264Y11557000D01*
X3360121Y11518150D01*
X3139350Y11297379D01*
X2965891Y11037779D01*
X2846411Y10749327D01*
X2785500Y10443109D01*
X2785500Y10130891D01*
X2846411Y9824673D01*
X2965891Y9536221D01*
X3139350Y9276621D01*
X3360121Y9055850D01*
X3619721Y8882391D01*
X3908173Y8762911D01*
X4214391Y8702000D01*
X4526609Y8702000D01*
X4832827Y8762911D01*
X5121279Y8882391D01*
X5380879Y9055850D01*
X5601650Y9276621D01*
X5775109Y9536221D01*
X5894589Y9824673D01*
X5955500Y10130891D01*
X5955500Y10443109D01*
X5894589Y10749327D01*
X5775109Y11037779D01*
X5601650Y11297379D01*
X5380879Y11518150D01*
X5322736Y11557000D01*
X5380879Y11595850D01*
X5601650Y11816621D01*
X5699724Y11963400D01*
X5994401Y11963400D01*
X5994400Y9041145D01*
X5900121Y8978150D01*
X5679350Y8757379D01*
X5505891Y8497779D01*
X5386411Y8209327D01*
X5325500Y7903109D01*
X5325500Y7590891D01*
X5386411Y7284673D01*
X5505891Y6996221D01*
X5679350Y6736621D01*
X5900121Y6515850D01*
X6159721Y6342391D01*
X6448173Y6222911D01*
X6754391Y6162000D01*
X7066609Y6162000D01*
X7372827Y6222911D01*
X7661279Y6342391D01*
X7920879Y6515850D01*
X8141650Y6736621D01*
X8315109Y6996221D01*
X8434589Y7284673D01*
X8495500Y7590891D01*
X8495500Y7903109D01*
X8434589Y8209327D01*
X8315109Y8497779D01*
X8141650Y8757379D01*
X7920879Y8978150D01*
X7721600Y9111304D01*
X7721600Y11963400D01*
X10661276Y11963400D01*
X10759350Y11816621D01*
X10980121Y11595850D01*
X11038264Y11557000D01*
X10980121Y11518150D01*
X10759350Y11297379D01*
X10585891Y11037779D01*
X10466411Y10749327D01*
X10405500Y10443109D01*
X10405500Y10130891D01*
X10466411Y9824673D01*
X10585891Y9536221D01*
X10759350Y9276621D01*
X10980121Y9055850D01*
X11239721Y8882391D01*
X11528173Y8762911D01*
X11834391Y8702000D01*
X12146609Y8702000D01*
X12452827Y8762911D01*
X12741279Y8882391D01*
X13000879Y9055850D01*
X13221650Y9276621D01*
X13395109Y9536221D01*
X13514589Y9824673D01*
X13575500Y10130891D01*
X13575500Y10443109D01*
X13514589Y10749327D01*
X13395109Y11037779D01*
X13221650Y11297379D01*
X13000879Y11518150D01*
X12942736Y11557000D01*
X13000879Y11595850D01*
X13221650Y11816621D01*
X13395109Y12076221D01*
X13514589Y12364673D01*
X13575500Y12670891D01*
X13575500Y12983109D01*
X13514589Y13289327D01*
X13395109Y13577779D01*
X13221650Y13837379D01*
X13000879Y14058150D01*
X12942736Y14097000D01*
X13000879Y14135850D01*
X13221650Y14356621D01*
X13395109Y14616221D01*
X13514589Y14904673D01*
X13575500Y15210891D01*
X13575500Y15523109D01*
X13514589Y15829327D01*
X13395109Y16117779D01*
X13221650Y16377379D01*
X13000879Y16598150D01*
X12801600Y16731304D01*
X12801600Y23429045D01*
X12884632Y23484525D01*
X13091475Y23691368D01*
X13208000Y23865760D01*
X13324525Y23691368D01*
X13531368Y23484525D01*
X13774589Y23322010D01*
X14044842Y23210068D01*
X14331740Y23153000D01*
X14624260Y23153000D01*
X14911158Y23210068D01*
X15181411Y23322010D01*
X15424632Y23484525D01*
X15556487Y23616380D01*
X15578498Y23543820D01*
X15637463Y23433506D01*
X15716815Y23336815D01*
X15813506Y23257463D01*
X15923820Y23198498D01*
X16043518Y23162188D01*
X16168000Y23149928D01*
X16732250Y23153000D01*
X16891000Y23311750D01*
X16891000Y24511000D01*
X16871000Y24511000D01*
X16871000Y24765000D01*
X16891000Y24765000D01*
X16891000Y24785000D01*
X17145000Y24785000D01*
X17145000Y24765000D01*
G37*
X17145000Y24765000D02*
X17165000Y24765000D01*
X17165000Y24511000D01*
X17145000Y24511000D01*
X17145000Y23311750D01*
X17303750Y23153000D01*
X17868000Y23149928D01*
X17992482Y23162188D01*
X18112180Y23198498D01*
X18136001Y23211231D01*
X18136000Y2760107D01*
X17964632Y2931475D01*
X17721411Y3093990D01*
X17451158Y3205932D01*
X17164260Y3263000D01*
X16871740Y3263000D01*
X16584842Y3205932D01*
X16314589Y3093990D01*
X16071368Y2931475D01*
X15864525Y2724632D01*
X15748000Y2550240D01*
X15631475Y2724632D01*
X15424632Y2931475D01*
X15181411Y3093990D01*
X14911158Y3205932D01*
X14624260Y3263000D01*
X14331740Y3263000D01*
X14044842Y3205932D01*
X13774589Y3093990D01*
X13531368Y2931475D01*
X13324525Y2724632D01*
X13208000Y2550240D01*
X13091475Y2724632D01*
X12884632Y2931475D01*
X12641411Y3093990D01*
X12371158Y3205932D01*
X12084260Y3263000D01*
X11791740Y3263000D01*
X11504842Y3205932D01*
X11234589Y3093990D01*
X10991368Y2931475D01*
X10784525Y2724632D01*
X10668000Y2550240D01*
X10551475Y2724632D01*
X10344632Y2931475D01*
X10101411Y3093990D01*
X9831158Y3205932D01*
X9544260Y3263000D01*
X9251740Y3263000D01*
X8964842Y3205932D01*
X8694589Y3093990D01*
X8451368Y2931475D01*
X8244525Y2724632D01*
X8128000Y2550240D01*
X8011475Y2724632D01*
X7804632Y2931475D01*
X7561411Y3093990D01*
X7291158Y3205932D01*
X7004260Y3263000D01*
X6711740Y3263000D01*
X6424842Y3205932D01*
X6154589Y3093990D01*
X5911368Y2931475D01*
X5704525Y2724632D01*
X5588000Y2550240D01*
X5471475Y2724632D01*
X5264632Y2931475D01*
X5021411Y3093990D01*
X4751158Y3205932D01*
X4464260Y3263000D01*
X4171740Y3263000D01*
X3884842Y3205932D01*
X3614589Y3093990D01*
X3371368Y2931475D01*
X3164525Y2724632D01*
X3048000Y2550240D01*
X2931475Y2724632D01*
X2724632Y2931475D01*
X2481411Y3093990D01*
X2211158Y3205932D01*
X1924260Y3263000D01*
X1631740Y3263000D01*
X1344842Y3205932D01*
X1074589Y3093990D01*
X831368Y2931475D01*
X660000Y2760107D01*
X660000Y23655893D01*
X831368Y23484525D01*
X914400Y23429045D01*
X914401Y14266430D01*
X910222Y14224000D01*
X926896Y14054706D01*
X976279Y13891916D01*
X1030119Y13791188D01*
X1056470Y13741888D01*
X1164389Y13610388D01*
X1197346Y13583341D01*
X2534345Y12246340D01*
X2561388Y12213388D01*
X2692888Y12105469D01*
X2842916Y12025278D01*
X3005705Y11975896D01*
X3034844Y11973026D01*
X3139350Y11816621D01*
X3360121Y11595850D01*
X3418264Y11557000D01*
X3360121Y11518150D01*
X3139350Y11297379D01*
X2965891Y11037779D01*
X2846411Y10749327D01*
X2785500Y10443109D01*
X2785500Y10130891D01*
X2846411Y9824673D01*
X2965891Y9536221D01*
X3139350Y9276621D01*
X3360121Y9055850D01*
X3619721Y8882391D01*
X3908173Y8762911D01*
X4214391Y8702000D01*
X4526609Y8702000D01*
X4832827Y8762911D01*
X5121279Y8882391D01*
X5380879Y9055850D01*
X5601650Y9276621D01*
X5775109Y9536221D01*
X5894589Y9824673D01*
X5955500Y10130891D01*
X5955500Y10443109D01*
X5894589Y10749327D01*
X5775109Y11037779D01*
X5601650Y11297379D01*
X5380879Y11518150D01*
X5322736Y11557000D01*
X5380879Y11595850D01*
X5601650Y11816621D01*
X5699724Y11963400D01*
X5994401Y11963400D01*
X5994400Y9041145D01*
X5900121Y8978150D01*
X5679350Y8757379D01*
X5505891Y8497779D01*
X5386411Y8209327D01*
X5325500Y7903109D01*
X5325500Y7590891D01*
X5386411Y7284673D01*
X5505891Y6996221D01*
X5679350Y6736621D01*
X5900121Y6515850D01*
X6159721Y6342391D01*
X6448173Y6222911D01*
X6754391Y6162000D01*
X7066609Y6162000D01*
X7372827Y6222911D01*
X7661279Y6342391D01*
X7920879Y6515850D01*
X8141650Y6736621D01*
X8315109Y6996221D01*
X8434589Y7284673D01*
X8495500Y7590891D01*
X8495500Y7903109D01*
X8434589Y8209327D01*
X8315109Y8497779D01*
X8141650Y8757379D01*
X7920879Y8978150D01*
X7721600Y9111304D01*
X7721600Y11963400D01*
X10661276Y11963400D01*
X10759350Y11816621D01*
X10980121Y11595850D01*
X11038264Y11557000D01*
X10980121Y11518150D01*
X10759350Y11297379D01*
X10585891Y11037779D01*
X10466411Y10749327D01*
X10405500Y10443109D01*
X10405500Y10130891D01*
X10466411Y9824673D01*
X10585891Y9536221D01*
X10759350Y9276621D01*
X10980121Y9055850D01*
X11239721Y8882391D01*
X11528173Y8762911D01*
X11834391Y8702000D01*
X12146609Y8702000D01*
X12452827Y8762911D01*
X12741279Y8882391D01*
X13000879Y9055850D01*
X13221650Y9276621D01*
X13395109Y9536221D01*
X13514589Y9824673D01*
X13575500Y10130891D01*
X13575500Y10443109D01*
X13514589Y10749327D01*
X13395109Y11037779D01*
X13221650Y11297379D01*
X13000879Y11518150D01*
X12942736Y11557000D01*
X13000879Y11595850D01*
X13221650Y11816621D01*
X13395109Y12076221D01*
X13514589Y12364673D01*
X13575500Y12670891D01*
X13575500Y12983109D01*
X13514589Y13289327D01*
X13395109Y13577779D01*
X13221650Y13837379D01*
X13000879Y14058150D01*
X12942736Y14097000D01*
X13000879Y14135850D01*
X13221650Y14356621D01*
X13395109Y14616221D01*
X13514589Y14904673D01*
X13575500Y15210891D01*
X13575500Y15523109D01*
X13514589Y15829327D01*
X13395109Y16117779D01*
X13221650Y16377379D01*
X13000879Y16598150D01*
X12801600Y16731304D01*
X12801600Y23429045D01*
X12884632Y23484525D01*
X13091475Y23691368D01*
X13208000Y23865760D01*
X13324525Y23691368D01*
X13531368Y23484525D01*
X13774589Y23322010D01*
X14044842Y23210068D01*
X14331740Y23153000D01*
X14624260Y23153000D01*
X14911158Y23210068D01*
X15181411Y23322010D01*
X15424632Y23484525D01*
X15556487Y23616380D01*
X15578498Y23543820D01*
X15637463Y23433506D01*
X15716815Y23336815D01*
X15813506Y23257463D01*
X15923820Y23198498D01*
X16043518Y23162188D01*
X16168000Y23149928D01*
X16732250Y23153000D01*
X16891000Y23311750D01*
X16891000Y24511000D01*
X16871000Y24511000D01*
X16871000Y24765000D01*
X16891000Y24765000D01*
X16891000Y24785000D01*
X17145000Y24785000D01*
X17145000Y24765000D01*
M02*
